<svg xmlns="http://www.w3.org/2000/svg" viewBox="0 0 94.02347 94.02347">
  <defs>
    <style>
      .cls-1 {
        fill: #5693d6;
      }

      .cls-2 {
        fill: #f7f8f9;
      }

      .cls-3, .cls-4 {
        fill: none;
        stroke: #f7f8f9;
        stroke-linecap: round;
        stroke-miterlimit: 10;
      }

      .cls-3 {
        stroke-width: 5px;
      }

      .cls-4 {
        stroke-width: 4.58925px;
      }

      .cls-5 {
        font-size: 16px;
        fill: #e8ecef;
        font-family: ChiaroStd-B-83pv-RKSJ-H, FOT-Chiaro Std;
      }
    </style>
  </defs>
  <g id="レイヤー_2" data-name="レイヤー 2">
    <g id="レイヤー_1-2" data-name="レイヤー 1">
      <g>
        <circle class="cls-1" cx="47.01174" cy="47.01174" r="47.01174"/>
        <path class="cls-2" d="M75.63105,54.45305c0,9.83629-12.8133,11.29117-28.61931,11.29117S18.39242,64.28934,18.39242,54.45305,31.20573,31.82619,47.01174,31.82619,75.63105,44.61676,75.63105,54.45305Z"/>
        <line class="cls-3" x1="46.77504" y1="3.46305" x2="35.08886" y2="13.4958"/>
        <line class="cls-3" x1="46.77504" y1="3.46305" x2="58.93461" y2="13.66774"/>
        <line class="cls-4" x1="47.01174" y1="65.74422" x2="46.68951" y2="87.45204"/>
        <path class="cls-4" d="M40.86051,65.64911S39.5713,85.81162,34.65007,85.69445"/>
        <path class="cls-4" d="M53.163,65.64911s1.2892,20.16251,6.21044,20.04534"/>
        <path class="cls-4" d="M32.20624,64.952S31.60359,80.656,27.61973,81.47625"/>
        <path class="cls-4" d="M61.81723,64.952s.60265,15.70408,4.58651,16.52428"/>
        <path class="cls-4" d="M26.61825,63.73654s-1.06856,9.71342-6.34131,9.3619c.23435.11717-5.91719-.35152-7.90912-5.85861"/>
        <path class="cls-4" d="M67.40737,63.73654s1.69133,12.58413,6.84691,14.69323"/>
        <text class="cls-5" transform="translate(29.91303 30.19405)">TOP</text>
      </g>
    </g>
  </g>
</svg>
