<svg xmlns="http://www.w3.org/2000/svg" viewBox="0 0 264.16 277.11"><defs><style>.cls-1{fill:#1b3793;}.cls-2{fill:#fff;stroke:#1a1356;stroke-miterlimit:10;stroke-width:3px;}</style></defs><g id="レイヤー_2" data-name="レイヤー 2"><g id="レイヤー_1-2" data-name="レイヤー 1"><path class="cls-1" d="M245,76.19s-39.89-58.55-144.36-8.6c2,.29-65.76-17.27-65.86,4.14C36.27,71,61.88,86.06,72,98.12c1.49-.73-54,95.47-39,132.83,1.25,0-33,26-33,46.16.73-1,27.53-30,39-27a2,2,0,0,0,1.37-.11c1.71-.79,7.23-2.07,11.2.48a.69.69,0,0,0,1.07-.63c-.42-5.87-4.12-20-4.12-20S98.05,165,122.36,147.46c2.29-1.65,5.45-3.91,7.91-5.63,5.17-3.63,14.33-9.47,9-3.85a38.3,38.3,0,0,1-8,6.08c-10.82,5.79-10,10-8.6,9.48,17.63,1.47,26.48,5.74,48.21-16a2.74,2.74,0,0,0,.23-.31,25.4,25.4,0,0,1,3-3.37c2.85-2.36,7.79-7.82,16.19-20.49,2.09-3.16,3.2-6.87,6.81-8,7.62-2.31,20.16-6.21,28.25-4.61,0,0,17.83-.88,32.15,5.28a4.77,4.77,0,0,0,6.17-6.53A68,68,0,0,0,245,76.19Z"/><path class="cls-2" d="M111,42.84,91,18.48A10.37,10.37,0,0,1,95.18,2.22h0a10.37,10.37,0,0,1,14.13,9.1Z"/><path class="cls-2" d="M102.33,51.43l-24-4A8,8,0,0,1,72.58,35.9h0A8,8,0,0,1,85.38,34Z"/><path class="cls-2" d="M125.67,45.23l2.65-19.7a6.53,6.53,0,0,1,9.32-5h0A6.53,6.53,0,0,1,139.48,31Z"/></g></g></svg>