<svg id="レイヤー_1" data-name="レイヤー 1" xmlns="http://www.w3.org/2000/svg" viewBox="0 0 649.70438 215.04862">
  <defs>
    <style>
      .cls-1 {
        fill: #0e7899;
      }

      .cls-1, .cls-16, .cls-2, .cls-9 {
        opacity: 0.9;
      }

      .cls-2 {
        font-size: 90.47662px;
      }

      .cls-2, .cls-9 {
        fill: #191970;
        font-family: ChiaroStd-B-83pv-RKSJ-H, FOT-Chiaro Std;
      }

      .cls-3 {
        letter-spacing: 0.2em;
      }

      .cls-4 {
        letter-spacing: 0.18em;
      }

      .cls-5 {
        letter-spacing: 0.16em;
      }

      .cls-6 {
        letter-spacing: 0.18em;
      }

      .cls-7 {
        letter-spacing: 0.14em;
      }

      .cls-8 {
        letter-spacing: 0.16em;
      }

      .cls-9 {
        font-size: 99.21385px;
      }

      .cls-10 {
        letter-spacing: 0.08em;
      }

      .cls-11 {
        letter-spacing: -0.06em;
      }

      .cls-12 {
        letter-spacing: 0.08em;
      }

      .cls-13 {
        letter-spacing: 0.1em;
      }

      .cls-14 {
        letter-spacing: 0.12em;
      }

      .cls-15 {
        letter-spacing: 0.06em;
      }

      .cls-16 {
        fill: #ebebf7;
        stroke: #fff;
        stroke-miterlimit: 10;
        stroke-width: 2px;
      }
    </style>
  </defs>
  <g>
    <path class="cls-1" d="M440.33108,365.92s-28.76675-36.33968-94.605,1.1394c1.31172.0989-43.718-8.19288-42.77974,5.78682.9422-.54261,18.362,8.08074,25.54685,15.47467.9424-.54258-30.761,64.82461-19.22058,88.50127.81293-.041-20.2911,18.51541-19.408,31.67278.43324-.66621,16.56153-20.83889,24.182-19.43675a1.32452,1.32452,0,0,0,.88872-.13533c1.0776-.59723,4.62249-1.69118,7.33019-.21565a.44874.44874,0,0,0,.6653-.45935c-.54356-3.8104-3.62027-12.86351-3.62027-12.86351s29.29006-44.66006,44.33654-57.21965c1.41478-1.18095,3.36933-2.80369,4.89646-4.04638,3.20268-2.60616,8.90894-6.851,5.67358-2.93134a24.98247,24.98247,0,0,1-4.94,4.34368c-6.792,4.28264-6.03625,6.98924-5.1705,6.58548,11.57529.13617,17.547,2.50811,30.71268-12.66707a1.98409,1.98409,0,0,0,.13866-.21075,15.98657,15.98657,0,0,1,1.797-2.34135c1.74667-1.67226,4.71929-5.46448,9.60575-14.12728,1.21733-2.15812,1.76952-4.63218,4.07225-5.51416,4.866-1.86376,12.86168-4.99548,18.21694-4.32679,0,0,11.59623-1.41,21.22506,1.94082a3.12527,3.12527,0,0,0,3.72216-4.55437A44.48817,44.48817,0,0,0,440.33108,365.92Z" transform="translate(-289.83762 -324.0715)"/>
    <text class="cls-2" transform="translate(182.36028 92.71182)"><tspan class="cls-3">s</tspan><tspan class="cls-4" x="64.23779" y="0">i</tspan><tspan class="cls-5" x="103.77539" y="0">m</tspan><tspan class="cls-6" x="192.16943" y="0">i</tspan><tspan class="cls-7" x="231.70654" y="0">k</tspan><tspan class="cls-4" x="290.15381" y="0">a</tspan><tspan class="cls-8" x="355.47803" y="0">y</tspan><tspan x="413.83447" y="0">a</tspan></text>
    <text class="cls-9" transform="translate(10.96988 191.83303)"> <tspan class="cls-10" x="30.75586" y="0">A</tspan><tspan class="cls-11" x="109.729" y="0">Q</tspan><tspan class="cls-12" x="191.67871" y="0">UA</tspan><tspan class="cls-13" x="351.01465" y="0">R</tspan><tspan class="cls-14" x="427.6084" y="0">I</tspan><tspan class="cls-15" x="469.97168" y="0">U</tspan><tspan x="548.35059" y="0">M</tspan></text>
    <path class="cls-16" d="M356.04967,346.25708l-11.47992-12.09949a4.55015,4.55015,0,0,1,1.35592-7.24535l1.59795-.75552a4.55015,4.55015,0,0,1,6.46,3.5499Z" transform="translate(-289.83762 -324.0715)"/>
    <path class="cls-16" d="M349.323,353.48854l-12.67617-4.555a3.50186,3.50186,0,0,1-1.62839-5.38178l.64465-.86909a3.50186,3.50186,0,0,1,5.62274-.00327Z" transform="translate(-289.83762 -324.0715)"/>
    <path class="cls-16" d="M364.5685,346.46255l-.62542-16.66719a4.55014,4.55014,0,0,1,5.80424-4.54361l1.69873.48841a4.55015,4.55015,0,0,1,2.5047,6.93255Z" transform="translate(-289.83762 -324.0715)"/>
  </g>
</svg>
