<svg xmlns="http://www.w3.org/2000/svg" viewBox="0 0 385.76 108.31"><defs><style>.cls-1{fill:#fff;}.cls-2{fill:#dbd9c5;}</style></defs><g id="レイヤー_2" data-name="レイヤー 2"><g id="レイヤー_4" data-name="レイヤー 4"><path class="cls-1" d="M108.28,93.06c0-.16,0-.32,0-.48V15.73A15.58,15.58,0,0,0,104.89,6C98.45,6.5,93.05,4.3,89.36,0H15.73C10.75,5.42,6.3,15.16,0,16.69V92.58a15.73,15.73,0,0,0,15.73,15.73H88.65V103C93.24,95.35,102.72,91.39,108.28,93.06Z"/><path class="cls-1" d="M108.29,93.06c0-.13,0-.27,0-.4v-77A15.57,15.57,0,0,0,104.93,6c-6.46.55-11.88-1.65-15.57-6H20.12C14.61,6.62,7.7,11.84.77,17H0V92.66a15.65,15.65,0,0,0,15.65,15.65h73V103C93.24,95.35,102.73,91.39,108.29,93.06Z"/><path class="cls-2" d="M108.29,93.06c0-.1,0-.2,0-.3V57.49h-.12L23,108.31H88.65V103C93.24,95.35,102.73,91.39,108.29,93.06Z"/><path class="cls-2" d="M108.29,93.06c-5.56-1.67-15.05,2.29-19.64,9.94v5.31h4.11A15.59,15.59,0,0,0,108.29,93.06Z"/><path class="cls-2" d="M0,31.42V92.76c0,.42,0,.82.06,1.23L49.42,26.07Z"/><polygon class="cls-2" points="108.31 40.29 108.31 28.36 60.96 47.78 108.31 40.29"/><polygon class="cls-2" points="61.05 24.81 47.72 47.3 103.78 20.19 61.05 24.81"/><path class="cls-2" d="M56.93,15.73,68.37,0H15.55A15.59,15.59,0,0,0,0,15.54v10.4Z"/><polygon class="cls-2" points="41.98 56.99 21.01 92.36 92.92 57.37 41.98 56.99"/><path class="cls-2" d="M104.59,6,89.66,0h-.3C93,4.23,98.28,6.44,104.59,6Z"/><path class="cls-2" d="M104.59,6C98.28,6.44,93,4.23,89.36,0H75.76l-8.2,13.83L105.71,7c-.17-.25-.35-.51-.53-.75Z"/><path class="cls-2" d="M92.76,0h-3.1l14.93,6L105,6A15.5,15.5,0,0,0,92.76,0Z"/><path class="cls-2" d="M105,6l-.36,0,.59.24C105.11,6.13,105,6.05,105,6Z"/><path class="cls-1" d="M160.56,61.74q4.16,5.22,4.16,8.58a7.33,7.33,0,0,1-2.45,5.89,6.6,6.6,0,0,1-4.42,1.61,3.84,3.84,0,0,1-2.19-.58,26.9,26.9,0,0,0-3.41-1.57q-2.77-1.2-9.45-3.71-2.28,1.94-5.61,5.12a2.7,2.7,0,0,1-2,.87A3.85,3.85,0,0,1,133,77a7.84,7.84,0,0,1-1.58-1.64,5.94,5.94,0,0,1-1.32-3.22,4.54,4.54,0,0,1,.87-2.45c.26-.43.51-.65.77-.65a.49.49,0,0,1,.55.55v.74a2.75,2.75,0,0,0,.55,1.81,2.26,2.26,0,0,0,1.87,1,5.58,5.58,0,0,0,2.67-1.19,132,132,0,0,1,19-10.6,65.46,65.46,0,0,1-3.77-5.61,11.8,11.8,0,0,1-1.84-5.6,9.81,9.81,0,0,1,1.52-5.32A27.92,27.92,0,0,1,157.6,39c-2.93-1.83-4.84-3.36-5.74-4.61a8,8,0,0,1-1.71-4.9c0-1,.27-1.45.81-1.45s.83.31.9.94q.36,4,6.41,6.06a16.9,16.9,0,0,1,4.87,2.44,3.43,3.43,0,0,1,1.64,2.78,1.45,1.45,0,0,1-1.64,1.64,4.76,4.76,0,0,1-1.26-.19,5.54,5.54,0,0,0-1.64-.2q-2.07,0-4.71,2.58a6.81,6.81,0,0,0-2.48,4.8,8.65,8.65,0,0,0,1.52,4.64c.47.73,2.09,2.95,4.86,6.64a29.67,29.67,0,0,1,9.44-1.51,22,22,0,0,1,11,2.7,11.36,11.36,0,0,1,3.71,3.36,6.6,6.6,0,0,1,1.38,3.77c0,1.67-.57,2.51-1.71,2.51a3,3,0,0,1-1.74-.48,3.37,3.37,0,0,0-1.74-.29l-1,0c-.47,0-1.37.07-2.7.16s-2.17.15-3,.19h-.26c-.53,0-.8-.18-.8-.54s.27-.69.8-.84c3.46-1,5.44-1.66,5.93-1.87s.81-.52.81-.9c0-1.08-1.24-2.33-3.71-3.77A16.35,16.35,0,0,0,168,60.74,22.35,22.35,0,0,0,160.56,61.74Zm-3,1.16a84.42,84.42,0,0,0-13.15,7.87A55,55,0,0,0,152.12,73a33.72,33.72,0,0,0,5.6.65q3,0,3-3.35Q160.75,67.25,157.53,62.9Zm14.4-29.48a2.43,2.43,0,0,1,.65.06,15.64,15.64,0,0,1,4.87,2.64q2.84,2.3,2.83,4.29c0,1.27-.55,1.9-1.64,1.9q-1,0-2.19-2.16a15.89,15.89,0,0,0-4.87-5.35.81.81,0,0,1-.39-.64A.65.65,0,0,1,171.93,33.42Zm5.55-4.1a4.17,4.17,0,0,1,1,.2,15.07,15.07,0,0,1,4.7,2.19q3,2.05,3,4.22a1.74,1.74,0,0,1-.55,1.35,1.32,1.32,0,0,1-1,.42c-.74,0-1.47-.59-2.2-1.77a14.94,14.94,0,0,0-5.41-5.29.73.73,0,0,1-.26-.67C176.8,29.54,177,29.32,177.48,29.32Z"/><path class="cls-1" d="M213.54,43.18a42.66,42.66,0,0,1-7.38.68,8.68,8.68,0,0,1-4.12-1,6.11,6.11,0,0,1-2.55-2.42,2,2,0,0,1-.26-.81.45.45,0,0,1,.52-.51,2.1,2.1,0,0,1,1,.38A8.77,8.77,0,0,0,206,41,39.64,39.64,0,0,0,214.86,40q1.17-2.8,2.32-6.48a8.92,8.92,0,0,0,.32-2.32,2,2,0,0,0-1.19-1.64,6.76,6.76,0,0,0-2.51-1c-.35-.09-.52-.22-.52-.39,0-.79.75-1.19,2.26-1.19a12.62,12.62,0,0,1,5.12,1.51q2.13,1,2.13,2.07A1.72,1.72,0,0,1,222,32a7.16,7.16,0,0,0-1.7,2.71l-.91,2.09c-.36.88-.69,1.66-1,2.32A38,38,0,0,0,224,37.06,8.82,8.82,0,0,1,227.33,36a2.27,2.27,0,0,1,1.49.55,1.47,1.47,0,0,1,.64,1.23c0,.9-.73,1.61-2.19,2.12a105.7,105.7,0,0,1-10.35,2.78q-7.56,17.4-12.47,27.1a2.21,2.21,0,0,1-2.19,1.32,1.67,1.67,0,0,1-1.32-.68,2,2,0,0,1-.45-1.29,2.91,2.91,0,0,1,.45-1.58A196.41,196.41,0,0,0,213.54,43.18Zm23.3,4.74a17.42,17.42,0,0,0-5.74-.81,21.13,21.13,0,0,0-3.48.29h-.16c-.56,0-.84-.18-.84-.55s.32-.79.94-1a19.83,19.83,0,0,1,5.61-.74,24.43,24.43,0,0,1,6.47.9,17.15,17.15,0,0,1,4.93,2.13Q247.34,50,247.35,52a1.7,1.7,0,0,1-.49,1.19,1.64,1.64,0,0,1-1.16.45,3.11,3.11,0,0,1-2.19-1.06A7.67,7.67,0,0,0,238.1,50a6.35,6.35,0,0,0-4.68,1.87,5.61,5.61,0,0,0-1.64,4.06,38.55,38.55,0,0,0,.74,6.67c.15.77.4,2,.74,3.55.26,1.2.44,2.11.55,2.74q9.06,2.86,12.21,5.73a3,3,0,0,1,1.13,2.32,1.7,1.7,0,0,1-2,1.9,3.41,3.41,0,0,1-1.74-.74,38.83,38.83,0,0,0-9.38-5.73,9.35,9.35,0,0,1-2.16,6c-1.61,1.68-4.25,2.51-7.93,2.51a10.53,10.53,0,0,1-7-2.12,5.18,5.18,0,0,1-2.06-4.13,6,6,0,0,1,3.28-5.32,12.13,12.13,0,0,1,6.35-1.61,28.27,28.27,0,0,1,5.77.45c-.71-6.31-1.06-9.84-1.06-10.57a8.61,8.61,0,0,1,2.09-6.18,11.89,11.89,0,0,1,5.45-2.9c.21-.09.32-.2.32-.33S237,48,236.84,47.92Zm-6.25,23.23a18,18,0,0,0-6-1,11.73,11.73,0,0,0-5.71,1.19,3.35,3.35,0,0,0-2,3,3,3,0,0,0,1.8,2.65,9.67,9.67,0,0,0,4.55.9q3.74,0,5.47-1.64T230.59,71.15Z"/><path class="cls-1" d="M288.53,37.12A8.85,8.85,0,0,1,289.85,42a23.32,23.32,0,0,1-1.25,6.48A59.76,59.76,0,0,1,279.09,66q-3.61,4.41-6.51,4.41t-5.29-3.45a16,16,0,0,1-2.32-8.7,21.67,21.67,0,0,1,7.19-16.37q7.6-7.12,19.14-7.12,10.63,0,17.05,6.57a19.26,19.26,0,0,1,5.54,14q0,10.35-10,16.37a38.4,38.4,0,0,1-18,5.16h-.16c-.65,0-1-.25-1-.74s.38-.9,1.13-1.07q10.5-1.8,16.85-7a17.23,17.23,0,0,0,6.8-13.86A15.87,15.87,0,0,0,304,41.51a19.13,19.13,0,0,0-11.86-4.39q-.84-.06-1.77-.06C289.69,37.06,289.09,37.08,288.53,37.12Zm-2,.26a23.16,23.16,0,0,0-13.21,6.67,18,18,0,0,0-5.35,13.05,14.35,14.35,0,0,0,1.58,6.67c.81,1.51,1.85,2.26,3.09,2.26s2.71-1.28,4.64-3.84a58.66,58.66,0,0,0,9.09-17.3,14.64,14.64,0,0,0,.93-4.74A3.87,3.87,0,0,0,286.5,37.38Z"/><path class="cls-1" d="M357,55.59V66h15.31c1.93-2.26,3.1-3.38,3.51-3.38s1.52.83,3.58,2.51C380.43,66,381,66.64,381,67s-.31.64-.94.64H357v11h19.88q3-3.51,3.49-3.51c.45,0,1.72.88,3.83,2.64,1.05.86,1.58,1.48,1.58,1.87s-.29.64-.87.64H331.23a35.91,35.91,0,0,0-5,.33l-.64-2.42a37,37,0,0,0,5.54.45h21.79v-11h-16.6a30.81,30.81,0,0,0-4.54.33l-.65-2.42a33.83,33.83,0,0,0,5.19.45h16.6V55.59H338.55v1.77c0,1.25-.84,1.87-2.52,1.87-1.22,0-1.83-.48-1.83-1.45l.25-17.92q0-10.95-.32-14.31a33,33,0,0,1,5,2.65h32.19c1.36-1.55,2.2-2.32,2.55-2.32s1.27.63,2.77,1.9c.71.62,1.06,1.14,1.06,1.54s-.57,1.07-1.71,1.84V39l.26,18.24q0,1.77-2.58,1.77a2.32,2.32,0,0,1-1.45-.32,1.41,1.41,0,0,1-.32-1.06v-2ZM338.55,40.86h14.34v-11H338.55Zm0,13.08h14.34V42.5H338.55ZM357,40.86H371.9v-11H357Zm0,13.08H371.9V42.5H357Z"/></g></g></svg>