<svg xmlns="http://www.w3.org/2000/svg" viewBox="0 0 251.13 323.49"><defs><style>.cls-1{fill:#fff;}</style></defs><g id="レイヤー_2" data-name="レイヤー 2"><g id="レイヤー_4" data-name="レイヤー 4"><path class="cls-1" d="M29.61,304.9q4,5.07,4,8.34A7.15,7.15,0,0,1,31.27,319a6.49,6.49,0,0,1-4.3,1.56,3.71,3.71,0,0,1-2.13-.56,25.72,25.72,0,0,0-3.33-1.54c-1.79-.77-4.86-2-9.18-3.6q-2.24,1.88-5.46,5a2.63,2.63,0,0,1-1.91.85,3.77,3.77,0,0,1-2.14-1,7.89,7.89,0,0,1-1.53-1.6A5.75,5.75,0,0,1,0,315a4.37,4.37,0,0,1,.85-2.38q.38-.63.75-.63a.47.47,0,0,1,.53.53v.73A2.67,2.67,0,0,0,2.67,315a2.18,2.18,0,0,0,1.81.94,5.44,5.44,0,0,0,2.61-1.16,127.1,127.1,0,0,1,18.47-10.31A63.55,63.55,0,0,1,21.89,299a11.47,11.47,0,0,1-1.79-5.46,9.47,9.47,0,0,1,1.48-5.17,27.22,27.22,0,0,1,5.14-5.62,20.92,20.92,0,0,1-5.58-4.48,7.84,7.84,0,0,1-1.66-4.77q0-1.41.78-1.41c.52,0,.82.3.88.91q.34,3.88,6.24,5.9a16.2,16.2,0,0,1,4.73,2.38,3.3,3.3,0,0,1,1.6,2.7,1.42,1.42,0,0,1-1.6,1.6,5,5,0,0,1-1.22-.19,5.33,5.33,0,0,0-1.6-.19c-1.34,0-2.86.84-4.58,2.51a6.6,6.6,0,0,0-2.41,4.67,8.47,8.47,0,0,0,1.47,4.52q.69,1.06,4.74,6.46a29,29,0,0,1,9.19-1.48,21.31,21.31,0,0,1,10.66,2.64A11,11,0,0,1,52,307.75a6.46,6.46,0,0,1,1.34,3.67c0,1.63-.55,2.44-1.66,2.44a2.79,2.79,0,0,1-1.69-.47,3.45,3.45,0,0,0-1.69-.28l-1,0-2.63.16c-1.15.08-2.11.15-2.89.19h-.25c-.52,0-.78-.18-.78-.53s.26-.67.78-.82q5.06-1.5,5.77-1.82c.52-.21.79-.5.79-.88,0-1-1.21-2.27-3.61-3.67a16.06,16.06,0,0,0-7.62-1.85A21.38,21.38,0,0,0,29.61,304.9ZM26.66,306a82.12,82.12,0,0,0-12.8,7.66,54,54,0,0,0,7.53,2.19,32.66,32.66,0,0,0,5.46.63q2.94,0,2.94-3.26C29.79,311.25,28.75,308.85,26.66,306Zm14-28.69a2.22,2.22,0,0,1,.62.06A15.13,15.13,0,0,1,46,280q2.76,2.24,2.76,4.17c0,1.24-.53,1.85-1.6,1.85q-1,0-2.13-2.1a15.45,15.45,0,0,0-4.74-5.2.81.81,0,0,1-.38-.63A.64.64,0,0,1,40.68,277.33Zm5.39-4a4.15,4.15,0,0,1,1,.18,14.55,14.55,0,0,1,4.58,2.14c1.93,1.34,2.89,2.7,2.89,4.1a1.7,1.7,0,0,1-.54,1.32,1.29,1.29,0,0,1-.94.41c-.71,0-1.42-.57-2.13-1.73a14.46,14.46,0,0,0-5.27-5.14.73.73,0,0,1-.25-.66C45.41,273.56,45.63,273.35,46.07,273.35Z"/><path class="cls-1" d="M81.16,286.83a41.15,41.15,0,0,1-7.18.66,8.37,8.37,0,0,1-4-1,5.85,5.85,0,0,1-2.48-2.36,1.85,1.85,0,0,1-.25-.78.44.44,0,0,1,.5-.5,1.94,1.94,0,0,1,1,.37,8.57,8.57,0,0,0,5.15,1.51,38.57,38.57,0,0,0,8.59-1c.75-1.81,1.51-3.92,2.26-6.3a8.82,8.82,0,0,0,.31-2.26c0-.58-.39-1.11-1.16-1.6a6.73,6.73,0,0,0-2.44-1c-.34-.08-.51-.21-.51-.37,0-.78.73-1.17,2.2-1.17a12.41,12.41,0,0,1,5,1.48q2.07,1,2.07,2a1.69,1.69,0,0,1-.78,1.47,7.05,7.05,0,0,0-1.66,2.63c0,.11-.34.79-.88,2-.36.86-.68,1.61-1,2.26a38,38,0,0,0,5.46-2,8.48,8.48,0,0,1,3.26-1,2.19,2.19,0,0,1,1.44.53,1.42,1.42,0,0,1,.63,1.19c0,.88-.71,1.57-2.14,2.07a100.58,100.58,0,0,1-10.06,2.7q-7.38,16.94-12.14,26.37A2.15,2.15,0,0,1,70.19,314a1.62,1.62,0,0,1-1.29-.66,1.91,1.91,0,0,1-.44-1.25,2.82,2.82,0,0,1,.44-1.54A190.76,190.76,0,0,0,81.16,286.83Zm22.68,4.61a17.12,17.12,0,0,0-5.58-.78,20.06,20.06,0,0,0-3.39.28h-.16c-.54,0-.81-.18-.81-.53s.3-.78.91-.94a19.11,19.11,0,0,1,5.45-.73,24.06,24.06,0,0,1,6.31.88,17.11,17.11,0,0,1,4.79,2.07c1.8,1.21,2.7,2.44,2.7,3.67a1.56,1.56,0,0,1-1.6,1.6,3,3,0,0,1-2.13-1,7.44,7.44,0,0,0-5.27-2.48,6.2,6.2,0,0,0-4.55,1.82,5.44,5.44,0,0,0-1.6,4,36.44,36.44,0,0,0,.73,6.49q.21,1.13.72,3.45c.25,1.17.43,2.06.53,2.67q8.81,2.79,11.89,5.58a2.88,2.88,0,0,1,1.09,2.26,1.66,1.66,0,0,1-1.91,1.85,3.48,3.48,0,0,1-1.69-.72,37.89,37.89,0,0,0-9.13-5.59,9.17,9.17,0,0,1-2.1,5.84q-2.36,2.44-7.71,2.44a10.22,10.22,0,0,1-6.81-2.07,5,5,0,0,1-2-4,5.88,5.88,0,0,1,3.2-5.18,11.82,11.82,0,0,1,6.18-1.56,27.7,27.7,0,0,1,5.61.43q-1-9.21-1-10.28a8.36,8.36,0,0,1,2-6,11.49,11.49,0,0,1,5.3-2.83c.21-.08.31-.18.31-.31S104,291.5,103.84,291.44Zm-6.09,22.61a17.46,17.46,0,0,0-5.8-.94,11.5,11.5,0,0,0-5.55,1.16,3.28,3.28,0,0,0-1.91,2.89,2.85,2.85,0,0,0,1.75,2.57,9.46,9.46,0,0,0,4.43.88c2.42,0,4.2-.54,5.33-1.6S97.67,316.37,97.75,314.05Z"/><path class="cls-1" d="M154.14,280.93a8.58,8.58,0,0,1,1.29,4.74,22.53,22.53,0,0,1-1.22,6.3A58,58,0,0,1,145,309q-3.51,4.31-6.33,4.3c-2,0-3.66-1.12-5.15-3.36a15.53,15.53,0,0,1-2.25-8.46,21.09,21.09,0,0,1,7-15.93q7.39-6.93,18.63-6.94,10.35,0,16.59,6.4a18.74,18.74,0,0,1,5.39,13.64q0,10.08-9.75,15.94a37.24,37.24,0,0,1-17.5,5h-.16c-.62,0-.94-.24-.94-.72s.37-.86,1.1-1Q161.8,316.1,168,311a16.76,16.76,0,0,0,6.62-13.48,15.45,15.45,0,0,0-5.43-12.36,18.68,18.68,0,0,0-11.54-4.27c-.54,0-1.12-.06-1.72-.06S154.69,280.89,154.14,280.93Zm-2,.26a22.54,22.54,0,0,0-12.86,6.49,17.49,17.49,0,0,0-5.21,12.7,13.87,13.87,0,0,0,1.54,6.49c.79,1.47,1.8,2.2,3,2.2s2.63-1.25,4.52-3.74A57.19,57.19,0,0,0,152,288.49a14.08,14.08,0,0,0,.91-4.61A3.78,3.78,0,0,0,152.17,281.19Z"/><path class="cls-1" d="M220.75,298.91v10.16h14.9q2.82-3.3,3.42-3.3c.31,0,1.47.82,3.48,2.45,1,.84,1.54,1.44,1.54,1.82s-.31.63-.91.63H220.75v10.66H240.1q2.93-3.42,3.39-3.42.66,0,3.73,2.57c1,.84,1.54,1.44,1.54,1.82s-.28.63-.85.63H195.7a35.65,35.65,0,0,0-4.9.31l-.62-2.35a36.28,36.28,0,0,0,5.39.44h21.2V310.67H200.62a30.56,30.56,0,0,0-4.42.31l-.63-2.35a33.08,33.08,0,0,0,5.05.44h16.15V298.91h-14v1.72c0,1.21-.82,1.82-2.45,1.82-1.19,0-1.79-.47-1.79-1.41l.25-17.44q0-10.67-.31-13.92a32.58,32.58,0,0,1,4.86,2.57h31.33c1.32-1.51,2.14-2.26,2.48-2.26s1.23.62,2.69,1.85c.69.61,1,1.11,1,1.51s-.55,1-1.66,1.78v7.59l.25,17.75c0,1.15-.84,1.73-2.51,1.73a2.28,2.28,0,0,1-1.41-.31,1.37,1.37,0,0,1-.32-1v-1.94Zm-17.93-14.34h14V273.85h-14Zm0,12.74h14V286.17h-14Zm17.93-12.74h14.52V273.85H220.75Zm0,12.74h14.52V286.17H220.75Z"/><path class="cls-1" d="M250.86,133.22,53.35,251H215.11a36.13,36.13,0,0,0,36-36V133.22Z"/><path class="cls-1" d="M.16,72.81V215c0,1,.08,1.91.15,2.84L114.68,60.41Z"/><polygon class="cls-1" points="251.13 93.37 251.13 65.73 141.41 110.72 251.13 93.37"/><polygon class="cls-1" points="141.63 57.49 110.75 109.6 240.65 46.78 141.63 57.49"/><path class="cls-1" d="M132.09,36.46,158.58,0H36.19a36.13,36.13,0,0,0-36,36v24.1Z"/><polygon class="cls-1" points="97.43 132.06 48.84 214.02 215.49 132.95 97.43 132.06"/><path class="cls-1" d="M156.72,32l88.4-15.86A36,36,0,0,0,215.11,0h-39.4Z"/></g></g></svg>