<svg xmlns="http://www.w3.org/2000/svg" viewBox="0 0 56.69 56.69"><defs><style>.cls-1{fill:#fff;}.cls-2{fill:#dbd9c5;}</style></defs><g id="レイヤー_2" data-name="レイヤー 2"><g id="レイヤー_1-2" data-name="レイヤー 1"><path class="cls-1" d="M54.91,3.12A8.22,8.22,0,0,0,48.46,0H46.78A9.3,9.3,0,0,0,54.91,3.12Z"/><path class="cls-1" d="M8.23,0h0A8.24,8.24,0,0,0,0,8.23v.51C3.3,7.93,5.63,2.84,8.23,0Z"/><path class="cls-1" d="M56.68,48.71c0-.08,0-.17,0-.25V8.23a8.23,8.23,0,0,0-1.78-5.11A9.3,9.3,0,0,1,46.78,0H8.23C5.63,2.84,3.3,7.93,0,8.74V48.46a8.23,8.23,0,0,0,8.23,8.23H46.4V53.92C48.8,49.91,53.77,47.84,56.68,48.71Z"/><path class="cls-1" d="M56.68,48.71c-2.91-.87-7.88,1.2-10.28,5.21v2.77h2.06A8.23,8.23,0,0,0,56.68,48.71Z"/><path class="cls-1" d="M56.68,48.71c0-.07,0-.14,0-.21V8.19a8.16,8.16,0,0,0-1.76-5.07A9.3,9.3,0,0,1,46.78,0H10.53C7.65,3.47,4,6.2.4,8.92H0V48.5a8.19,8.19,0,0,0,8.19,8.19H46.4V53.92C48.81,49.91,53.77,47.84,56.68,48.71Z"/><path class="cls-2" d="M56.68,48.71a.76.76,0,0,0,0-.15V30.09h-.06L12,56.69H46.4V53.92C48.81,49.91,53.77,47.84,56.68,48.71Z"/><path class="cls-2" d="M56.68,48.71c-2.91-.87-7.87,1.2-10.28,5.21v2.77h2.16A8.15,8.15,0,0,0,56.68,48.71Z"/><path class="cls-2" d="M0,16.45V48.56c0,.21,0,.43,0,.64L25.87,13.65Z"/><polygon class="cls-2" points="56.69 21.09 56.69 14.85 31.91 25.01 56.69 21.09"/><polygon class="cls-2" points="31.96 12.99 24.98 24.76 54.32 10.57 31.96 12.99"/><path class="cls-2" d="M29.8,8.24l6-8.24H8.14A8.16,8.16,0,0,0,0,8.14v5.44Z"/><polygon class="cls-2" points="21.97 29.83 11 48.35 48.64 30.03 21.97 29.83"/><path class="cls-2" d="M54.75,3.14,46.93,0h-.15A9.29,9.29,0,0,0,54.75,3.14Z"/><path class="cls-2" d="M54.75,3.14a9.29,9.29,0,0,1-8-3.14H39.66L35.37,7.24l20-3.58c-.09-.14-.19-.27-.28-.4Z"/><path class="cls-2" d="M48.56,0H46.93l7.82,3.14.19,0A8.15,8.15,0,0,0,48.56,0Z"/><path class="cls-2" d="M54.94,3.12l-.19,0,.31.12A1.49,1.49,0,0,1,54.94,3.12Z"/></g></g></svg>