<?xml version="1.0" encoding="UTF-8"?>
<svg id="_レイヤー_1" data-name="レイヤー 1" xmlns="http://www.w3.org/2000/svg" viewBox="0 0 600 203">
  <defs>
    <style>
      .cls-1 {
        fill: #afbcbb;
      }

      .cls-2 {
        letter-spacing: -.03em;
      }

      .cls-3 {
        letter-spacing: 0em;
      }

      .cls-4 {
        fill: #f7931e;
        font-family: DNPShueiNShogoMinStd-Hv-90ms-RKSJ-H, DNPShueiNShogoMinStd;
        font-size: 43.42px;
      }

      .cls-4, .cls-5, .cls-6, .cls-7, .cls-8, .cls-9 {
        isolation: isolate;
      }

      .cls-10 {
        letter-spacing: -.07em;
      }

      .cls-11 {
        letter-spacing: -.48em;
      }

      .cls-5 {
        letter-spacing: .25em;
      }

      .cls-5, .cls-6, .cls-8, .cls-9 {
        font-family: KozGoPr6N-Regular-90ms-RKSJ-H, 'Kozuka Gothic Pr6N';
      }

      .cls-5, .cls-8 {
        font-size: 16.5px;
      }

      .cls-12 {
        letter-spacing: 0em;
      }

      .cls-13 {
        fill: #020202;
      }

      .cls-6 {
        font-size: 18.65px;
      }

      .cls-14 {
        letter-spacing: 0em;
      }

      .cls-15 {
        letter-spacing: -.09em;
      }

      .cls-16 {
        fill: #eae6d8;
      }

      .cls-17 {
        letter-spacing: -.02em;
      }

      .cls-18 {
        letter-spacing: -.07em;
      }

      .cls-19 {
        fill: #603813;
      }

      .cls-20 {
        stroke: #afbcbb;
      }

      .cls-20, .cls-21 {
        stroke-width: .24px;
      }

      .cls-20, .cls-21, .cls-22 {
        fill: none;
        stroke-miterlimit: 10;
      }

      .cls-23 {
        fill: #efe8cb;
      }

      .cls-21 {
        stroke: #000;
      }

      .cls-24 {
        fill: #ccc;
      }

      .cls-25 {
        letter-spacing: 0em;
      }

      .cls-26 {
        letter-spacing: -.04em;
      }

      .cls-22 {
        stroke: #eeeeef;
        stroke-width: .73px;
      }

      .cls-9 {
        font-size: 31.96px;
      }

      .cls-27 {
        letter-spacing: -.15em;
      }

      .cls-28 {
        fill: #e1efee;
      }

      .cls-29 {
        fill: #7acecc;
      }
    </style>
  </defs>
  <g id="_レイヤー_2" data-name="レイヤー 2">
    <g id="_レイヤー_1-2" data-name="レイヤー 1-2">
      <g>
        <polygon class="cls-13" points="165.34 168.5 169.01 170.73 165.09 172.62 165.34 168.5"/>
        <polygon class="cls-13" points="188.38 169.3 192.06 171.53 188.14 173.42 188.38 169.3"/>
        <polygon class="cls-13" points="211.39 170.1 215.07 172.33 211.15 174.22 211.39 170.1"/>
        <polygon class="cls-13" points="236.42 170.17 240.1 172.4 236.18 174.29 236.42 170.17"/>
        <polygon class="cls-1" points="265.11 171.38 268.79 173.61 264.87 175.51 265.11 171.38"/>
        <path class="cls-24" d="M571.03.68c15.61.02,28.27,12.67,28.28,28.28v145.06c-.02,15.61-12.67,28.27-28.28,28.28H28.97c-15.61-.02-28.27-12.67-28.28-28.28V28.97C.7,13.35,13.35.7,28.97.68h542.06M571.03,0H28.97C12.97,0,0,12.97,0,28.97v145.06c0,16,12.97,28.97,28.97,28.97h542.06c16,0,28.97-12.97,28.97-28.97h0V28.97C600,12.97,587.03,0,571.03,0c0,0,0,0,0,0Z"/>
        <g class="cls-7">
          <text class="cls-8" transform="translate(38.45 164.94) scale(1.02 1)"><tspan x="0" y="0">習</tspan><tspan class="cls-10" x="16.5" y="0">得</tspan><tspan class="cls-14" x="31.84" y="0">レ</tspan><tspan x="48.5" y="0">ベ</tspan></text>
          <text class="cls-5" transform="translate(106.02 164.94) scale(1.02 1)"><tspan x="0" y="0">ル</tspan></text>
          <text class="cls-8" transform="translate(127.13 164.94) scale(1.02 1)"><tspan x="0" y="0">:　</tspan></text>
        </g>
        <path class="cls-19" d="M95.75,25.56h-34.98c-11.4-.13-20.76,9-20.89,20.41v34.17c.14,11.4,9.49,20.54,20.89,20.41h34.98c11.4.13,20.76-9,20.89-20.41v-34.17c-.14-11.4-9.49-20.54-20.89-20.41Z"/>
        <text class="cls-4" transform="translate(54.42 80.09) scale(1.1 1)"><tspan x="0" y="0">Ai</tspan></text>
        <text class="cls-9" transform="translate(135.86 61.34) scale(1.02 1)"><tspan x="0" y="0">Illustrator ve</tspan><tspan class="cls-25" x="177.59" y="0">r</tspan><tspan class="cls-3" x="188.33" y="0">. CC2022</tspan></text>
        <text class="cls-6" transform="translate(137.82 92.56) scale(1.02 1)"><tspan class="cls-27" x="0" y="0">ア</tspan><tspan class="cls-15" x="15.85" y="0">イ</tspan><tspan class="cls-18" x="32.82" y="0">コ</tspan><tspan class="cls-17" x="50.17" y="0">ン</tspan><tspan x="68.45" y="0">作</tspan><tspan class="cls-17" x="87.1" y="0">成</tspan><tspan class="cls-11" x="105.37" y="0">、</tspan><tspan class="cls-2" x="115.07" y="0">バ</tspan><tspan class="cls-26" x="133.16" y="0">ナ</tspan><tspan class="cls-12" x="151.07" y="0">ー</tspan><tspan x="169.53" y="0">作成可能</tspan></text>
        <line class="cls-22" x1="175.39" y1="162.54" x2="175.13" y2="158.81"/>
        <g>
          <path class="cls-23" d="M165.54,165.69c.04-.95.85-1.68,1.79-1.63.29.01.57.1.81.25l3.57,2.16c.81.49,1.07,1.55.58,2.36-.17.29-.43.52-.74.66l-6.36,3.01.34-6.81Z"/>
          <path d="M167.27,164.21c.29,0,.56.08.81.23l3.57,2.16c.74.45.98,1.41.53,2.15-.16.26-.39.47-.67.6l-6.13,2.9.33-6.55c.04-.83.73-1.49,1.57-1.49M167.27,163.9c-1,0-1.83.78-1.88,1.78l-.35,7.07,6.6-3.12c.94-.44,1.34-1.56.89-2.5-.16-.33-.41-.61-.72-.8l-3.57-2.16c-.29-.18-.63-.27-.97-.27h0Z"/>
        </g>
        <g>
          <path class="cls-29" d="M171.56,168.67l-1.12-.25-.53-.75-1.08-.22-.57-.78-1.16-.27-.49-.73-1.16-.32,15.28-22.06c.18-.23.47-.36.76-.35.27,0,.54.08.77.22l4.6,2.79c.3.17.52.45.61.78.05.19.01.4-.1.56l-15.28,22.06-.52-.69Z"/>
          <path d="M181.49,143.05h0c.25,0,.5.08.72.21l4.6,2.79c.27.15.47.41.56.71.04.16,0,.34-.08.48l-15.2,21.94-.44-.57-.05-.06-.08-.02-.98-.19-.54-.73-.05-.07h-.08s-.94-.18-.94-.18l-.59-.76-.05-.06-.08-.02-1.01-.21-.51-.71-.04-.06-.07-.02-.95-.24,15.19-21.93c.16-.2.41-.32.67-.3M181.49,142.83c-.33-.02-.65.13-.85.39l-15.36,22.18,1.24.32.56.77,1.09.23.64.82,1.02.18.59.8,1.06.21.61.81,15.36-22.18c.27-.54.05-1.2-.49-1.47-.02,0-.03-.02-.05-.02l-4.6-2.79c-.25-.15-.53-.24-.83-.24h0Z"/>
        </g>
        <line class="cls-21" x1="165.99" y1="165.53" x2="181.58" y2="143.01"/>
        <line class="cls-21" x1="167.81" y1="166.07" x2="183.34" y2="143.65"/>
        <line class="cls-21" x1="169.47" y1="167.07" x2="184.99" y2="144.65"/>
        <line class="cls-21" x1="171.12" y1="168.07" x2="186.64" y2="145.65"/>
        <line class="cls-22" x1="198.43" y1="163.34" x2="198.18" y2="159.62"/>
        <g>
          <path class="cls-23" d="M188.59,166.49c.04-.95.85-1.68,1.79-1.63.29.01.57.1.81.25l3.57,2.16c.81.49,1.07,1.55.58,2.36-.17.29-.43.52-.74.66l-6.36,3.01.34-6.81Z"/>
          <path d="M190.31,165.01c.29,0,.56.08.81.23l3.57,2.16c.74.45.98,1.41.53,2.15-.16.26-.39.47-.67.6l-6.13,2.9.33-6.55c.04-.83.73-1.49,1.57-1.49M190.31,164.7c-1,0-1.83.78-1.88,1.78l-.35,7.07,6.6-3.12c.94-.44,1.34-1.56.89-2.5-.16-.33-.41-.61-.72-.8l-3.57-2.16c-.29-.18-.63-.27-.97-.27h0Z"/>
        </g>
        <g>
          <path class="cls-29" d="M194.61,169.47l-1.12-.25-.53-.75-1.08-.22-.57-.78-1.16-.27-.49-.73-1.16-.32,15.28-22.06c.18-.23.47-.36.76-.34.27,0,.54.08.77.22l4.6,2.79c.3.17.52.45.61.78.05.19.01.4-.1.56l-15.28,22.06-.52-.69Z"/>
          <path d="M204.54,143.85h0c.25,0,.5.08.72.21l4.6,2.79c.27.15.47.41.56.71.04.16,0,.34-.08.48l-15.19,21.94-.44-.57-.05-.06-.08-.02-.98-.19-.54-.73-.05-.07h-.08s-.94-.18-.94-.18l-.59-.76-.05-.06-.08-.02-1.01-.21-.51-.71-.04-.06-.07-.02-.95-.24,15.19-21.93c.16-.2.41-.32.67-.3M204.54,143.64c-.33-.02-.65.13-.85.39l-15.36,22.18,1.24.32.56.77,1.09.23.64.82,1.02.18.59.8,1.06.21.61.81,15.36-22.18c.27-.54.05-1.2-.49-1.47-.02,0-.03-.02-.05-.02l-4.6-2.79c-.25-.15-.53-.24-.83-.24h0Z"/>
        </g>
        <line class="cls-21" x1="189.04" y1="166.33" x2="204.63" y2="143.81"/>
        <line class="cls-21" x1="190.86" y1="166.87" x2="206.39" y2="144.45"/>
        <line class="cls-21" x1="192.51" y1="167.87" x2="208.04" y2="145.45"/>
        <line class="cls-21" x1="194.16" y1="168.87" x2="209.69" y2="146.45"/>
        <line class="cls-22" x1="221.44" y1="164.14" x2="221.18" y2="160.42"/>
        <g>
          <path class="cls-23" d="M211.6,167.29c.04-.95.85-1.68,1.79-1.63.29.01.57.1.81.25l3.57,2.16c.81.49,1.07,1.55.58,2.36-.18.29-.43.52-.74.66l-6.36,3.01.34-6.81Z"/>
          <path d="M213.32,165.81c.29,0,.56.08.81.23l3.57,2.16c.74.45.98,1.41.53,2.15-.16.26-.39.47-.67.6l-6.13,2.9.33-6.55c.04-.83.73-1.49,1.57-1.49M213.32,165.5c-1,0-1.83.78-1.88,1.78l-.35,7.07,6.6-3.12c.94-.44,1.34-1.56.89-2.5-.16-.33-.41-.61-.72-.8l-3.57-2.16c-.29-.18-.63-.27-.97-.27h0Z"/>
        </g>
        <g>
          <path class="cls-29" d="M217.62,170.27l-1.12-.25-.53-.75-1.08-.22-.57-.78-1.16-.27-.49-.73-1.16-.32,15.28-22.06c.18-.23.47-.36.76-.34.27,0,.54.08.77.22l4.6,2.79c.3.17.52.45.61.78.05.19.01.4-.1.56l-15.28,22.06-.53-.69Z"/>
          <path d="M227.55,144.65h0c.25,0,.5.08.72.21l4.6,2.79c.27.15.47.41.56.71.04.16,0,.34-.08.48l-15.2,21.94-.44-.57-.05-.06-.08-.02-.98-.19-.54-.73-.05-.07h-.08s-.94-.18-.94-.18l-.59-.76-.05-.06-.08-.02-1.01-.21-.51-.71-.04-.06-.07-.02-.95-.24,15.19-21.93c.16-.2.41-.32.67-.3M227.55,144.44c-.33-.02-.65.13-.85.39l-15.36,22.18,1.24.32.56.77,1.09.23.64.82,1.02.18.59.8,1.06.21.61.81,15.36-22.18c.27-.54.05-1.2-.49-1.47-.02,0-.03-.02-.05-.02l-4.6-2.79c-.25-.15-.53-.24-.83-.24h0Z"/>
        </g>
        <line class="cls-21" x1="212.04" y1="167.13" x2="227.64" y2="144.61"/>
        <line class="cls-21" x1="213.87" y1="167.67" x2="229.39" y2="145.25"/>
        <line class="cls-21" x1="215.52" y1="168.67" x2="231.05" y2="146.25"/>
        <line class="cls-21" x1="217.17" y1="169.67" x2="232.7" y2="147.25"/>
        <line class="cls-22" x1="246.47" y1="164.21" x2="246.21" y2="160.49"/>
        <g>
          <path class="cls-23" d="M236.63,167.36c.04-.95.85-1.68,1.79-1.63.29.01.57.1.81.25l3.57,2.16c.81.49,1.07,1.55.58,2.36-.17.29-.43.52-.74.66l-6.36,3.01.34-6.81Z"/>
          <path d="M238.35,165.88c.29,0,.56.08.81.23l3.57,2.16c.74.45.98,1.41.53,2.15-.16.26-.39.47-.67.6l-6.13,2.9.33-6.55c.04-.83.73-1.49,1.57-1.49M238.35,165.57c-1,0-1.83.78-1.88,1.78l-.35,7.07,6.6-3.12c.94-.44,1.34-1.56.89-2.5-.16-.33-.41-.61-.72-.8l-3.57-2.16c-.29-.18-.63-.27-.97-.27h0Z"/>
        </g>
        <g>
          <path class="cls-29" d="M242.65,170.34l-1.12-.25-.53-.75-1.08-.22-.57-.78-1.16-.27-.49-.73-1.16-.32,15.28-22.06c.18-.23.47-.36.76-.34.27,0,.54.08.77.22l4.6,2.79c.3.17.52.45.61.78.05.19.01.4-.1.56l-15.28,22.06-.52-.69Z"/>
          <path d="M252.57,144.72h0c.25,0,.5.08.72.21l4.6,2.79c.27.15.47.41.56.71.04.16,0,.34-.08.48l-15.2,21.94-.44-.57-.05-.06-.08-.02-.98-.19-.54-.73-.05-.07h-.08s-.94-.18-.94-.18l-.59-.76-.05-.06-.08-.02-1.01-.21-.51-.71-.04-.06-.07-.02-.95-.24,15.19-21.93c.16-.2.41-.32.67-.3M252.57,144.5c-.33-.02-.65.13-.85.39l-15.36,22.18,1.24.32.56.77,1.09.23.64.82,1.02.18.59.8,1.06.21.61.81,15.36-22.18c.27-.54.05-1.2-.49-1.47-.02,0-.03-.02-.05-.02l-4.6-2.79c-.25-.15-.53-.24-.83-.24h0Z"/>
        </g>
        <line class="cls-21" x1="237.07" y1="167.2" x2="252.66" y2="144.68"/>
        <line class="cls-21" x1="238.9" y1="167.74" x2="254.42" y2="145.32"/>
        <line class="cls-21" x1="240.55" y1="168.74" x2="256.07" y2="146.32"/>
        <line class="cls-21" x1="242.2" y1="169.74" x2="257.73" y2="147.32"/>
        <line class="cls-22" x1="275.16" y1="165.43" x2="274.9" y2="161.7"/>
        <g>
          <path class="cls-16" d="M265.32,168.57c.04-.95.85-1.68,1.79-1.63.29.01.57.1.81.25l3.57,2.16c.81.49,1.07,1.55.58,2.36-.17.29-.43.52-.74.66l-6.36,3.01.34-6.81Z"/>
          <path class="cls-1" d="M267.04,167.09c.29,0,.56.08.81.23l3.57,2.16c.74.45.98,1.41.53,2.15-.16.26-.39.47-.67.6l-6.13,2.9.33-6.55c.04-.83.73-1.49,1.57-1.49M267.04,166.78c-1,0-1.83.78-1.88,1.78l-.35,7.07,6.6-3.12c.94-.44,1.34-1.56.89-2.5-.16-.33-.41-.61-.72-.8l-3.57-2.16c-.29-.18-.63-.27-.97-.27h0Z"/>
        </g>
        <g>
          <path class="cls-28" d="M271.34,171.55l-1.12-.25-.53-.75-1.08-.22-.57-.78-1.16-.27-.49-.73-1.16-.32,15.28-22.06c.18-.23.47-.36.76-.35.27,0,.54.08.77.22l4.6,2.79c.3.17.52.45.61.78.05.19.01.4-.1.56l-15.28,22.06-.52-.69Z"/>
          <path class="cls-1" d="M281.26,145.93h0c.25,0,.5.08.72.21l4.6,2.79c.27.15.47.41.56.71.04.16,0,.34-.08.48l-15.2,21.94-.44-.57-.05-.06-.08-.02-.98-.19-.54-.73-.05-.07h-.08s-.94-.18-.94-.18l-.59-.76-.05-.06-.08-.02-1.01-.21-.51-.71-.04-.06-.07-.02-.95-.24,15.19-21.93c.16-.2.41-.32.67-.3M281.26,145.72c-.33-.02-.65.13-.85.39l-15.36,22.18,1.24.32.56.77,1.09.23.64.82,1.02.18.59.8,1.06.21.61.81,15.36-22.18c.27-.54.05-1.2-.49-1.47-.02,0-.03-.02-.05-.02l-4.6-2.79c-.25-.15-.53-.24-.83-.24h0Z"/>
        </g>
        <line class="cls-20" x1="265.76" y1="168.42" x2="281.35" y2="145.9"/>
        <line class="cls-20" x1="267.59" y1="168.96" x2="283.11" y2="146.53"/>
        <line class="cls-20" x1="269.24" y1="169.96" x2="284.76" y2="147.53"/>
        <line class="cls-20" x1="270.89" y1="170.96" x2="286.42" y2="148.53"/>
        <polygon class="cls-13" points="165.33 172.6 165.53 169.22 168.29 171.25 165.33 172.6"/>
        <polygon class="cls-13" points="188.31 173.12 188.51 169.75 191.26 171.78 188.31 173.12"/>
        <polygon class="cls-13" points="211.13 174.04 211.33 170.67 214.08 172.7 211.13 174.04"/>
        <polygon class="cls-13" points="236.26 174.12 236.46 170.75 239.22 172.78 236.26 174.12"/>
        <polygon class="cls-1" points="265.13 175.37 265.33 171.99 268.08 174.02 265.13 175.37"/>
      </g>
    </g>
  </g>
</svg>