<svg xmlns="http://www.w3.org/2000/svg" viewBox="0 0 600 203">
  <defs>
    <style>
      .cls-1 {
        fill: #020202;
      }

      .cls-2 {
        fill: #afbcbb;
      }

      .cls-3 {
        fill: #ccc;
      }

      .cls-10, .cls-4 {
        font-size: 16.49823px;
      }

      .cls-10, .cls-4, .cls-9 {
        font-family: KozGoPr6N-Regular-83pv-RKSJ-H, Kozuka Gothic Pr6N;
      }

      .cls-5 {
        letter-spacing: 0.24999em;
      }

      .cls-6 {
        fill: #603813;
      }

      .cls-7 {
        font-size: 43.42299px;
        fill: #f7931e;
        font-family: DNPShueiNShogoMinStd-Hv-83pv-RKSJ-H, DNPShueiNShogoMinStd;
      }

      .cls-8 {
        font-size: 31.96358px;
        font-family: KozGoPr6N-Bold-83pv-RKSJ-H, Kozuka Gothic Pr6N;
      }

      .cls-9 {
        font-size: 18.65018px;
      }

      .cls-10 {
        letter-spacing: 0.23901em;
      }

      .cls-11 {
        letter-spacing: 0.489em;
      }

      .cls-12, .cls-16, .cls-20 {
        fill: none;
      }

      .cls-12 {
        stroke: #eeeeef;
        stroke-width: 0.7258px;
      }

      .cls-12, .cls-15, .cls-16, .cls-19, .cls-20 {
        stroke-miterlimit: 10;
      }

      .cls-13 {
        fill: #efe8cb;
      }

      .cls-14 {
        fill: #7acecc;
      }

      .cls-15, .cls-19 {
        fill: #fff;
      }

      .cls-15, .cls-16 {
        stroke: #000;
      }

      .cls-15, .cls-16, .cls-19, .cls-20 {
        stroke-width: 0.23904px;
      }

      .cls-17 {
        fill: #eae6d8;
      }

      .cls-18 {
        fill: #e1efee;
      }

      .cls-19, .cls-20 {
        stroke: #afbcbb;
      }
    </style>
  </defs>
  <g id="レイヤー_2" data-name="レイヤー 2">
    <g id="レイヤー_1-2" data-name="レイヤー 1">
      <g>
        <polygon class="cls-1" points="165.338 168.499 169.014 170.728 165.093 172.619 165.338 168.499"/>
        <polygon class="cls-1" points="188.385 169.301 192.06 171.529 188.14 173.421 188.385 169.301"/>
        <polygon class="cls-1" points="211.393 170.101 215.068 172.329 211.147 174.221 211.393 170.101"/>
        <polygon class="cls-1" points="236.421 170.17 240.096 172.399 236.176 174.29 236.421 170.17"/>
        <polygon class="cls-2" points="265.111 171.385 268.786 173.613 264.866 175.505 265.111 171.385"/>
        <path class="cls-3" d="M571.03192.68446a28.31568,28.31568,0,0,1,28.28363,28.28362V174.03192a28.31568,28.31568,0,0,1-28.28363,28.28362H28.96808A28.31569,28.31569,0,0,1,.68446,174.03192V28.96808A28.31568,28.31568,0,0,1,28.96808.68446H571.03192m0-.68446H28.96808A28.96809,28.96809,0,0,0,0,28.96808V174.03192A28.9681,28.9681,0,0,0,28.96808,203H571.03192A28.968,28.968,0,0,0,600,174.03192V28.96808A28.968,28.968,0,0,0,571.03192,0Z"/>
        <text class="cls-4" transform="translate(38.45361 164.93724) scale(1.02381 1)">習得レベ<tspan class="cls-5" x="65.99315" y="0">ル</tspan><tspan x="86.6159" y="0">:　</tspan></text>
        <path class="cls-6" d="M95.75154,25.56095h-34.984A20.65444,20.65444,0,0,0,39.87445,45.96814V80.13878A20.65445,20.65445,0,0,0,60.76754,100.546h34.984A20.65451,20.65451,0,0,0,116.6449,80.13878V45.96814A20.65451,20.65451,0,0,0,95.75154,25.56095Z"/>
        <text class="cls-7" transform="translate(54.42139 80.08763) scale(1.10286 1)">Ai</text>
        <text class="cls-8" transform="translate(135.86328 61.33665) scale(1.02381 1)">Illustrator ver. CC2022</text>
        <text/>        <text class="cls-9" transform="translate(138.58203 92.56419) scale(1.02381 1)">基本的なアイコン作成やバナー作成は出来ます</text>
        <text class="cls-10" transform="translate(39.67334 129.30052) scale(1.02381 1)">授業時<tspan class="cls-11" x="61.32405" y="0">間</tspan><tspan x="85.89001" y="0">:</tspan></text>
        <text class="cls-9" transform="translate(142.58154 131.36205) scale(1.02381 1)">　50 hrs</text>
        <text/>        <text/>        <text/>        <line class="cls-12" x1="175.38599" y1="162.53918" x2="175.1296" y2="158.81471"/>
        <g>
          <path class="cls-13" d="M165.545,165.688a1.71632,1.71632,0,0,1,2.60889-1.38525l3.56934,2.16309a1.71985,1.71985,0,0,1-.15674,3.02587l-6.36084,3.00586Z"/>
          <path d="M167.26656,164.20647a1.53836,1.53836,0,0,1,.80726.229l3.56908,2.16284a1.5648,1.5648,0,0,1-.14241,2.753l-6.12694,2.89545.3264-6.55094a1.5684,1.5684,0,0,1,1.56661-1.48942m0-.31023a1.87687,1.87687,0,0,0-1.87644,1.78421l-.35217,7.06809,6.59509-3.11667a1.875,1.875,0,0,0,.17063-3.29883l-3.56908-2.16284a1.85817,1.85817,0,0,0-.968-.274Z"/>
        </g>
        <g>
          <path class="cls-14" d="M171.56458,168.66606l-1.12208-.2456-.5288-.75489-1.08252-.22119-.56983-.78076-1.15674-.2666-.49316-.73145-1.1582-.31933,15.27636-22.06153a.89815.89815,0,0,1,.76172-.34521,1.51575,1.51575,0,0,1,.772.22363l4.59912,2.7876a1.25809,1.25809,0,0,1,.606.78174.70014.70014,0,0,1-.10058.55908l-15.27832,22.06494Z"/>
          <path d="M181.49136,143.04567h0a1.40771,1.40771,0,0,1,.71672.2081l4.5998,2.78746a1.17121,1.17121,0,0,1,.557.71345.60324.60324,0,0,1-.08426.477l-15.195,21.94461-.43659-.57451-.049-.06442-.07942-.01543-.97731-.18989-.54474-.72965-.05023-.06726-.08264-.01465-.93538-.16589-.58553-.756-.04788-.06183-.07657-.01593-1.01326-.21066-.50946-.70656-.04493-.06232-.07444-.01906-.94944-.24318,15.18792-21.93437a.79511.79511,0,0,1,.67459-.299m-.00006-.212a1.0048,1.0048,0,0,0-.84884.39034L165.2811,165.40884l1.2446.31876.55761.77338,1.09391.22743.6356.82065,1.0159.18016.59375.79529,1.05775.20552.61336.80716,15.36136-22.18485a1.09347,1.09347,0,0,0-.53718-1.49243l-4.5998-2.78746a1.61117,1.61117,0,0,0-.82666-.23879Z"/>
        </g>
        <line class="cls-15" x1="165.98904" y1="165.53197" x2="181.58205" y2="143.01257"/>
        <line class="cls-16" x1="167.81498" y1="166.06925" x2="183.34049" y2="143.64733"/>
        <line class="cls-16" x1="169.46649" y1="167.07006" x2="184.992" y2="144.64814"/>
        <line class="cls-16" x1="171.118" y1="168.07087" x2="186.64351" y2="145.64895"/>
        <line class="cls-12" x1="198.43284" y1="163.34114" x2="198.17645" y2="159.61667"/>
        <g>
          <path class="cls-13" d="M188.59192,166.49028a1.71631,1.71631,0,0,1,2.60889-1.38525l3.56933,2.16259a1.71981,1.71981,0,0,1-.15674,3.02588l-6.36084,3.00586Z"/>
          <path d="M190.31339,165.00842a1.53842,1.53842,0,0,1,.80728.229l3.56906,2.16284a1.5648,1.5648,0,0,1-.1424,2.753l-6.12692,2.89544.32639-6.55093a1.56839,1.56839,0,0,1,1.56659-1.48943m0-.31022a1.87685,1.87685,0,0,0-1.87642,1.78421l-.35216,7.06808,6.59508-3.11667a1.875,1.875,0,0,0,.17062-3.29883l-3.56908-2.16284a1.85823,1.85823,0,0,0-.968-.27395Z"/>
        </g>
        <g>
          <path class="cls-14" d="M194.61145,169.46782l-1.12207-.24561-.52881-.75439-1.08252-.22119-.56982-.78125-1.15674-.2666-.49316-.73145-1.15821-.31885,15.27588-22.062a.89877.89877,0,0,1,.76221-.34473,1.50928,1.50928,0,0,1,.77148.22364l4.59961,2.78711a1.25934,1.25934,0,0,1,.606.78174.7013.7013,0,0,1-.10059.55957l-15.27832,22.06445Z"/>
          <path d="M204.53821,143.84764h0a1.40762,1.40762,0,0,1,.71674.20809l4.59981,2.78746a1.17131,1.17131,0,0,1,.557.71347.6031.6031,0,0,1-.08429.47694l-15.195,21.94463-.43656-.57451-.04895-.06443-.07942-.01542-.97733-.1899-.54473-.72963-.05022-.06726-.08266-.01466-.93538-.16588-.58552-.756-.04788-.06183-.07657-.01591-1.01328-.21066-.50943-.70658-.04494-.06233-.07443-.01906-.94945-.24316,15.18792-21.93436a.79508.79508,0,0,1,.67459-.299m-.00006-.212a1.00483,1.00483,0,0,0-.84885.39032L188.328,166.2108l1.2446.31876.5576.77337,1.0939.22743.6356.82065,1.0159.18016.59375.79529,1.05777.20552.61335.80716,15.36134-22.18484a1.09344,1.09344,0,0,0-.53717-1.49243l-4.59979-2.78747a1.61113,1.61113,0,0,0-.82666-.23876Z"/>
        </g>
        <line class="cls-15" x1="189.03589" y1="166.33393" x2="204.6289" y2="143.81453"/>
        <line class="cls-16" x1="190.86183" y1="166.87121" x2="206.38734" y2="144.44929"/>
        <line class="cls-16" x1="192.51334" y1="167.87202" x2="208.03885" y2="145.4501"/>
        <line class="cls-16" x1="194.16485" y1="168.87283" x2="209.69036" y2="146.45091"/>
        <line class="cls-12" x1="221.44029" y1="164.14107" x2="221.1839" y2="160.4166"/>
        <g>
          <path class="cls-13" d="M211.59924,167.29008a1.71632,1.71632,0,0,1,2.60889-1.38525l3.56934,2.16309a1.71944,1.71944,0,0,1-.15674,3.02588l-6.36035,3.00586Z"/>
          <path d="M213.32086,165.80835a1.53845,1.53845,0,0,1,.80725.229l3.56909,2.16286a1.56481,1.56481,0,0,1-.14239,2.753l-6.12695,2.89544.32641-6.55094a1.56839,1.56839,0,0,1,1.56659-1.48943m0-.31021a1.87687,1.87687,0,0,0-1.87643,1.78419l-.35218,7.0681,6.5951-3.11667a1.875,1.875,0,0,0,.17062-3.29882l-3.56909-2.16286a1.8581,1.8581,0,0,0-.968-.27394Z"/>
        </g>
        <g>
          <path class="cls-14" d="M217.61877,170.26811l-1.12207-.2456-.5288-.75489-1.082-.22119-.57031-.78125-1.15625-.26611-.49316-.73145-1.15821-.31933,15.27588-22.062a.89782.89782,0,0,1,.76172-.34473,1.517,1.517,0,0,1,.772.22363l4.59961,2.7876a1.25808,1.25808,0,0,1,.60547.78125.70089.70089,0,0,1-.10058.56006L218.14417,170.959Z"/>
          <path d="M227.54572,144.64757h0a1.40771,1.40771,0,0,1,.71667.20808l4.59979,2.78748a1.17129,1.17129,0,0,1,.557.71347.6032.6032,0,0,1-.08426.47693l-15.195,21.94464-.43661-.57453-.04892-.0644-.07944-.01543-.97729-.18991-.54474-.72963-.05023-.06726-.08265-.01467-.93536-.16587-.58554-.756-.04791-.06184-.07657-.0159-1.01325-.21067-.50946-.70657-.04492-.06233-.07443-.01906-.94946-.24315L226.871,144.94658a.79531.79531,0,0,1,.67469-.299m-.0001-.212a1.0049,1.0049,0,0,0-.84887.39032l-15.36136,22.18486,1.2446.31874.55761.77339,1.09391.22742.63562.82067,1.0159.18014.59375.79529,1.05774.20553.61337.80716,15.36136-22.18486a1.09346,1.09346,0,0,0-.5372-1.49241l-4.5998-2.78748a1.61121,1.61121,0,0,0-.82663-.23877Z"/>
        </g>
        <line class="cls-15" x1="212.04334" y1="167.13387" x2="227.63635" y2="144.61446"/>
        <line class="cls-16" x1="213.86928" y1="167.67114" x2="229.39479" y2="145.24922"/>
        <line class="cls-16" x1="215.52079" y1="168.67195" x2="231.0463" y2="146.25003"/>
        <line class="cls-16" x1="217.1723" y1="169.67276" x2="232.69781" y2="147.25084"/>
        <line class="cls-12" x1="246.46832" y1="164.21028" x2="246.21193" y2="160.48581"/>
        <g>
          <path class="cls-13" d="M236.62708,167.35942a1.7167,1.7167,0,0,1,2.60937-1.38525l3.56885,2.16259a1.7196,1.7196,0,0,1-.15625,3.02588l-6.36084,3.00586Z"/>
          <path d="M238.34891,165.87756a1.53839,1.53839,0,0,1,.80725.229l3.569,2.16285a1.5648,1.5648,0,0,1-.14233,2.753l-6.127,2.89545.32639-6.55095a1.56841,1.56841,0,0,1,1.56662-1.48943m0-.31021a1.87688,1.87688,0,0,0-1.87647,1.7842l-.35214,7.0681,6.59509-3.11667a1.875,1.875,0,0,0,.1706-3.29884l-3.56906-2.16285a1.85812,1.85812,0,0,0-.968-.27394Z"/>
        </g>
        <g>
          <path class="cls-14" d="M242.64709,170.337l-1.12207-.24512-.5288-.75488-1.08252-.22119-.57032-.78125-1.15625-.2666-.49316-.73145-1.1582-.31885,15.27588-22.062a.89841.89841,0,0,1,.76171-.34472,1.511,1.511,0,0,1,.772.22363l4.59961,2.78711a1.26019,1.26019,0,0,1,.606.78222.70209.70209,0,0,1-.10058.55909L243.172,171.02739Z"/>
          <path d="M252.57376,144.71678h0a1.40807,1.40807,0,0,1,.71671.20809l4.59979,2.78746a1.17126,1.17126,0,0,1,.557.71348.60314.60314,0,0,1-.08429.47693l-15.195,21.94464-.43656-.57452-.04895-.06442-.07943-.01543-.97733-.1899-.54474-.72963-.05023-.06726-.08264-.01466-.93536-.16588-.58551-.756-.04792-.06182-.07657-.01592-1.01324-.21066-.50946-.70658-.04492-.06233-.07444-.01906-.94946-.24315,15.18793-21.93437a.79511.79511,0,0,1,.67465-.299m-.00012-.212a1.00482,1.00482,0,0,0-.84885.39032L236.36343,167.08l1.2446.31874.55762.77337,1.0939.22744.63559.82066,1.0159.18014.59375.79529,1.05777.20552.61334.80718,15.36136-22.18486a1.09344,1.09344,0,0,0-.53717-1.49243l-4.59979-2.78746a1.61107,1.61107,0,0,0-.82666-.23877Z"/>
        </g>
        <line class="cls-15" x1="237.07138" y1="167.20308" x2="252.66439" y2="144.68367"/>
        <line class="cls-16" x1="238.89732" y1="167.74035" x2="254.42283" y2="145.31843"/>
        <line class="cls-16" x1="240.54883" y1="168.74116" x2="256.07433" y2="146.31924"/>
        <line class="cls-16" x1="242.20034" y1="169.74197" x2="257.72584" y2="147.32005"/>
        <line class="cls-12" x1="275.1584" y1="165.42502" x2="274.90201" y2="161.70055"/>
        <g>
          <path class="cls-17" d="M265.3175,168.57426a1.71632,1.71632,0,0,1,2.60889-1.38525l3.56934,2.1626a1.71984,1.71984,0,0,1-.15674,3.02588l-6.36084,3.00586Z"/>
          <path class="cls-2" d="M267.039,167.0923a1.53845,1.53845,0,0,1,.80725.229l3.56909,2.16288a1.5648,1.5648,0,0,1-.14239,2.753l-6.127,2.89542.32641-6.55093a1.56839,1.56839,0,0,1,1.56659-1.48943m0-.31023a1.87686,1.87686,0,0,0-1.87643,1.78421l-.35218,7.0681,6.5951-3.11666a1.875,1.875,0,0,0,.17062-3.29883L268.007,167.056a1.8582,1.8582,0,0,0-.968-.274Z"/>
        </g>
        <g>
          <path class="cls-18" d="M271.337,171.5518l-1.12207-.2456-.52881-.7544-1.08252-.22119-.56983-.78125-1.15673-.2666-.49317-.73144-1.1582-.31934,15.27588-22.06152a.899.899,0,0,1,.7622-.34522,1.51844,1.51844,0,0,1,.772.22363l4.59912,2.7876a1.25937,1.25937,0,0,1,.606.78174.70129.70129,0,0,1-.10058.55957l-15.27832,22.06445Z"/>
          <path class="cls-2" d="M281.26385,145.93152h0a1.40793,1.40793,0,0,1,.71671.20808l4.59976,2.78746a1.17141,1.17141,0,0,1,.557.71349.6032.6032,0,0,1-.08426.47693l-15.195,21.94464-.43655-.57453-.04895-.06442-.07944-.01542-.97732-.1899-.54474-.72963-.05024-.06726-.08264-.01466-.93536-.16588-.58554-.756-.04791-.06184-.07657-.0159-1.01325-.21065-.50943-.70659-.04492-.06233-.07443-.01906-.94946-.24315,15.18792-21.93437a.79511.79511,0,0,1,.67465-.299m-.00012-.212a1.00483,1.00483,0,0,0-.84884.39032l-15.36136,22.18486,1.2446.31874.55758.7734,1.09391.22741.63562.82067,1.0159.18014.59375.79529,1.05777.20552.61334.80717,15.36136-22.18486a1.09349,1.09349,0,0,0-.5372-1.49243l-4.59977-2.78746a1.61124,1.61124,0,0,0-.82666-.23877Z"/>
        </g>
        <line class="cls-19" x1="265.76146" y1="168.41782" x2="281.35447" y2="145.89841"/>
        <line class="cls-20" x1="267.5874" y1="168.95509" x2="283.11291" y2="146.53317"/>
        <line class="cls-20" x1="269.23891" y1="169.9559" x2="284.76441" y2="147.53398"/>
        <line class="cls-20" x1="270.89042" y1="170.95671" x2="286.41592" y2="148.53479"/>
        <polygon class="cls-1" points="165.331 172.596 165.532 169.224 168.285 171.254 165.331 172.596"/>
        <polygon class="cls-1" points="188.308 173.12 188.509 169.748 191.262 171.779 188.308 173.12"/>
        <polygon class="cls-1" points="211.129 174.04 211.329 170.668 214.083 172.698 211.129 174.04"/>
        <polygon class="cls-1" points="236.262 174.122 236.463 170.75 239.216 172.781 236.262 174.122"/>
        <polygon class="cls-2" points="265.129 175.367 265.329 171.995 268.082 174.025 265.129 175.367"/>
      </g>
    </g>
  </g>
</svg>
