<svg xmlns="http://www.w3.org/2000/svg" viewBox="0 0 600 203">
  <defs>
    <style>
      .cls-1 {
        fill: #666;
      }

      .cls-1, .cls-2 {
        stroke: #eeeeef;
        stroke-width: 0.7258px;
      }

      .cls-1, .cls-2, .cls-20, .cls-21, .cls-24, .cls-25 {
        stroke-miterlimit: 10;
      }

      .cls-2, .cls-21, .cls-25 {
        fill: none;
      }

      .cls-3 {
        fill: #ccc;
      }

      .cls-4, .cls-9 {
        font-size: 16.49823px;
      }

      .cls-11, .cls-4, .cls-8, .cls-9 {
        font-family: KozGoPr6N-Regular-83pv-RKSJ-H, Kozuka Gothic Pr6N;
      }

      .cls-5 {
        letter-spacing: 0.24999em;
      }

      .cls-6 {
        font-size: 43.42299px;
        fill: #f7931e;
        font-family: UDDigiKyokashoNK-B, UDDigiKyokashoNK B;
      }

      .cls-7 {
        font-size: 31.96358px;
        font-family: KozGoPr6N-Bold-83pv-RKSJ-H, Kozuka Gothic Pr6N;
      }

      .cls-8 {
        font-size: 17px;
      }

      .cls-9 {
        letter-spacing: 0.23901em;
      }

      .cls-10 {
        letter-spacing: 0.489em;
      }

      .cls-11 {
        font-size: 18.65018px;
      }

      .cls-12 {
        fill: #1d66b0;
      }

      .cls-13 {
        fill: #3aa4dd;
      }

      .cls-14, .cls-20, .cls-24 {
        fill: #fff;
      }

      .cls-15 {
        fill: #eeeeef;
      }

      .cls-16 {
        fill: #020202;
      }

      .cls-17 {
        fill: #afbcbb;
      }

      .cls-18 {
        fill: #efe8cb;
      }

      .cls-19 {
        fill: #7acecc;
      }

      .cls-20, .cls-21 {
        stroke: #000;
      }

      .cls-20, .cls-21, .cls-24, .cls-25 {
        stroke-width: 0.23904px;
      }

      .cls-22 {
        fill: #eae6d8;
      }

      .cls-23 {
        fill: #e1efee;
      }

      .cls-24, .cls-25 {
        stroke: #afbcbb;
      }
    </style>
  </defs>
  <g id="レイヤー_2" data-name="レイヤー 2">
    <g id="レイヤー_1-2" data-name="レイヤー 1">
      <g>
        <line class="cls-1" x1="228.23393" y1="80.32535" x2="228.23393" y2="84.05864"/>
        <line class="cls-1" x1="265.68803" y1="80.32535" x2="265.68803" y2="84.05864"/>
        <line class="cls-1" x1="303.14213" y1="80.32535" x2="303.14213" y2="84.05864"/>
        <line class="cls-2" x1="378.05033" y1="80.32535" x2="378.05033" y2="84.05864"/>
        <path class="cls-3" d="M571.03186.68445a28.31568,28.31568,0,0,1,28.28369,28.28363V174.03192a28.31568,28.31568,0,0,1-28.28369,28.28363H28.96808A28.31568,28.31568,0,0,1,.68446,174.03192V28.96808A28.31568,28.31568,0,0,1,28.96808.68445H571.03186m0-.68445H28.96808A28.968,28.968,0,0,0,0,28.96808V174.03192A28.9681,28.9681,0,0,0,28.96808,203H571.03186A28.96813,28.96813,0,0,0,600,174.03192V28.96808A28.96805,28.96805,0,0,0,571.03186,0Z"/>
        <text class="cls-4" transform="translate(38.45358 160.93723) scale(1.02381 1)">習得レベ<tspan class="cls-5" x="65.99315" y="0">ル</tspan><tspan x="86.6159" y="0">:　</tspan></text>
        <text class="cls-6" transform="translate(55.42136 74.08762) scale(1.10286 1)">Ai</text>
        <text class="cls-7" transform="translate(135.86325 57.33665) scale(1.02381 1)">CSS3 </text>
        <text/>        <text class="cls-8" transform="translate(138.582 88.56419) scale(1.02381 1)">装飾だけだはなく簡単な動きなどもつける事が出来ます</text>
        <text class="cls-9" transform="translate(39.67331 125.30051) scale(1.02381 1)">授業時<tspan class="cls-10" x="61.32405" y="0">間</tspan><tspan x="85.89001" y="0">:</tspan></text>
        <text class="cls-11" transform="translate(142.58151 127.36204) scale(1.02381 1)">　50 hrs</text>
        <text/>        <text/>        <text/>        <g>
          <polygon class="cls-12" points="39.274 21.48 116.983 21.48 110.341 93.121 78.129 101.48 46.248 93.718 39.274 21.48"/>
          <polygon class="cls-13" points="78.129 27.583 109.999 27.583 103.91 88.777 78.129 95.345 78.129 27.583"/>
          <polygon class="cls-14" points="56.975 67.484 67.159 67.484 67.159 74.051 78.129 77.036 88.634 74.25 89.741 62.907 55.868 62.907 54.761 53.752 78.129 44.996 54.761 44.996 53.433 35.842 102.361 35.842 101.475 45.394 78.129 53.951 100.59 53.951 98.597 81.414 78.129 86.588 57.639 81.414 56.975 67.484"/>
          <polygon class="cls-15" points="78.129 44.996 54.761 44.996 53.433 35.842 77.897 35.842 77.897 62.907 55.868 62.907 54.761 53.752 78.129 44.996"/>
          <polygon class="cls-15" points="78.129 77.036 67.159 74.051 67.159 67.484 56.975 67.484 57.639 81.414 78.129 86.588 78.129 77.036"/>
        </g>
        <polygon class="cls-16" points="157.142 163.94 160.817 166.168 156.897 168.06 157.142 163.94"/>
        <polygon class="cls-16" points="180.189 164.742 183.864 166.97 179.943 168.862 180.189 164.742"/>
        <polygon class="cls-16" points="203.196 165.542 206.871 167.77 202.951 169.662 203.196 165.542"/>
        <polygon class="cls-16" points="228.224 165.611 231.899 167.839 227.979 169.731 228.224 165.611"/>
        <polygon class="cls-17" points="256.914 166.826 260.589 169.054 256.669 170.946 256.914 166.826"/>
        <line class="cls-2" x1="167.18942" y1="157.98005" x2="166.93303" y2="154.25558"/>
        <g>
          <path class="cls-18" d="M157.34833,161.12891a1.71566,1.71566,0,0,1,2.60888-1.38477l3.56934,2.16211a1.71911,1.71911,0,0,1-.15625,3.02539l-6.36084,3.00684Z"/>
          <path d="M159.07,159.64734a1.53853,1.53853,0,0,1,.80728.22906l3.56908,2.16285a1.56482,1.56482,0,0,1-.14238,2.75305l-6.127,2.89538.3264-6.5509a1.56842,1.56842,0,0,1,1.56659-1.48944m0-.31018a1.8768,1.8768,0,0,0-1.87642,1.78418l-.35216,7.06805,6.5951-3.11664a1.875,1.875,0,0,0,.17061-3.29882l-3.56908-2.16285a1.858,1.858,0,0,0-.96805-.27392Z"/>
        </g>
        <g>
          <path class="cls-19" d="M163.36835,164.10645l-1.12256-.24512-.52881-.75488-1.082-.22071-.57031-.78125-1.15625-.2666-.49317-.73144-1.1582-.31934,15.27588-22.06152a.89716.89716,0,0,1,.76172-.34473,1.50792,1.50792,0,0,1,.77148.22363l4.60059,2.78711a1.25941,1.25941,0,0,1,.60547.78125.70363.70363,0,0,1-.10059.55957l-15.27832,22.06543Z"/>
          <path d="M173.29477,138.48657h0a1.40736,1.40736,0,0,1,.71675.20807l4.59978,2.78748a1.17115,1.17115,0,0,1,.557.71344.60334.60334,0,0,1-.08426.477l-15.195,21.94464-.43657-.57459-.049-.06439-.07942-.01544-.97733-.18988-.54474-.72962-.05021-.06726-.08266-.01465-.93538-.16589-.58553-.756-.04789-.06183-.07657-.01593-1.01326-.21063-.50942-.70655-.04493-.06237-.07445-.01905-.94943-.24316,15.18791-21.93439a.79492.79492,0,0,1,.67456-.29895m-.00006-.212a1.00466,1.00466,0,0,0-.84882.39032l-15.36136,22.18487,1.2446.31873.5576.77337,1.09391.22742.6356.82068,1.0159.18017.59375.79529,1.05777.20551.61334.80719,15.36136-22.18488a1.09346,1.09346,0,0,0-.53718-1.49243l-4.59978-2.78747a1.61165,1.61165,0,0,0-.82669-.23877Z"/>
        </g>
        <line class="cls-20" x1="157.79247" y1="160.97285" x2="173.38548" y2="138.45344"/>
        <line class="cls-21" x1="159.61841" y1="161.51012" x2="175.14392" y2="139.0882"/>
        <line class="cls-21" x1="161.26992" y1="162.51093" x2="176.79543" y2="140.08901"/>
        <line class="cls-21" x1="162.92143" y1="163.51174" x2="178.44694" y2="141.08982"/>
        <line class="cls-2" x1="190.23626" y1="158.78201" x2="189.97987" y2="155.05754"/>
        <g>
          <path class="cls-18" d="M180.3952,161.93066a1.71567,1.71567,0,0,1,2.60889-1.38476l3.56934,2.16308a1.719,1.719,0,0,1-.15674,3.0254l-6.36035,3.00585Z"/>
          <path d="M182.11685,160.44928a1.53843,1.53843,0,0,1,.80725.22906l3.56906,2.16285a1.56482,1.56482,0,0,1-.14239,2.75305l-6.12694,2.89545.3264-6.551a1.56842,1.56842,0,0,1,1.56662-1.48944m0-.31018a1.87688,1.87688,0,0,0-1.87645,1.78418l-.35217,7.06811,6.59508-3.1167a1.875,1.875,0,0,0,.17062-3.29882l-3.56906-2.16285a1.85805,1.85805,0,0,0-.968-.27392Z"/>
        </g>
        <g>
          <path class="cls-19" d="M186.41522,164.9082l-1.12256-.24511-.52881-.75489-1.082-.2207-.57031-.78027-1.15625-.26661-.49316-.73144-1.15821-.32031,15.27588-22.06153a.89909.89909,0,0,1,.76172-.34472,1.51364,1.51364,0,0,1,.772.22363l4.6001,2.78711a1.25943,1.25943,0,0,1,.60547.78223.70051.70051,0,0,1-.10059.55859l-15.27832,22.06543Z"/>
          <path d="M196.34161,139.28851h0a1.40764,1.40764,0,0,1,.71677.20813l4.59979,2.78742a1.17124,1.17124,0,0,1,.557.71344.60349.60349,0,0,1-.08429.477l-15.195,21.94464-.43655-.57459-.04895-.06439-.07944-.01544-.97732-.18988-.54474-.72962-.05023-.06726-.08265-.01464-.93538-.1659-.58554-.756-.04788-.06183-.07657-.01593-1.01324-.21063-.50943-.7066-.04494-.06238-.07445-.01905-.94943-.24316L195.667,139.58752a.795.795,0,0,1,.67459-.299m-.00006-.212a1.00475,1.00475,0,0,0-.84881.39026l-15.36136,22.18487,1.2446.31873.5576.77344,1.0939.22741.63562.82062,1.01589.18018.59375.79528,1.05777.20551.61334.80719,15.36136-22.18488a1.09347,1.09347,0,0,0-.53717-1.49243l-4.5998-2.78741a1.61048,1.61048,0,0,0-.82669-.23877Z"/>
        </g>
        <line class="cls-20" x1="180.83932" y1="161.77481" x2="196.43233" y2="139.2554"/>
        <line class="cls-21" x1="182.66526" y1="162.31208" x2="198.19077" y2="139.89016"/>
        <line class="cls-21" x1="184.31677" y1="163.31289" x2="199.84228" y2="140.89097"/>
        <line class="cls-21" x1="185.96828" y1="164.3137" x2="201.49378" y2="141.89178"/>
        <line class="cls-2" x1="213.24371" y1="159.58195" x2="212.98732" y2="155.85747"/>
        <g>
          <path class="cls-18" d="M203.40253,162.73145a1.71736,1.71736,0,0,1,2.60937-1.38575l3.56885,2.16309a1.7192,1.7192,0,0,1-.15625,3.02539L203.06366,169.54Z"/>
          <path d="M205.1243,161.24921a1.53839,1.53839,0,0,1,.80725.22906l3.56906,2.16284a1.56484,1.56484,0,0,1-.14236,2.75306l-6.127,2.89544.32642-6.551a1.56837,1.56837,0,0,1,1.56659-1.48944m0-.31018a1.87687,1.87687,0,0,0-1.87644,1.78418l-.35217,7.06811,6.59509-3.1167a1.875,1.875,0,0,0,.1706-3.29883l-3.56906-2.16284a1.85791,1.85791,0,0,0-.968-.27392Z"/>
        </g>
        <g>
          <path class="cls-19" d="M209.42255,165.708,208.3,165.46289l-.52881-.75391-1.082-.22168-.57031-.78027-1.15625-.2666-.49317-.73145-1.1582-.32031,15.27588-22.06152a.89908.89908,0,0,1,.76172-.34473,1.51367,1.51367,0,0,1,.772.22363l4.6001,2.78711a1.2645,1.2645,0,0,1,.60546.78223.70359.70359,0,0,1-.10058.55957l-15.27832,22.06445Z"/>
          <path d="M219.34915,140.08844h0a1.40736,1.40736,0,0,1,.71671.20813l4.59979,2.78741a1.17112,1.17112,0,0,1,.557.71351.60315.60315,0,0,1-.08429.47692l-15.195,21.94465-.43656-.57459-.04895-.06439-.07943-.01544-.97733-.18988-.54471-.72962-.0502-.06726-.08267-.01465-.93539-.16589-.58554-.756-.04789-.06183-.07657-.01593-1.01324-.21063-.50946-.70661-.04492-.06231-.07443-.019-.94947-.24316,15.18793-21.93439a.79523.79523,0,0,1,.67465-.299m-.00012-.212a1.00472,1.00472,0,0,0-.84885.39032L203.13882,162.4516l1.2446.31879.55762.77337,1.0939.22742.63562.82062,1.0159.18017.59372.79529,1.05777.20551.61334.80719,15.36136-22.18488a1.09344,1.09344,0,0,0-.53717-1.49243l-4.59979-2.78742a1.6105,1.6105,0,0,0-.82666-.23877Z"/>
        </g>
        <line class="cls-20" x1="203.84677" y1="162.57474" x2="219.43978" y2="140.05533"/>
        <line class="cls-21" x1="205.67271" y1="163.11202" x2="221.19822" y2="140.69009"/>
        <line class="cls-21" x1="207.32422" y1="164.11283" x2="222.84973" y2="141.6909"/>
        <line class="cls-21" x1="208.97573" y1="165.11364" x2="224.50124" y2="142.69172"/>
        <line class="cls-2" x1="238.27175" y1="159.65116" x2="238.01536" y2="155.92668"/>
        <g>
          <path class="cls-18" d="M228.43085,162.7998a1.71566,1.71566,0,0,1,2.60888-1.38476l3.56934,2.16308a1.71945,1.71945,0,0,1-.15674,3.0254l-6.36084,3.00586Z"/>
          <path d="M230.15234,161.31842a1.5384,1.5384,0,0,1,.80725.22907l3.56907,2.16284a1.56481,1.56481,0,0,1-.1424,2.75305l-6.12695,2.89545.32641-6.551a1.56842,1.56842,0,0,1,1.56662-1.48944m0-.31018a1.87686,1.87686,0,0,0-1.87643,1.78418l-.35217,7.06811,6.59509-3.11669a1.875,1.875,0,0,0,.17062-3.29883l-3.56906-2.16284a1.85808,1.85808,0,0,0-.96805-.27393Z"/>
        </g>
        <g>
          <path class="cls-19" d="M234.45038,165.77734l-1.12207-.24511-.52881-.75489-1.08252-.2207-.56982-.78027-1.15674-.2666-.49317-.73145-1.1582-.32031,15.27588-22.06153a.89908.89908,0,0,1,.76172-.34472,1.51538,1.51538,0,0,1,.77246.22363l4.59912,2.78711a1.25778,1.25778,0,0,1,.606.78223.69867.69867,0,0,1-.10059.55859l-15.27832,22.06543Z"/>
          <path d="M244.3772,140.15765h0a1.40739,1.40739,0,0,1,.7167.20813l4.59976,2.78742a1.171,1.171,0,0,1,.557.7135.60319.60319,0,0,1-.08426.47693l-15.195,21.94464-.43655-.57459-.04895-.06439-.07944-.01544-.97732-.18988-.54474-.72961-.05023-.06727-.08264-.01464-.93537-.1659-.58551-.756-.04791-.06183-.07657-.01593-1.01324-.21063-.50946-.7066-.04493-.06232-.07443-.019-.94946-.24317,15.18793-21.93438a.79521.79521,0,0,1,.67465-.299m-.00012-.212a1.00472,1.00472,0,0,0-.84885.39032l-15.36136,22.18481,1.2446.31879.55762.77338,1.0939.22741.63559.82062,1.0159.18018.59375.79528,1.05777.20551.61334.80719,15.36136-22.18488a1.09349,1.09349,0,0,0-.53717-1.49243l-4.59979-2.78741a1.61043,1.61043,0,0,0-.82666-.23877Z"/>
        </g>
        <line class="cls-20" x1="228.87481" y1="162.64395" x2="244.46781" y2="140.12454"/>
        <line class="cls-21" x1="230.70075" y1="163.18123" x2="246.22625" y2="140.75931"/>
        <line class="cls-21" x1="232.35226" y1="164.18204" x2="247.87776" y2="141.76012"/>
        <line class="cls-21" x1="234.00377" y1="165.18285" x2="249.52927" y2="142.76093"/>
        <line class="cls-2" x1="266.96183" y1="160.8659" x2="266.70544" y2="157.14142"/>
        <g>
          <path class="cls-22" d="M257.12079,164.01465a1.71567,1.71567,0,0,1,2.60889-1.38477L263.299,164.793a1.719,1.719,0,0,1-.15674,3.02539l-6.36035,3.00586Z"/>
          <path class="cls-17" d="M258.84241,162.53314a1.53842,1.53842,0,0,1,.80725.22907l3.56906,2.16284a1.56482,1.56482,0,0,1-.14237,2.75305l-6.12695,2.89545.32642-6.551a1.56841,1.56841,0,0,1,1.56659-1.48944m0-.31018a1.87687,1.87687,0,0,0-1.87644,1.78418l-.35217,7.06812,6.59509-3.1167a1.875,1.875,0,0,0,.17063-3.29883l-3.5691-2.16284a1.85786,1.85786,0,0,0-.968-.27393Z"/>
        </g>
        <g>
          <path class="cls-23" d="M263.14032,166.99219l-1.12207-.24512-.52881-.75488-1.082-.22071-.57031-.78125-1.15625-.26562-.49317-.73145-1.1582-.32031,15.27588-22.06152a.89876.89876,0,0,1,.76123-.34473,1.514,1.514,0,0,1,.77246.22363l4.6001,2.78711a1.25771,1.25771,0,0,1,.605.78125.69978.69978,0,0,1-.10059.55957l-15.27783,22.06543Z"/>
          <path class="cls-17" d="M273.06726,141.37238h0a1.40733,1.40733,0,0,1,.71668.20813l4.59979,2.78747a1.17105,1.17105,0,0,1,.557.71344.60327.60327,0,0,1-.08428.477l-15.195,21.94458-.43662-.57452-.04892-.0644-.0794-.01544-.97733-.18994-.54474-.72961-.05023-.06726-.08264-.01465-.93536-.16583-.58555-.75605-.04791-.06183-.07657-.01593-1.01324-.21063-.50946-.7066-.04492-.06232-.07444-.019-.94946-.24317,15.1879-21.93432a.79522.79522,0,0,1,.67468-.29907m-.00012-.212a1.00476,1.00476,0,0,0-.84885.39032l-15.36136,22.18481,1.2446.31879.55762.77338,1.0939.22741.63562.82068,1.0159.18012.59375.79529,1.05774.20556.61337.80713,15.36133-22.18481a1.09343,1.09343,0,0,0-.53717-1.49243l-4.59979-2.78748a1.6105,1.6105,0,0,0-.82666-.23877Z"/>
        </g>
        <line class="cls-24" x1="257.56489" y1="163.85869" x2="273.15789" y2="141.33928"/>
        <line class="cls-25" x1="259.39083" y1="164.39596" x2="274.91633" y2="141.97404"/>
        <line class="cls-25" x1="261.04234" y1="165.39677" x2="276.56784" y2="142.97485"/>
        <line class="cls-25" x1="262.69385" y1="166.39759" x2="278.21935" y2="143.97566"/>
        <polygon class="cls-16" points="157.134 168.036 157.335 164.665 160.088 166.695 157.134 168.036"/>
        <polygon class="cls-16" points="180.111 168.561 180.312 165.189 183.065 167.22 180.111 168.561"/>
        <polygon class="cls-16" points="202.932 169.48 203.133 166.108 205.886 168.139 202.932 169.48"/>
        <polygon class="cls-16" points="228.066 169.563 228.266 166.191 231.02 168.222 228.066 169.563"/>
        <polygon class="cls-17" points="256.932 170.807 257.133 167.436 259.886 169.466 256.932 170.807"/>
      </g>
    </g>
  </g>
</svg>
