<?xml version="1.0" encoding="UTF-8"?>
<svg id="_レイヤー_1" data-name="レイヤー 1" xmlns="http://www.w3.org/2000/svg" viewBox="0 0 600 203">
  <defs>
    <style>
      .cls-1 {
        fill: #e62e1b;
      }

      .cls-2 {
        letter-spacing: -.02em;
      }

      .cls-3 {
        letter-spacing: -.03em;
      }

      .cls-4 {
        fill: #eeeeef;
      }

      .cls-5 {
        letter-spacing: -.04em;
      }

      .cls-6 {
        letter-spacing: -.02em;
      }

      .cls-7 {
        letter-spacing: -.05em;
      }

      .cls-8 {
        letter-spacing: -.08em;
      }

      .cls-9 {
        letter-spacing: -.07em;
      }

      .cls-10 {
        letter-spacing: .25em;
      }

      .cls-10, .cls-11, .cls-12, .cls-13, .cls-14, .cls-15 {
        isolation: isolate;
      }

      .cls-10, .cls-11, .cls-14, .cls-15 {
        font-family: KozGoPr6N-Regular-90ms-RKSJ-H, 'Kozuka Gothic Pr6N';
      }

      .cls-10, .cls-14 {
        font-size: 16.5px;
      }

      .cls-16 {
        fill: #020202;
      }

      .cls-17 {
        fill: #fff;
      }

      .cls-18 {
        letter-spacing: 0em;
      }

      .cls-19 {
        letter-spacing: -.04em;
      }

      .cls-20 {
        fill: #eb6b49;
      }

      .cls-11 {
        font-size: 20.19px;
      }

      .cls-12 {
        fill: #f7931e;
        font-family: ArialMT, Arial;
        font-size: 43.42px;
      }

      .cls-21 {
        letter-spacing: 0em;
      }

      .cls-22 {
        letter-spacing: -.08em;
      }

      .cls-23 {
        letter-spacing: 0em;
      }

      .cls-24 {
        letter-spacing: -.02em;
      }

      .cls-25 {
        letter-spacing: -.1em;
      }

      .cls-26 {
        letter-spacing: -.17em;
      }

      .cls-27 {
        letter-spacing: -.48em;
      }

      .cls-28 {
        letter-spacing: -.02em;
      }

      .cls-29 {
        letter-spacing: -.11em;
      }

      .cls-30 {
        fill: #efe8cb;
      }

      .cls-31 {
        letter-spacing: -.06em;
      }

      .cls-32 {
        stroke: #000;
        stroke-width: .24px;
      }

      .cls-32, .cls-33 {
        fill: none;
        stroke-miterlimit: 10;
      }

      .cls-34 {
        letter-spacing: -.48em;
      }

      .cls-35 {
        fill: #ccc;
      }

      .cls-36 {
        letter-spacing: -.03em;
      }

      .cls-37 {
        letter-spacing: -.1em;
      }

      .cls-33 {
        stroke: #eeeeef;
        stroke-width: .73px;
      }

      .cls-15 {
        font-size: 31.96px;
      }

      .cls-38 {
        fill: #7acecc;
      }
    </style>
  </defs>
  <g id="_レイヤー_2" data-name="レイヤー 2">
    <g>
      <path class="cls-35" d="M571.03.68c15.61.02,28.27,12.67,28.28,28.28v145.06c-.02,15.61-12.67,28.27-28.28,28.28H28.97c-15.61-.02-28.27-12.67-28.28-28.28V28.97C.7,13.35,13.35.7,28.97.68h542.06M571.03,0H28.97C12.97,0,0,12.97,0,28.97c0,0,0,0,0,0v145.06c0,16,12.97,28.97,28.97,28.97h542.06c16,0,28.97-12.97,28.97-28.97V28.97C600,12.97,587.03,0,571.03,0Z"/>
      <g class="cls-13">
        <text class="cls-14" transform="translate(38.45 162.94) scale(1.02 1)"><tspan x="0" y="0">習</tspan><tspan class="cls-9" x="16.5" y="0">得</tspan><tspan class="cls-18" x="31.84" y="0">レ</tspan><tspan x="48.5" y="0">ベ</tspan></text>
        <text class="cls-10" transform="translate(106.02 162.94) scale(1.02 1)"><tspan x="0" y="0">ル</tspan></text>
        <text class="cls-14" transform="translate(127.13 162.94) scale(1.02 1)"><tspan x="0" y="0">:　</tspan></text>
      </g>
      <text class="cls-12" transform="translate(55.42 76.09) scale(1.1 1)"><tspan x="0" y="0">Ai</tspan></text>
      <text class="cls-15" transform="translate(135.86 59.34) scale(1.02 1)"><tspan x="0" y="0">HTML</tspan><tspan class="cls-24" x="83.2" y="0">5</tspan><tspan class="cls-34" x="100.17" y="0">、</tspan><tspan x="116.79" y="0">css</tspan></text>
      <g class="cls-13">
        <text class="cls-11" transform="translate(138.64 94.93) scale(1.02 1)"><tspan x="0" y="0">基本的なCDG</tspan><tspan class="cls-3" x="121.59" y="0">が</tspan><tspan class="cls-28" x="141.17" y="0">で</tspan><tspan class="cls-22" x="160.95" y="0">き</tspan><tspan class="cls-5" x="179.52" y="0">ま</tspan><tspan class="cls-29" x="198.9" y="0">す</tspan><tspan class="cls-27" x="216.87" y="0">。</tspan><tspan class="cls-23" x="227.37" y="0">パ</tspan><tspan class="cls-19" x="247.35" y="0">ー</tspan><tspan class="cls-23" x="266.73" y="0">ツ</tspan><tspan class="cls-36" x="286.72" y="0">化</tspan><tspan class="cls-7" x="306.3" y="0">も</tspan><tspan x="325.48" y="0">可</tspan><tspan class="cls-2" x="345.67" y="0">能</tspan><tspan class="cls-27" x="365.45" y="0">。</tspan><tspan x="0" y="24.22">cs</tspan><tspan class="cls-2" x="18.33" y="24.22">sを</tspan><tspan class="cls-37" x="46.27" y="24.22">使っ</tspan><tspan class="cls-7" x="82.61" y="24.22">て</tspan><tspan class="cls-21" x="101.78" y="24.22">の装</tspan><tspan class="cls-28" x="142.16" y="24.22">飾</tspan><tspan class="cls-27" x="161.94" y="24.22">、</tspan><tspan class="cls-2" x="172.44" y="24.22">動</tspan><tspan class="cls-31" x="192.22" y="24.22">き</tspan><tspan class="cls-6" x="211.2" y="24.22">を</tspan><tspan x="230.98" y="24.22">つ</tspan><tspan class="cls-8" x="251.17" y="24.22">け</tspan><tspan class="cls-29" x="269.74" y="24.22">る</tspan><tspan class="cls-26" x="287.71" y="24.22">こ</tspan><tspan class="cls-29" x="304.47" y="24.22">と</tspan><tspan class="cls-25" x="322.43" y="24.22">も</tspan><tspan class="cls-6" x="340.6" y="24.22">で</tspan><tspan class="cls-8" x="360.38" y="24.22">き</tspan><tspan class="cls-5" x="378.96" y="24.22">ま</tspan><tspan class="cls-29" x="398.34" y="24.22">す</tspan><tspan class="cls-27" x="416.3" y="24.22">。</tspan></text>
      </g>
      <g>
        <polygon class="cls-1" points="41.02 23.93 114.4 23.93 108.13 93.38 77.71 101.48 47.61 93.96 41.02 23.93"/>
        <polygon class="cls-20" points="78.03 29.72 107.82 29.72 102.17 89.33 78.03 95.11 78.03 29.72"/>
        <polygon class="cls-17" points="57.01 67.62 66.42 67.62 67.99 74.28 77.71 77.46 87.75 74.57 87.75 64.15 57.01 64.15 54.19 37.82 100.29 37.82 100.29 46.21 65.8 46.5 66.11 55.18 99.04 55.18 96.84 81.8 77.24 87.01 58.27 81.8 57.01 67.62"/>
        <polyline class="cls-4" points="66.42 67.62 67.99 74.28 77.71 77.46 77.71 87.01 58.27 81.8 57.01 67.62"/>
        <polygon class="cls-4" points="54.19 37.82 78.03 37.82 78.03 46.4 65.8 46.5 66.11 55.18 78.03 55.18 78.03 64.15 57.01 64.15 54.19 37.82"/>
      </g>
      <polygon class="cls-16" points="161.62 169.24 165.3 171.47 161.38 173.36 161.62 169.24"/>
      <polygon class="cls-16" points="184.67 170.04 188.34 172.27 184.42 174.16 184.67 170.04"/>
      <polygon class="cls-16" points="207.68 170.84 211.35 173.07 207.43 174.96 207.68 170.84"/>
      <polygon class="cls-16" points="232.7 170.91 236.38 173.14 232.46 175.03 232.7 170.91"/>
      <line class="cls-33" x1="171.67" y1="163.28" x2="171.41" y2="159.56"/>
      <g>
        <path class="cls-30" d="M161.83,166.43c.04-.95.85-1.68,1.79-1.63.29.01.57.1.81.25l3.57,2.16c.81.49,1.07,1.55.58,2.36-.17.29-.43.52-.74.66l-6.36,3.01.34-6.81Z"/>
        <path d="M163.55,164.95c.29,0,.56.08.81.23l3.57,2.16c.74.45.98,1.41.53,2.15-.16.26-.39.47-.67.6l-6.13,2.9.33-6.55c.04-.83.73-1.49,1.57-1.49M163.55,164.64c-1,0-1.83.78-1.88,1.78l-.35,7.07,6.6-3.12c.94-.44,1.34-1.56.89-2.5-.16-.33-.41-.61-.72-.8l-3.57-2.16c-.29-.18-.63-.27-.97-.27h0Z"/>
      </g>
      <g>
        <path class="cls-38" d="M167.85,169.41l-1.12-.25-.53-.75-1.08-.22-.57-.78-1.16-.27-.49-.73-1.16-.32,15.28-22.06c.18-.23.47-.36.76-.35.27,0,.54.08.77.22l4.6,2.79c.3.17.52.45.61.78.05.19.01.4-.1.56l-15.28,22.06-.53-.69Z"/>
        <path d="M177.77,143.79h0c.25,0,.5.08.72.21l4.6,2.79c.27.15.47.41.56.71.04.16,0,.34-.08.48l-15.2,21.94-.44-.57-.05-.06-.08-.02-.98-.19-.54-.73-.05-.07h-.08s-.94-.18-.94-.18l-.59-.76-.05-.06-.08-.02-1.01-.21-.51-.71-.04-.06-.07-.02-.95-.24,15.19-21.93c.16-.2.41-.32.67-.3M177.77,143.57c-.33-.02-.65.13-.85.39l-15.36,22.18,1.24.32.56.77,1.09.23.64.82,1.02.18.59.8,1.06.21.61.81,15.36-22.18c.27-.54.05-1.2-.49-1.47-.02,0-.03-.02-.05-.02l-4.6-2.79c-.25-.15-.53-.24-.83-.24h0Z"/>
      </g>
      <line class="cls-32" x1="162.27" y1="166.27" x2="177.87" y2="143.75"/>
      <line class="cls-32" x1="164.1" y1="166.81" x2="179.62" y2="144.39"/>
      <line class="cls-32" x1="165.75" y1="167.81" x2="181.28" y2="145.39"/>
      <line class="cls-32" x1="167.4" y1="168.81" x2="182.93" y2="146.39"/>
      <line class="cls-33" x1="194.72" y1="164.08" x2="194.46" y2="160.36"/>
      <g>
        <path class="cls-30" d="M184.88,167.23c.04-.95.85-1.68,1.79-1.63.29.01.57.1.81.25l3.57,2.16c.81.49,1.07,1.55.58,2.36-.17.29-.43.52-.74.66l-6.36,3.01.34-6.81Z"/>
        <path d="M186.6,165.75c.29,0,.56.08.81.23l3.57,2.16c.74.45.98,1.41.53,2.15-.16.26-.39.47-.67.6l-6.13,2.9.33-6.55c.04-.83.73-1.49,1.57-1.49M186.6,165.44c-1,0-1.83.78-1.88,1.78l-.35,7.07,6.6-3.12c.94-.44,1.34-1.56.89-2.5-.16-.33-.41-.61-.72-.8l-3.57-2.16c-.29-.18-.63-.27-.97-.27h0Z"/>
      </g>
      <g>
        <path class="cls-38" d="M190.89,170.21l-1.12-.25-.53-.75-1.08-.22-.57-.78-1.16-.27-.49-.73-1.16-.32,15.28-22.06c.18-.23.47-.36.76-.34.27,0,.54.08.77.22l4.6,2.79c.3.17.52.45.61.78.05.19.01.4-.1.56l-15.28,22.06-.53-.69Z"/>
        <path d="M200.82,144.59h0c.25,0,.5.08.72.21l4.6,2.79c.27.15.47.41.56.71.04.16,0,.34-.08.48l-15.2,21.94-.44-.57-.05-.06-.08-.02-.98-.19-.54-.73-.05-.07h-.08s-.94-.18-.94-.18l-.59-.76-.05-.06-.08-.02-1.01-.21-.51-.71-.04-.06-.07-.02-.95-.24,15.19-21.93c.16-.2.41-.32.67-.3M200.82,144.38c-.33-.02-.65.13-.85.39l-15.36,22.18,1.24.32.56.77,1.09.23.64.82,1.02.18.59.8,1.06.21.61.81,15.36-22.18c.27-.54.05-1.2-.49-1.47-.02,0-.03-.02-.05-.02l-4.6-2.79c-.25-.15-.53-.24-.83-.24h0Z"/>
      </g>
      <line class="cls-32" x1="185.32" y1="167.07" x2="200.91" y2="144.56"/>
      <line class="cls-32" x1="187.14" y1="167.61" x2="202.67" y2="145.19"/>
      <line class="cls-32" x1="188.8" y1="168.61" x2="204.32" y2="146.19"/>
      <line class="cls-32" x1="190.45" y1="169.61" x2="205.97" y2="147.19"/>
      <line class="cls-33" x1="217.72" y1="164.88" x2="217.47" y2="161.16"/>
      <g>
        <path class="cls-30" d="M207.88,168.03c.04-.95.85-1.68,1.79-1.63.29.01.57.1.82.25l3.57,2.16c.81.49,1.07,1.55.58,2.36-.18.29-.43.52-.74.66l-6.36,3.01.34-6.81Z"/>
        <path d="M209.6,166.55c.29,0,.56.08.81.23l3.57,2.16c.74.45.98,1.41.53,2.15-.16.26-.39.47-.67.6l-6.13,2.9.33-6.55c.04-.83.73-1.49,1.57-1.49M209.6,166.24c-1,0-1.83.78-1.88,1.78l-.35,7.07,6.6-3.12c.94-.44,1.34-1.56.89-2.5-.16-.33-.41-.61-.72-.8l-3.57-2.16c-.29-.18-.63-.27-.97-.27h0Z"/>
      </g>
      <g>
        <path class="cls-38" d="M213.9,171.01l-1.12-.25-.53-.75-1.08-.22-.57-.78-1.16-.27-.49-.73-1.16-.32,15.28-22.06c.18-.23.47-.36.76-.34.27,0,.54.08.77.22l4.6,2.79c.3.17.52.45.61.78.05.19.01.4-.1.56l-15.28,22.06-.53-.69Z"/>
        <path d="M223.83,145.39h0c.25,0,.5.08.72.21l4.6,2.79c.27.15.47.41.56.71.04.16,0,.34-.08.48l-15.2,21.94-.44-.57-.05-.06-.08-.02-.98-.19-.54-.73-.05-.07h-.08s-.94-.18-.94-.18l-.59-.76-.05-.06-.08-.02-1.01-.21-.51-.71-.04-.06-.07-.02-.95-.24,15.19-21.93c.16-.2.41-.32.67-.3M223.83,145.18c-.33-.02-.65.13-.85.39l-15.36,22.18,1.24.32.56.77,1.09.23.64.82,1.02.18.59.8,1.06.21.61.81,15.36-22.18c.27-.54.05-1.2-.49-1.47-.02,0-.03-.02-.05-.02l-4.6-2.79c-.25-.15-.53-.24-.83-.24h0Z"/>
      </g>
      <line class="cls-32" x1="208.33" y1="167.87" x2="223.92" y2="145.36"/>
      <line class="cls-32" x1="210.15" y1="168.41" x2="225.68" y2="145.99"/>
      <line class="cls-32" x1="211.8" y1="169.41" x2="227.33" y2="146.99"/>
      <line class="cls-32" x1="213.46" y1="170.41" x2="228.98" y2="147.99"/>
      <line class="cls-33" x1="242.75" y1="164.95" x2="242.49" y2="161.23"/>
      <g>
        <path class="cls-30" d="M232.91,168.1c.04-.95.85-1.68,1.79-1.63.29.01.57.1.81.25l3.57,2.16c.81.49,1.07,1.55.58,2.36-.18.29-.43.52-.74.66l-6.36,3.01.34-6.81Z"/>
        <path d="M234.63,166.62c.29,0,.56.08.81.23l3.57,2.16c.74.45.98,1.41.53,2.15-.16.26-.39.47-.67.6l-6.13,2.9.33-6.55c.04-.83.73-1.49,1.57-1.49M234.63,166.31c-1,0-1.83.78-1.88,1.78l-.35,7.07,6.6-3.12c.94-.44,1.34-1.56.89-2.5-.16-.33-.41-.61-.72-.8l-3.57-2.16c-.29-.18-.63-.27-.97-.27h0Z"/>
      </g>
      <g>
        <path class="cls-38" d="M238.93,171.08l-1.12-.25-.53-.75-1.08-.22-.57-.78-1.16-.27-.49-.73-1.16-.32,15.28-22.06c.18-.23.47-.36.76-.34.27,0,.54.08.77.22l4.6,2.79c.3.17.52.45.61.78.05.19,0,.39-.1.56l-15.28,22.06-.53-.69Z"/>
        <path d="M248.86,145.46h0c.25,0,.5.08.72.21l4.6,2.79c.27.15.47.41.56.71.04.16,0,.34-.08.48l-15.2,21.94-.44-.57-.05-.06-.08-.02-.98-.19-.54-.73-.05-.07h-.08s-.94-.18-.94-.18l-.59-.76-.05-.06-.08-.02-1.01-.21-.51-.71-.04-.06-.07-.02-.95-.24,15.19-21.93c.16-.2.41-.32.67-.3M248.86,145.25c-.33-.02-.65.13-.85.39l-15.36,22.18,1.24.32.56.77,1.09.23.64.82,1.02.18.59.8,1.06.21.61.81,15.36-22.18c.27-.54.05-1.2-.49-1.47-.02,0-.03-.02-.05-.02l-4.6-2.79c-.25-.15-.53-.24-.83-.24h0Z"/>
      </g>
      <line class="cls-32" x1="233.35" y1="167.94" x2="248.95" y2="145.42"/>
      <line class="cls-32" x1="235.18" y1="168.48" x2="250.71" y2="146.06"/>
      <line class="cls-32" x1="236.83" y1="169.48" x2="252.36" y2="147.06"/>
      <line class="cls-32" x1="238.48" y1="170.48" x2="254.01" y2="148.06"/>
      <polygon class="cls-16" points="161.61 173.34 161.82 169.96 164.57 171.99 161.61 173.34"/>
      <polygon class="cls-16" points="184.59 173.86 184.79 170.49 187.54 172.52 184.59 173.86"/>
      <polygon class="cls-16" points="207.41 174.78 207.61 171.41 210.37 173.44 207.41 174.78"/>
      <polygon class="cls-16" points="232.54 174.86 232.75 171.49 235.5 173.52 232.54 174.86"/>
      <polygon class="cls-16" points="257.61 170.91 261.29 173.14 257.37 175.03 257.61 170.91"/>
      <line class="cls-33" x1="267.66" y1="164.95" x2="267.41" y2="161.23"/>
      <g>
        <path class="cls-30" d="M257.82,168.1c.04-.95.85-1.68,1.79-1.63.29.01.57.1.81.25l3.57,2.16c.81.49,1.07,1.55.58,2.36-.18.29-.43.52-.74.66l-6.36,3.01.34-6.81Z"/>
        <path d="M259.54,166.62c.29,0,.56.08.81.23l3.57,2.16c.74.45.98,1.41.53,2.15-.16.26-.39.47-.67.6l-6.13,2.9.33-6.55c.04-.83.73-1.49,1.57-1.49M259.54,166.31c-1,0-1.83.78-1.88,1.78l-.35,7.07,6.6-3.12c.94-.44,1.34-1.56.89-2.5-.16-.33-.41-.61-.72-.8l-3.57-2.16c-.29-.18-.63-.27-.97-.27h0Z"/>
      </g>
      <g>
        <path class="cls-38" d="M263.84,171.08l-1.12-.25-.53-.75-1.08-.22-.57-.78-1.16-.27-.49-.73-1.16-.32,15.28-22.06c.18-.23.47-.36.76-.34.27,0,.54.08.77.22l4.6,2.79c.3.17.52.45.61.78.05.19,0,.39-.1.56l-15.28,22.06-.53-.69Z"/>
        <path d="M273.77,145.46h0c.25,0,.5.08.72.21l4.6,2.79c.27.15.47.41.56.71.04.16,0,.34-.08.48l-15.2,21.94-.44-.57-.05-.06-.08-.02-.98-.19-.54-.73-.05-.07h-.08s-.94-.18-.94-.18l-.59-.76-.05-.06-.08-.02-1.01-.21-.51-.71-.04-.06-.07-.02-.95-.24,15.19-21.93c.16-.2.41-.32.67-.3M273.77,145.25c-.33-.02-.65.13-.85.39l-15.36,22.18,1.24.32.56.77,1.09.23.64.82,1.02.18.59.8,1.06.21.61.81,15.36-22.18c.27-.54.05-1.2-.49-1.47-.02,0-.03-.02-.05-.02l-4.6-2.79c-.25-.15-.53-.24-.83-.24h0Z"/>
      </g>
      <line class="cls-32" x1="258.26" y1="167.94" x2="273.86" y2="145.42"/>
      <line class="cls-32" x1="260.09" y1="168.48" x2="275.62" y2="146.06"/>
      <line class="cls-32" x1="261.74" y1="169.48" x2="277.27" y2="147.06"/>
      <line class="cls-32" x1="263.39" y1="170.48" x2="278.92" y2="148.06"/>
      <polygon class="cls-16" points="257.46 174.86 257.66 171.49 260.41 173.52 257.46 174.86"/>
    </g>
  </g>
</svg>