<svg xmlns="http://www.w3.org/2000/svg" viewBox="0 0 600.00006 203">
  <defs>
    <style>
      .cls-1 {
        fill: #ccc;
      }

      .cls-2, .cls-8 {
        font-size: 16.49823px;
      }

      .cls-10, .cls-2, .cls-6, .cls-8 {
        font-family: KozGoPr6N-Regular-83pv-RKSJ-H, Kozuka Gothic Pr6N;
      }

      .cls-3 {
        letter-spacing: 0.24999em;
      }

      .cls-4 {
        font-size: 43.42299px;
        fill: #f7931e;
        font-family: UDDigiKyokashoNK-B, UDDigiKyokashoNK B;
      }

      .cls-5 {
        font-size: 31.96358px;
        font-family: KozGoPr6N-Bold-83pv-RKSJ-H, Kozuka Gothic Pr6N;
      }

      .cls-6 {
        font-size: 15px;
      }

      .cls-7 {
        letter-spacing: -0.50001em;
      }

      .cls-8 {
        letter-spacing: 0.23901em;
      }

      .cls-9 {
        letter-spacing: 0.489em;
      }

      .cls-10 {
        font-size: 18.65018px;
      }

      .cls-11 {
        fill: #e62e1b;
      }

      .cls-12 {
        fill: #eb6b49;
      }

      .cls-13, .cls-20, .cls-24 {
        fill: #fff;
      }

      .cls-14 {
        fill: #eeeeef;
      }

      .cls-15 {
        fill: #020202;
      }

      .cls-16 {
        fill: #afbcbb;
      }

      .cls-17, .cls-21, .cls-25 {
        fill: none;
      }

      .cls-17 {
        stroke: #eeeeef;
        stroke-width: 0.7258px;
      }

      .cls-17, .cls-20, .cls-21, .cls-24, .cls-25 {
        stroke-miterlimit: 10;
      }

      .cls-18 {
        fill: #efe8cb;
      }

      .cls-19 {
        fill: #7acecc;
      }

      .cls-20, .cls-21 {
        stroke: #000;
      }

      .cls-20, .cls-21, .cls-24, .cls-25 {
        stroke-width: 0.23904px;
      }

      .cls-22 {
        fill: #eae6d8;
      }

      .cls-23 {
        fill: #e1efee;
      }

      .cls-24, .cls-25 {
        stroke: #afbcbb;
      }
    </style>
  </defs>
  <g id="レイヤー_2" data-name="レイヤー 2">
    <g id="レイヤー_1-2" data-name="レイヤー 1">
      <g>
        <path class="cls-1" d="M571.03192.68445a28.31568,28.31568,0,0,1,28.28369,28.28363V174.03192a28.31568,28.31568,0,0,1-28.28369,28.28363H28.96814A28.31568,28.31568,0,0,1,.68445,174.03192V28.96808A28.31568,28.31568,0,0,1,28.96814.68445H571.03192m0-.68445H28.96814A28.96809,28.96809,0,0,0,0,28.96808V174.03192A28.96809,28.96809,0,0,0,28.96814,203H571.03192a28.96813,28.96813,0,0,0,28.96814-28.96808V28.96808A28.96813,28.96813,0,0,0,571.03192,0Z"/>
        <text class="cls-2" transform="translate(38.45363 162.93724) scale(1.02381 1)">習得レベ<tspan class="cls-3" x="65.99315" y="0">ル</tspan><tspan x="86.6159" y="0">:　</tspan></text>
        <text class="cls-4" transform="translate(55.4214 76.08763) scale(1.10286 1)">Ai</text>
        <text class="cls-5" transform="translate(135.8633 59.33665) scale(1.02381 1)">HTML5</text>
        <text/>        <text class="cls-6" transform="translate(138.58168 77.31715) scale(1.02381 1)">基本的分な組み立ては出来ます。分からなくても調べて組み込む<tspan x="0" y="26.25">ことは出来ます</tspan><tspan class="cls-7" x="104.99899" y="26.25">。</tspan></text>
        <text class="cls-8" transform="translate(39.67336 127.30052) scale(1.02381 1)">授業時<tspan class="cls-9" x="61.32405" y="0">間</tspan><tspan x="85.89001" y="0">:</tspan></text>
        <text class="cls-10" transform="translate(142.58156 129.36205) scale(1.02381 1)">　50 hrs</text>
        <text/>        <text/>        <text/>        <g>
          <polygon class="cls-11" points="41.02 23.928 114.405 23.928 108.133 93.377 77.713 101.48 47.606 93.956 41.02 23.928"/>
          <polygon class="cls-12" points="78.026 29.716 107.819 29.716 102.174 89.326 78.026 95.113 78.026 29.716"/>
          <polygon class="cls-13" points="57.015 67.623 66.423 67.623 67.991 74.279 77.713 77.462 87.748 74.568 87.748 64.151 57.015 64.151 54.192 37.818 100.293 37.818 100.293 46.21 65.796 46.499 66.109 55.18 99.038 55.18 96.843 81.802 77.242 87.011 58.269 81.802 57.015 67.623"/>
          <polyline class="cls-14" points="66.423 67.623 67.991 74.279 77.713 77.462 77.713 87.011 58.269 81.802 57.015 67.623"/>
          <polygon class="cls-14" points="54.192 37.818 78.026 37.818 78.026 46.397 65.796 46.499 66.109 55.18 78.026 55.18 78.026 64.151 57.015 64.151 54.192 37.818"/>
        </g>
        <polygon class="cls-15" points="161.621 169.24 165.297 171.469 161.376 173.36 161.621 169.24"/>
        <polygon class="cls-15" points="184.668 170.042 188.344 172.271 184.423 174.162 184.668 170.042"/>
        <polygon class="cls-15" points="207.676 170.842 211.351 173.07 207.431 174.962 207.676 170.842"/>
        <polygon class="cls-15" points="232.704 170.911 236.379 173.14 232.459 175.031 232.704 170.911"/>
        <polygon class="cls-16" points="261.394 172.126 265.069 174.354 261.149 176.246 261.394 172.126"/>
        <line class="cls-17" x1="171.66901" y1="163.28022" x2="171.41262" y2="159.55575"/>
        <g>
          <path class="cls-18" d="M161.82843,166.42908a1.71672,1.71672,0,0,1,2.60938-1.38526l3.56835,2.16309a1.72005,1.72005,0,0,1-.15625,3.02588l-6.36132,3.00586Z"/>
          <path d="M163.54956,164.94751a1.53868,1.53868,0,0,1,.80731.22906l3.569,2.16285a1.56479,1.56479,0,0,1-.14239,2.75305l-6.12695,2.89538.32641-6.5509a1.56841,1.56841,0,0,1,1.56659-1.48944m0-.31018a1.87675,1.87675,0,0,0-1.8764,1.78418l-.35218,7.06805,6.5951-3.11664a1.875,1.875,0,0,0,.17059-3.29882l-3.569-2.16285a1.85818,1.85818,0,0,0-.96808-.27392Z"/>
        </g>
        <g>
          <path class="cls-19" d="M167.847,169.4071l-1.12109-.2456-.5293-.75488-1.082-.2212-.57031-.78076-1.15625-.2666-.49316-.73144-1.15918-.31934L177.012,144.02576a.89938.89938,0,0,1,.76172-.34522,1.51743,1.51743,0,0,1,.77246.22363l4.59961,2.7876a1.259,1.259,0,0,1,.60547.78174.70014.70014,0,0,1-.10058.55908l-15.27832,22.06494Z"/>
          <path d="M177.77435,143.78674h0a1.40758,1.40758,0,0,1,.7168.20807l4.59979,2.78748a1.17124,1.17124,0,0,1,.557.71344.60294.60294,0,0,1-.08423.477L168.36859,169.9173l-.43652-.57453-.049-.06439-.07947-.01544-.9773-.18988-.54467-.72962-.05023-.06726-.08265-.01464-.93542-.1659-.58551-.756-.04785-.06183-.0766-.01593-1.01331-.21063-.5094-.70661-.045-.06231-.0744-.019-.9494-.24316,15.18786-21.93439a.79494.79494,0,0,1,.67456-.29895m-.00006-.212a1.00467,1.00467,0,0,0-.84881.39032L161.56415,166.1499l1.24457.31873.55761.77337,1.09394.22742.63556.82068,1.01593.18018.59375.79528,1.05773.20551.61335.80713L183.738,148.09338a1.0935,1.0935,0,0,0-.53717-1.49243l-4.5998-2.78747a1.61173,1.61173,0,0,0-.82672-.23877Z"/>
        </g>
        <line class="cls-20" x1="162.27207" y1="166.27301" x2="177.86508" y2="143.7536"/>
        <line class="cls-21" x1="164.09801" y1="166.81029" x2="179.62351" y2="144.38837"/>
        <line class="cls-21" x1="165.74952" y1="167.8111" x2="181.27502" y2="145.38918"/>
        <line class="cls-21" x1="167.40103" y1="168.81191" x2="182.92653" y2="146.38999"/>
        <line class="cls-17" x1="194.71586" y1="164.08218" x2="194.45947" y2="160.3577"/>
        <g>
          <path class="cls-18" d="M184.87531,167.23132a1.7167,1.7167,0,0,1,2.60937-1.38525l3.56836,2.1626a1.72,1.72,0,0,1-.15625,3.02588l-6.36133,3.00586Z"/>
          <path d="M186.59637,165.74945a1.53848,1.53848,0,0,1,.80732.22907l3.56909,2.16284a1.56481,1.56481,0,0,1-.14246,2.75305l-6.12695,2.89545.32642-6.551a1.56847,1.56847,0,0,1,1.56658-1.48944m0-.31018a1.87683,1.87683,0,0,0-1.8764,1.78418l-.35217,7.06811,6.59509-3.11669a1.875,1.875,0,0,0,.17065-3.29883l-3.56909-2.16284a1.8581,1.8581,0,0,0-.96808-.27393Z"/>
        </g>
        <g>
          <path class="cls-19" d="M190.89386,170.20886l-1.12109-.2456-.5293-.7544-1.082-.22119-.57031-.78125-1.15625-.2666-.49317-.73145-1.15918-.31884,15.27637-22.062a.89908.89908,0,0,1,.76172-.34472,1.51538,1.51538,0,0,1,.77246.22363l4.59961,2.78711a1.26025,1.26025,0,0,1,.60547.78174.70133.70133,0,0,1-.10059.55957l-15.27832,22.06445Z"/>
          <path d="M200.82123,144.58868h0a1.40809,1.40809,0,0,1,.71673.20807l4.5998,2.78748a1.17136,1.17136,0,0,1,.557.71344.6032.6032,0,0,1-.08429.477l-15.195,21.94464-.43653-.57459-.04895-.06439-.07947-.01544-.97735-.18988-.54468-.72961-.05023-.06727-.08264-.01464-.93537-.1659-.58557-.756-.04785-.06183-.0766-.01593-1.01318-.21069-.50946-.7066-.045-.06232-.0744-.019-.94946-.24317,15.18793-21.93439a.79494.79494,0,0,1,.67456-.29895m-.00006-.212a1.00462,1.00462,0,0,0-.84882.39032L184.611,166.95184l1.24463.31873.55762.77338,1.09387.22747.63562.82062,1.01587.18018.59375.79528,1.0578.20551.61334.80719,15.36133-22.18488a1.09347,1.09347,0,0,0-.53717-1.49243l-4.59979-2.78747a1.61174,1.61174,0,0,0-.82666-.23877Z"/>
        </g>
        <line class="cls-20" x1="185.31892" y1="167.07497" x2="200.91192" y2="144.55556"/>
        <line class="cls-21" x1="187.14486" y1="167.61224" x2="202.67036" y2="145.19032"/>
        <line class="cls-21" x1="188.79637" y1="168.61305" x2="204.32187" y2="146.19113"/>
        <line class="cls-21" x1="190.44788" y1="169.61387" x2="205.97338" y2="147.19194"/>
        <line class="cls-17" x1="217.72331" y1="164.88211" x2="217.46692" y2="161.15764"/>
        <g>
          <path class="cls-18" d="M207.88312,168.03113a1.71593,1.71593,0,0,1,2.6084-1.38526l3.56933,2.16309a1.71969,1.71969,0,0,1-.15722,3.02588l-6.36036,3.00586Z"/>
          <path d="M209.60388,166.54938a1.53823,1.53823,0,0,1,.80725.22906l3.56909,2.16284a1.56483,1.56483,0,0,1-.14245,2.75306l-6.12689,2.89544.32635-6.551a1.5685,1.5685,0,0,1,1.56665-1.48944m0-.31018a1.87692,1.87692,0,0,0-1.87646,1.78418l-.35211,7.06811,6.595-3.1167a1.875,1.875,0,0,0,.17065-3.29883l-3.56909-2.16284a1.85788,1.85788,0,0,0-.968-.27392Z"/>
        </g>
        <g>
          <path class="cls-19" d="M213.90167,171.00916l-1.12109-.24561-.5293-.75488-1.083-.22119-.56933-.78125-1.15723-.26612-.49316-.73144-1.15821-.31934,15.27637-22.062a.89907.89907,0,0,1,.76172-.34473,1.52,1.52,0,0,1,.77246.22364l4.59961,2.78759a1.25812,1.25812,0,0,1,.60547.78125.7017.7017,0,0,1-.10059.55957l-15.27832,22.06494Z"/>
          <path d="M223.82867,145.38861h0a1.40752,1.40752,0,0,1,.71674.20813l4.59979,2.78742a1.171,1.171,0,0,1,.557.7135.60308.60308,0,0,1-.08429.47692l-15.195,21.94465-.43652-.57459-.04895-.06439-.07947-.01544-.97735-.18988-.54468-.72962-.05023-.06726-.08265-.01465-.93536-.16589-.58557-.756-.04785-.06183-.0766-.01593-1.01319-.21063-.50946-.70661-.045-.06237-.0744-.01905-.94946-.24316,15.18792-21.93433a.795.795,0,0,1,.67456-.299m-.00006-.212a1.00474,1.00474,0,0,0-.84881.39025l-15.36139,22.18488,1.24463.31873.55761.77343,1.09388.22742.63562.82062,1.01587.18017.59375.79529,1.0578.20551.61334.80719,15.36133-22.18488a1.09342,1.09342,0,0,0-.53717-1.49243l-4.5998-2.78741a1.61044,1.61044,0,0,0-.82666-.23877Z"/>
        </g>
        <line class="cls-20" x1="208.32637" y1="167.8749" x2="223.91937" y2="145.3555"/>
        <line class="cls-21" x1="210.15231" y1="168.41218" x2="225.67781" y2="145.99026"/>
        <line class="cls-21" x1="211.80382" y1="169.41299" x2="227.32932" y2="146.99107"/>
        <line class="cls-21" x1="213.45533" y1="170.4138" x2="228.98083" y2="147.99188"/>
        <line class="cls-17" x1="242.75135" y1="164.95132" x2="242.49496" y2="161.22685"/>
        <g>
          <path class="cls-18" d="M232.91046,168.10046a1.71672,1.71672,0,0,1,2.60938-1.38525l3.56933,2.1626a1.71964,1.71964,0,0,1-.15722,3.02588l-6.36036,3.00586Z"/>
          <path d="M234.632,166.61859a1.5384,1.5384,0,0,1,.80725.22907l3.569,2.16284a1.56478,1.56478,0,0,1-.1424,2.75305l-6.12695,2.89545.32642-6.551a1.56842,1.56842,0,0,1,1.56665-1.48944m0-.31018a1.87685,1.87685,0,0,0-1.87647,1.78418l-.35217,7.06812,6.59509-3.1167a1.875,1.875,0,0,0,.1706-3.29883l-3.569-2.16284a1.85808,1.85808,0,0,0-.968-.27393Z"/>
        </g>
        <g>
          <path class="cls-19" d="M238.93,171.078l-1.12207-.2456-.52929-.7544-1.082-.22119-.57031-.78125L234.47,168.809l-.49316-.73145-1.15821-.31884,15.27637-22.062a.89907.89907,0,0,1,.76172-.34473,1.51193,1.51193,0,0,1,.77148.22363l4.60059,2.78711a1.26194,1.26194,0,0,1,.60547.78272.70285.70285,0,0,1-.10059.55859l-15.27832,22.06445Z"/>
          <path d="M248.85681,145.45782h0a1.40794,1.40794,0,0,1,.71668.20807l4.59979,2.78748a1.17148,1.17148,0,0,1,.557.7135.6034.6034,0,0,1-.08429.47693l-15.19507,21.94464-.43653-.57459-.04895-.06439-.07946-.01544-.9773-.18988-.54468-.72961-.05023-.06726-.08264-.01465-.93542-.1659-.58558-.756-.04785-.06183-.0766-.01593-1.01318-.21063-.50946-.7066-.045-.06238-.07441-.019-.9494-.24317,15.18787-21.93432a.795.795,0,0,1,.67468-.299m-.00012-.212a1.005,1.005,0,0,0-.84888.39032L232.64648,167.821l1.24457.31873.55762.77344,1.09387.22741.63562.82062,1.01593.18018.59375.79529,1.05774.2055.61334.80719,15.36139-22.18487a1.09353,1.09353,0,0,0-.53717-1.49244l-4.59979-2.78747a1.61155,1.61155,0,0,0-.82666-.23877Z"/>
        </g>
        <line class="cls-20" x1="233.3544" y1="167.94411" x2="248.94741" y2="145.42471"/>
        <line class="cls-21" x1="235.18034" y1="168.48139" x2="250.70585" y2="146.05947"/>
        <line class="cls-21" x1="236.83185" y1="169.4822" x2="252.35736" y2="147.06028"/>
        <line class="cls-21" x1="238.48336" y1="170.48301" x2="254.00887" y2="148.06109"/>
        <line class="cls-17" x1="271.44143" y1="166.16606" x2="271.18504" y2="162.44159"/>
        <g>
          <path class="cls-22" d="M261.60089,169.31531a1.71672,1.71672,0,0,1,2.60938-1.38526l3.56836,2.1626a1.72006,1.72006,0,0,1-.15625,3.02588l-6.36133,3.00586Z"/>
          <path class="cls-16" d="M263.322,167.83331a1.5384,1.5384,0,0,1,.80725.22907l3.56909,2.16284a1.56481,1.56481,0,0,1-.14245,2.75305l-6.12695,2.89545.32641-6.551a1.5685,1.5685,0,0,1,1.56665-1.48944m0-.31018a1.87688,1.87688,0,0,0-1.87646,1.78418l-.35218,7.06812,6.5951-3.1167a1.875,1.875,0,0,0,.17065-3.29883L264.29,167.79706a1.85805,1.85805,0,0,0-.968-.27393Z"/>
        </g>
        <g>
          <path class="cls-23" d="M267.61945,172.29285l-1.1211-.24561-.52929-.75439-1.082-.22119-.57031-.78125-1.15625-.26661-.49316-.73144-1.15918-.31934,15.27636-22.06152a.89938.89938,0,0,1,.76172-.34522,1.51732,1.51732,0,0,1,.77246.22364l4.59961,2.78759a1.2602,1.2602,0,0,1,.60547.78174.70129.70129,0,0,1-.10058.55957l-15.27832,22.06446Z"/>
          <path class="cls-16" d="M277.54688,146.67255h0a1.4073,1.4073,0,0,1,.71667.20813l4.59979,2.78747a1.17121,1.17121,0,0,1,.557.71344.60314.60314,0,0,1-.08429.47693l-15.195,21.94464-.43658-.57452-.04895-.06439-.07941-.01545-.97736-.18994-.54467-.72961-.05023-.06726-.08271-.01465-.9353-.16583-.58557-.756-.04785-.06182-.0766-.01593-1.01331-.21064-.5094-.7066-.045-.06232-.0744-.019-.94946-.24317,15.18792-21.93432a.79525.79525,0,0,1,.67469-.29907m-.00013-.212a1.00488,1.00488,0,0,0-.84887.39032l-15.36133,22.18482,1.24457.31878.55761.77338,1.09394.22742.63562.82067,1.01587.18012.59375.79529,1.05773.20556.61341.80713,15.36133-22.18487a1.0934,1.0934,0,0,0-.53717-1.49237l-4.5998-2.78748a1.61047,1.61047,0,0,0-.82666-.23877Z"/>
        </g>
        <line class="cls-24" x1="262.04448" y1="169.15885" x2="277.63749" y2="146.63944"/>
        <line class="cls-25" x1="263.87042" y1="169.69613" x2="279.39593" y2="147.27421"/>
        <line class="cls-25" x1="265.52193" y1="170.69694" x2="281.04744" y2="148.27502"/>
        <line class="cls-25" x1="267.17344" y1="171.69775" x2="282.69895" y2="149.27583"/>
        <polygon class="cls-15" points="161.614 173.337 161.815 169.965 164.568 171.995 161.614 173.337"/>
        <polygon class="cls-15" points="184.591 173.861 184.792 170.489 187.545 172.52 184.591 173.861"/>
        <polygon class="cls-15" points="207.412 174.781 207.612 171.409 210.366 173.439 207.412 174.781"/>
        <polygon class="cls-15" points="232.545 174.863 232.746 171.491 235.499 173.522 232.545 174.863"/>
        <polygon class="cls-16" points="261.13 176.065 261.331 172.693 264.084 174.723 261.13 176.065"/>
      </g>
    </g>
  </g>
</svg>
