<svg xmlns="http://www.w3.org/2000/svg" viewBox="0 0 600 203">
  <defs>
    <style>
      .cls-1, .cls-22, .cls-25 {
        fill: none;
      }

      .cls-1 {
        stroke: #eeeeef;
        stroke-width: 0.7258px;
      }

      .cls-1, .cls-21, .cls-22, .cls-24, .cls-25 {
        stroke-miterlimit: 10;
      }

      .cls-2 {
        fill: #020202;
      }

      .cls-3 {
        fill: #afbcbb;
      }

      .cls-4 {
        fill: #efe8cb;
      }

      .cls-5 {
        fill: #eae6d8;
      }

      .cls-6 {
        fill: #ccc;
      }

      .cls-13, .cls-7 {
        font-size: 16.49823px;
      }

      .cls-11, .cls-13, .cls-15, .cls-7 {
        font-family: KozGoPr6N-Regular-83pv-RKSJ-H, Kozuka Gothic Pr6N;
      }

      .cls-8 {
        letter-spacing: 0.24999em;
      }

      .cls-9 {
        font-size: 43.42299px;
        fill: #f7931e;
        font-family: UDDigiKyokashoNK-B, UDDigiKyokashoNK B;
      }

      .cls-10 {
        font-size: 31.96358px;
        font-family: KozGoPr6N-Bold-83pv-RKSJ-H, Kozuka Gothic Pr6N;
      }

      .cls-11 {
        font-size: 17px;
      }

      .cls-12 {
        letter-spacing: 0.25002em;
      }

      .cls-13 {
        letter-spacing: 0.23901em;
      }

      .cls-14 {
        letter-spacing: 0.489em;
      }

      .cls-15 {
        font-size: 18.65018px;
      }

      .cls-16 {
        fill: #d9c019;
      }

      .cls-17 {
        fill: #f7d57f;
      }

      .cls-18 {
        fill: #eeeeef;
      }

      .cls-19, .cls-21, .cls-24 {
        fill: #fff;
      }

      .cls-20 {
        fill: #7acecc;
      }

      .cls-21, .cls-22 {
        stroke: #000;
      }

      .cls-21, .cls-22, .cls-24, .cls-25 {
        stroke-width: 0.23904px;
      }

      .cls-23 {
        fill: #e1efee;
      }

      .cls-24, .cls-25 {
        stroke: #afbcbb;
      }
    </style>
  </defs>
  <g id="レイヤー_2" data-name="レイヤー 2">
    <g id="レイヤー_1-2" data-name="レイヤー 1">
      <g>
        <line class="cls-1" x1="319.8762" y1="169.49149" x2="319.8762" y2="173.22477"/>
        <polygon class="cls-2" points="161.387 165.58 165.063 167.809 161.142 169.701 161.387 165.58"/>
        <polygon class="cls-2" points="184.434 166.382 188.109 168.611 184.189 170.503 184.434 166.382"/>
        <polygon class="cls-2" points="207.442 167.182 211.117 169.411 207.196 171.303 207.442 167.182"/>
        <polygon class="cls-3" points="261.16 168.466 264.835 170.695 260.915 172.587 261.16 168.466"/>
        <line class="cls-1" x1="171.43493" y1="159.62062" x2="171.17854" y2="155.89615"/>
        <g>
          <path class="cls-4" d="M161.5946,162.76965a1.71527,1.71527,0,0,1,2.6084-1.38476l3.56934,2.16211a1.71924,1.71924,0,0,1-.15723,3.02539l-6.36035,3.00683Z"/>
          <path d="M163.31549,161.2879a1.5384,1.5384,0,0,1,.80725.22907l3.56909,2.16284a1.56479,1.56479,0,0,1-.14239,2.75305l-6.12695,2.89539.32641-6.55091a1.56841,1.56841,0,0,1,1.56659-1.48944m0-.31018a1.87675,1.87675,0,0,0-1.8764,1.78418l-.35218,7.06806,6.5951-3.11664a1.875,1.875,0,0,0,.17059-3.29883l-3.56909-2.16284a1.85805,1.85805,0,0,0-.968-.27393Z"/>
        </g>
        <line class="cls-1" x1="194.48178" y1="160.42258" x2="194.22539" y2="156.6981"/>
        <g>
          <path class="cls-4" d="M184.64148,163.57141a1.71527,1.71527,0,0,1,2.6084-1.38476l3.56933,2.16308a1.71924,1.71924,0,0,1-.15722,3.02539l-6.36035,3.00586Z"/>
          <path d="M186.36237,162.08984a1.53842,1.53842,0,0,1,.80725.22907l3.56909,2.16284a1.56481,1.56481,0,0,1-.14246,2.75305l-6.12695,2.89545.32642-6.551a1.56849,1.56849,0,0,1,1.56665-1.48944m0-.31018a1.87689,1.87689,0,0,0-1.87647,1.78418l-.35217,7.06812,6.59509-3.1167a1.875,1.875,0,0,0,.17066-3.29883l-3.5691-2.16284a1.858,1.858,0,0,0-.968-.27393Z"/>
        </g>
        <line class="cls-1" x1="217.48923" y1="161.22251" x2="217.23284" y2="157.49804"/>
        <g>
          <path class="cls-4" d="M207.64832,164.37122a1.71606,1.71606,0,0,1,2.60937-1.38477l3.56934,2.16309a1.71924,1.71924,0,0,1-.15723,3.02539l-6.36035,3.00586Z"/>
          <path d="M209.36981,162.88977a1.5384,1.5384,0,0,1,.80725.22907l3.56909,2.16284a1.56482,1.56482,0,0,1-.14245,2.75305l-6.12695,2.89545.32641-6.551a1.5685,1.5685,0,0,1,1.56665-1.48944m0-.31018a1.87689,1.87689,0,0,0-1.87646,1.78418l-.35218,7.06811,6.5951-3.11669a1.875,1.875,0,0,0,.17065-3.29883l-3.56909-2.16284a1.85805,1.85805,0,0,0-.968-.27393Z"/>
        </g>
        <line class="cls-1" x1="271.20734" y1="162.50646" x2="270.95095" y2="158.78199"/>
        <g>
          <path class="cls-5" d="M261.36707,165.6554a1.71527,1.71527,0,0,1,2.60839-1.38477l3.56934,2.16211a1.7192,1.7192,0,0,1-.15723,3.02539l-6.36035,3.00684Z"/>
          <path class="cls-3" d="M263.088,164.17371a1.53839,1.53839,0,0,1,.80725.22906l3.569,2.16284a1.56479,1.56479,0,0,1-.14239,2.75305l-6.127,2.89545.32641-6.551a1.56841,1.56841,0,0,1,1.56665-1.48944m0-.31018a1.87684,1.87684,0,0,0-1.87646,1.78418l-.35218,7.06811,6.5951-3.1167a1.875,1.875,0,0,0,.17059-3.29883l-3.569-2.16284a1.858,1.858,0,0,0-.968-.27392Z"/>
        </g>
        <polygon class="cls-2" points="161.38 169.677 161.581 166.305 164.334 168.336 161.38 169.677"/>
        <polygon class="cls-2" points="184.357 170.202 184.558 166.83 187.311 168.86 184.357 170.202"/>
        <polygon class="cls-2" points="207.178 171.121 207.378 167.749 210.131 169.78 207.178 171.121"/>
        <polygon class="cls-3" points="261.178 172.448 261.378 169.076 264.131 171.107 261.178 172.448"/>
        <polygon class="cls-3" points="233.613 167.443 237.289 169.671 233.368 171.563 233.613 167.443"/>
        <line class="cls-1" x1="243.66111" y1="161.48285" x2="243.40472" y2="157.75838"/>
        <g>
          <path class="cls-5" d="M233.82019,164.632a1.71736,1.71736,0,0,1,2.60938-1.38574l3.56933,2.16308a1.71924,1.71924,0,0,1-.15723,3.02539l-6.36035,3.00684Z"/>
          <path class="cls-3" d="M235.54163,163.15015a1.53846,1.53846,0,0,1,.80731.22906l3.56909,2.16284a1.56481,1.56481,0,0,1-.14246,2.75305l-6.12695,2.89539.32642-6.5509a1.56844,1.56844,0,0,1,1.56659-1.48944m0-.31018a1.87683,1.87683,0,0,0-1.87641,1.78418l-.35217,7.06805,6.59509-3.11664a1.875,1.875,0,0,0,.17066-3.29883l-3.5691-2.16284a1.85805,1.85805,0,0,0-.96807-.27392Z"/>
        </g>
        <g>
          <path class="cls-6" d="M571.03186.68445a28.31568,28.31568,0,0,1,28.28369,28.28363V174.03192a28.31568,28.31568,0,0,1-28.28369,28.28363H28.96808A28.31567,28.31567,0,0,1,.68445,174.03192V28.96808A28.31567,28.31567,0,0,1,28.96808.68445H571.03186m0-.68445H28.96808A28.968,28.968,0,0,0,0,28.96808V174.03192A28.968,28.968,0,0,0,28.96808,203H571.03186A28.96805,28.96805,0,0,0,600,174.03192V28.96808A28.96813,28.96813,0,0,0,571.03186,0Z"/>
          <text class="cls-7" transform="translate(38.45358 160.93726) scale(1.02381 1)">習得レベ<tspan class="cls-8" x="65.99315" y="0">ル</tspan><tspan x="86.6159" y="0">:　</tspan></text>
          <text class="cls-9" transform="translate(55.42136 74.08765) scale(1.10286 1)">Ai</text>
          <text class="cls-10" transform="translate(135.86325 57.33667) scale(1.02381 1)">Javascript</text>
          <text/>          <text class="cls-11" transform="translate(138.582 88.56421) scale(1.02381 1)">初歩的な組み立ては出来ます。jQuer<tspan class="cls-12" x="279.93246" y="0">y</tspan><tspan x="292.73409" y="0">の使用も出来ます</tspan></text>
          <text class="cls-13" transform="translate(39.67331 125.30054) scale(1.02381 1)">授業時<tspan class="cls-14" x="61.32405" y="0">間</tspan><tspan x="85.89001" y="0">:</tspan></text>
          <text class="cls-15" transform="translate(142.58151 127.36206) scale(1.02381 1)">　60 hrs</text>
          <text/>          <text/>          <text/>          <text/>          <g>
            <polygon class="cls-16" points="38.349 21.48 116.183 21.48 109.531 93.121 77.266 101.48 45.334 93.718 38.349 21.48"/>
            <polygon class="cls-17" points="77.266 27.748 108.866 27.748 102.878 89.241 77.266 95.211 77.266 27.748"/>
            <polygon class="cls-18" points="61.965 35.398 71.944 35.398 71.944 85.349 51.987 80.971 51.987 71.617 61.965 73.806 61.965 35.398"/>
            <polygon class="cls-19" points="91.458 73.408 81.036 76.393 81.036 85.349 101.215 80.573 103.876 52.911 91.458 52.911 91.458 44.553 104.763 44.553 105.65 35.398 81.036 35.398 81.036 62.264 92.345 62.463 91.458 73.408"/>
          </g>
          <g>
            <path class="cls-20" d="M167.61316,165.74719l-1.12109-.24609-.5293-.75391-1.082-.2207-.57032-.78125-1.15625-.2666-.49316-.73145-1.15918-.31933,15.27637-22.06153a.89907.89907,0,0,1,.76269-.3457,1.52152,1.52152,0,0,1,.77149.22363l4.59961,2.78809a1.25687,1.25687,0,0,1,.60547.78125.7017.7017,0,0,1-.10059.55957l-15.27832,22.06445Z"/>
            <path d="M177.54028,140.12714h0a1.408,1.408,0,0,1,.71674.20807l4.59979,2.78747a1.171,1.171,0,0,1,.557.7135.60311.60311,0,0,1-.08429.47693l-15.195,21.94464-.43652-.57458-.049-.0644-.07947-.01544-.97729-.18988-.54474-.72961-.05017-.06726-.08265-.01465-.93542-.16589-.58557-.756-.04785-.06183-.0766-.01593-1.01325-.21063-.5094-.7066-.045-.06232-.0744-.019-.94946-.24317,15.18792-21.93438a.79491.79491,0,0,1,.67456-.29895m-.00006-.212a1.00459,1.00459,0,0,0-.84881.39032L161.33,162.4903l1.24463.31872.55761.77338,1.09388.22741.63562.82068,1.01593.18018.59375.79529,1.05773.2055.61335.80719,15.36133-22.18487a1.09342,1.09342,0,0,0-.53718-1.49243l-4.59979-2.78748a1.61178,1.61178,0,0,0-.82666-.23877Z"/>
          </g>
          <line class="cls-21" x1="162.03798" y1="162.61341" x2="177.63099" y2="140.094"/>
          <line class="cls-22" x1="163.86392" y1="163.15069" x2="179.38943" y2="140.72877"/>
          <line class="cls-22" x1="165.51543" y1="164.1515" x2="181.04094" y2="141.72958"/>
          <line class="cls-22" x1="167.16694" y1="165.15231" x2="182.69245" y2="142.73039"/>
          <g>
            <path class="cls-20" d="M190.66,166.549l-1.12109-.24512-.5293-.75488-1.082-.2207-.57031-.78125-1.15625-.2666-.49316-.73145-1.15918-.31934,15.27636-22.06152a.89779.89779,0,0,1,.76172-.34473,1.51536,1.51536,0,0,1,.77246.22364l4.59961,2.78711a1.25684,1.25684,0,0,1,.60547.78125.70166.70166,0,0,1-.10058.55957l-15.27833,22.06543Z"/>
            <path d="M200.58716,140.92908h0a1.40748,1.40748,0,0,1,.71673.20813l4.5998,2.78741a1.17135,1.17135,0,0,1,.557.71344.6032.6032,0,0,1-.08429.477l-15.195,21.94464-.43659-.57458-.04895-.06439-.07947-.01545-.97729-.18988-.54468-.72961-.05023-.06726-.08264-.01465-.93537-.16589-.58557-.756-.04785-.06182-.0766-.01593-1.0133-.21064-.50934-.7066-.045-.06238-.07441-.019-.94946-.24317,15.18787-21.93432a.79509.79509,0,0,1,.67462-.299m-.00006-.212a1.00493,1.00493,0,0,0-.84888.39026l-15.36133,22.18488,1.24463.31872.55756.77344,1.09393.22742.63562.82061,1.01587.18018.59375.79529,1.05774.2055.6134.80719,15.36133-22.18487a1.09347,1.09347,0,0,0-.53717-1.49243l-4.59979-2.78742a1.61068,1.61068,0,0,0-.82666-.23877Z"/>
          </g>
          <line class="cls-21" x1="185.08483" y1="163.41537" x2="200.67784" y2="140.89596"/>
          <line class="cls-22" x1="186.91077" y1="163.95265" x2="202.43628" y2="141.53072"/>
          <line class="cls-22" x1="188.56228" y1="164.95346" x2="204.08779" y2="142.53153"/>
          <line class="cls-22" x1="190.21379" y1="165.95427" x2="205.7393" y2="143.53235"/>
          <g>
            <path class="cls-20" d="M213.66785,167.34875l-1.12207-.24511-.5293-.75489-1.082-.2207-.57031-.78125-1.15625-.26562-.49317-.73145-1.1582-.32031,15.27637-22.06152a.90032.90032,0,0,1,.76171-.34473,1.512,1.512,0,0,1,.77149.22363l4.60058,2.78711a1.26027,1.26027,0,0,1,.60547.7832.70092.70092,0,0,1-.10058.55762l-15.27832,22.06543Z"/>
            <path d="M223.59467,141.729h0a1.4074,1.4074,0,0,1,.71667.20813l4.59979,2.78742a1.17135,1.17135,0,0,1,.557.71344.60325.60325,0,0,1-.08429.477l-15.195,21.94464-.43652-.57459-.04895-.06439-.07947-.01544-.97735-.18988-.54468-.72961-.05023-.06727-.08265-.01464-.93536-.1659-.58557-.756-.04785-.06183-.0766-.01593-1.01331-.21063-.50934-.70654-.045-.06238-.0744-.019-.94952-.24317L222.92,142.028a.79517.79517,0,0,1,.67463-.299m-.00013-.212a1.00469,1.00469,0,0,0-.84881.39032l-15.36139,22.18481,1.24463.31879.55755.77338,1.09394.22741.63562.82062,1.01587.18018.59375.79528,1.0578.20551.61334.80719,15.36133-22.18488a1.09347,1.09347,0,0,0-.53717-1.49243l-4.5998-2.78741a1.61037,1.61037,0,0,0-.82666-.23877Z"/>
          </g>
          <line class="cls-21" x1="208.09228" y1="164.2153" x2="223.68529" y2="141.6959"/>
          <line class="cls-22" x1="209.91822" y1="164.75258" x2="225.44373" y2="142.33066"/>
          <line class="cls-22" x1="211.56973" y1="165.75339" x2="227.09524" y2="143.33147"/>
          <line class="cls-22" x1="213.22124" y1="166.7542" x2="228.74675" y2="144.33228"/>
          <g>
            <path class="cls-23" d="M267.38562,168.63293l-1.12109-.24609-.5293-.75391-1.082-.2207-.57031-.78125-1.15625-.2666-.49317-.73145-1.15918-.31933,15.27637-22.06152a.89778.89778,0,0,1,.76172-.34473,1.51538,1.51538,0,0,1,.77246.22363l4.59961,2.78711a1.2569,1.2569,0,0,1,.60547.78125.7017.7017,0,0,1-.10059.55957L267.911,169.32336Z"/>
            <path class="cls-3" d="M277.31281,143.01294h0a1.4073,1.4073,0,0,1,.71667.20813l4.59979,2.78747a1.17129,1.17129,0,0,1,.55695.71344.60293.60293,0,0,1-.08423.477l-15.19507,21.94458-.43652-.57452-.04895-.06439-.07941-.01544-.97735-.18994-.54468-.72962-.05023-.06726-.08271-.01465-.93536-.16583-.58551-.756-.04785-.06183-.0766-.01593-1.01331-.21063-.5094-.70661-.045-.06232-.0744-.019-.94946-.24316L276.63812,143.312a.79522.79522,0,0,1,.67469-.299m-.00013-.212a1.0047,1.0047,0,0,0-.84887.39032L261.10248,165.3761l1.24457.31879.55761.77337,1.09394.22742.63556.82068,1.01593.18011.59375.79529,1.05773.20557.61335.80713,15.36139-22.18482a1.0935,1.0935,0,0,0-.53717-1.49243l-4.5998-2.78748a1.61063,1.61063,0,0,0-.82666-.23877Z"/>
          </g>
          <line class="cls-24" x1="261.8104" y1="165.49925" x2="277.40341" y2="142.97985"/>
          <line class="cls-25" x1="263.63634" y1="166.03653" x2="279.16185" y2="143.61461"/>
          <line class="cls-25" x1="265.28785" y1="167.03734" x2="280.81336" y2="144.61542"/>
          <line class="cls-25" x1="266.93936" y1="168.03815" x2="282.46486" y2="145.61623"/>
          <g>
            <path class="cls-23" d="M239.83972,167.6095l-1.12207-.2461-.5293-.7539-1.082-.22168-.57031-.78028-1.15625-.2666-.49316-.73144-1.15821-.31934,15.27637-22.06152a.89906.89906,0,0,1,.7627-.34571,1.51526,1.51526,0,0,1,.7705.22364l4.60059,2.78808a1.2611,1.2611,0,0,1,.60547.78223.70248.70248,0,0,1-.10059.55859l-15.27832,22.06446Z"/>
            <path class="cls-3" d="M249.76648,141.98938h0a1.40747,1.40747,0,0,1,.71674.20807l4.59979,2.78747a1.17109,1.17109,0,0,1,.557.71338.60341.60341,0,0,1-.08428.47705l-15.195,21.94458-.43653-.57452-.049-.06439-.07946-.01544-.97736-.18988-.54468-.72962-.05023-.06726-.08264-.01465-.93536-.16589-.58558-.756-.04785-.06183-.0766-.01593-1.0133-.21063-.50934-.70655-.045-.06238-.07441-.019-.94946-.24316,15.18793-21.93439a.79494.79494,0,0,1,.67456-.29895m-.00006-.212a1.00462,1.00462,0,0,0-.84882.39032l-15.36139,22.18488,1.24463.31872.55756.77338,1.09393.22742.63562.82068,1.01587.18017.59375.79529,1.0578.20551.61334.80712L255.73,146.296a1.09346,1.09346,0,0,0-.53717-1.49243l-4.59979-2.78748a1.61181,1.61181,0,0,0-.82666-.23877Z"/>
          </g>
          <line class="cls-24" x1="234.26416" y1="164.47565" x2="249.85717" y2="141.95624"/>
          <line class="cls-25" x1="236.0901" y1="165.01292" x2="251.61561" y2="142.591"/>
          <line class="cls-25" x1="237.74161" y1="166.01373" x2="253.26712" y2="143.59181"/>
          <line class="cls-25" x1="239.39312" y1="167.01454" x2="254.91863" y2="144.59262"/>
        </g>
        <polygon class="cls-3" points="233.631 171.424 233.832 168.052 236.585 170.083 233.631 171.424"/>
      </g>
    </g>
  </g>
</svg>
