<?xml version="1.0" encoding="UTF-8"?>
<svg id="_レイヤー_1" data-name="レイヤー 1" xmlns="http://www.w3.org/2000/svg" viewBox="0 0 600 203">
  <defs>
    <style>
      .cls-1 {
        fill: #afbcbb;
      }

      .cls-2 {
        letter-spacing: -.03em;
      }

      .cls-3 {
        fill: #eeeeef;
      }

      .cls-4 {
        letter-spacing: -.07em;
      }

      .cls-5 {
        fill: #d9c019;
      }

      .cls-6 {
        letter-spacing: .25em;
      }

      .cls-6, .cls-7, .cls-8, .cls-9, .cls-10 {
        isolation: isolate;
      }

      .cls-6, .cls-8, .cls-9, .cls-10 {
        font-family: KozGoPr6N-Regular-90ms-RKSJ-H, 'Kozuka Gothic Pr6N';
      }

      .cls-6, .cls-9 {
        font-size: 16.5px;
      }

      .cls-11 {
        fill: #020202;
      }

      .cls-12 {
        fill: #fff;
      }

      .cls-13 {
        letter-spacing: 0em;
      }

      .cls-14 {
        fill: #eae6d8;
      }

      .cls-7 {
        fill: #f7931e;
        font-family: ArialMT, Arial;
        font-size: 43.42px;
      }

      .cls-15 {
        letter-spacing: -.48em;
      }

      .cls-16 {
        fill: #f7d57f;
      }

      .cls-8 {
        font-size: 17px;
      }

      .cls-17 {
        letter-spacing: -.04em;
      }

      .cls-18 {
        letter-spacing: -.02em;
      }

      .cls-19 {
        letter-spacing: -.05em;
      }

      .cls-20 {
        stroke: #afbcbb;
      }

      .cls-20, .cls-21 {
        stroke-width: .24px;
      }

      .cls-20, .cls-21, .cls-22 {
        fill: none;
        stroke-miterlimit: 10;
      }

      .cls-23 {
        fill: #efe8cb;
      }

      .cls-21 {
        stroke: #000;
      }

      .cls-24 {
        fill: #ccc;
      }

      .cls-25 {
        letter-spacing: -.11em;
      }

      .cls-22 {
        stroke: #eeeeef;
        stroke-width: .73px;
      }

      .cls-10 {
        font-size: 31.96px;
      }

      .cls-26 {
        fill: #e1efee;
      }

      .cls-27 {
        fill: #7acecc;
      }
    </style>
  </defs>
  <line class="cls-22" x1="319.88" y1="169.49" x2="319.88" y2="173.22"/>
  <polygon class="cls-11" points="161.39 165.58 165.06 167.81 161.14 169.7 161.39 165.58"/>
  <polygon class="cls-11" points="184.43 166.38 188.11 168.61 184.19 170.5 184.43 166.38"/>
  <polygon class="cls-11" points="207.44 167.18 211.12 169.41 207.2 171.3 207.44 167.18"/>
  <polygon class="cls-1" points="261.16 168.47 264.83 170.7 260.92 172.59 261.16 168.47"/>
  <line class="cls-22" x1="171.43" y1="159.62" x2="171.18" y2="155.9"/>
  <g>
    <path class="cls-23" d="M161.59,162.77c.04-.95.85-1.68,1.79-1.63.29.01.57.1.82.25l3.57,2.16c.81.49,1.07,1.55.58,2.36-.18.29-.43.52-.74.66l-6.36,3.01.34-6.81Z"/>
    <path d="M163.32,161.29c.29,0,.56.08.81.23l3.57,2.16c.74.45.98,1.41.53,2.15-.16.26-.39.47-.67.6l-6.13,2.9.33-6.55c.04-.83.73-1.49,1.57-1.49M163.32,160.98c-1,0-1.83.78-1.88,1.78l-.35,7.07,6.6-3.12c.94-.44,1.34-1.56.89-2.5-.16-.33-.41-.61-.72-.8l-3.57-2.16c-.29-.18-.63-.27-.97-.27h0Z"/>
  </g>
  <line class="cls-22" x1="194.48" y1="160.42" x2="194.23" y2="156.7"/>
  <g>
    <path class="cls-23" d="M184.64,163.57c.04-.95.85-1.68,1.79-1.63.29.01.57.1.82.25l3.57,2.16c.81.49,1.07,1.55.58,2.36-.18.29-.43.52-.74.66l-6.36,3.01.34-6.81Z"/>
    <path d="M186.36,162.09c.29,0,.56.08.81.23l3.57,2.16c.74.45.98,1.41.53,2.15-.16.26-.39.47-.67.6l-6.13,2.9.33-6.55c.04-.83.73-1.49,1.57-1.49M186.36,161.78c-1,0-1.83.78-1.88,1.78l-.35,7.07,6.6-3.12c.94-.44,1.34-1.56.89-2.5-.16-.33-.41-.61-.72-.8l-3.57-2.16c-.29-.18-.63-.27-.97-.27Z"/>
  </g>
  <line class="cls-22" x1="217.49" y1="161.22" x2="217.23" y2="157.5"/>
  <g>
    <path class="cls-23" d="M207.65,164.37c.04-.95.85-1.68,1.79-1.63.29.01.57.1.82.25l3.57,2.16c.81.49,1.07,1.55.58,2.36-.18.29-.43.52-.74.66l-6.36,3.01.34-6.81Z"/>
    <path d="M209.37,162.89c.29,0,.56.08.81.23l3.57,2.16c.74.45.98,1.41.53,2.15-.16.26-.39.47-.67.6l-6.13,2.9.33-6.55c.04-.83.73-1.49,1.57-1.49M209.37,162.58c-1,0-1.83.78-1.88,1.78l-.35,7.07,6.6-3.12c.94-.44,1.34-1.56.89-2.5-.16-.33-.41-.61-.72-.8l-3.57-2.16c-.29-.18-.63-.27-.97-.27h0Z"/>
  </g>
  <line class="cls-22" x1="271.21" y1="162.51" x2="270.95" y2="158.78"/>
  <g>
    <path class="cls-14" d="M261.37,165.66c.04-.95.85-1.68,1.79-1.63.29.01.57.1.82.25l3.57,2.16c.81.49,1.07,1.55.58,2.36-.18.29-.43.52-.74.66l-6.36,3.01.34-6.81Z"/>
    <path class="cls-1" d="M263.09,164.17c.29,0,.56.08.81.23l3.57,2.16c.74.45.98,1.41.53,2.15-.16.26-.39.47-.67.6l-6.13,2.9.33-6.55c.04-.83.73-1.49,1.57-1.49M263.09,163.86c-1,0-1.83.78-1.88,1.78l-.35,7.07,6.6-3.12c.94-.44,1.34-1.56.89-2.5-.16-.33-.41-.61-.72-.8l-3.57-2.16c-.29-.18-.63-.27-.97-.27h0Z"/>
  </g>
  <polygon class="cls-11" points="161.38 169.68 161.58 166.3 164.33 168.34 161.38 169.68"/>
  <polygon class="cls-11" points="184.36 170.2 184.56 166.83 187.31 168.86 184.36 170.2"/>
  <polygon class="cls-11" points="207.18 171.12 207.38 167.75 210.13 169.78 207.18 171.12"/>
  <polygon class="cls-1" points="261.18 172.45 261.38 169.08 264.13 171.11 261.18 172.45"/>
  <path class="cls-24" d="M571.03.68c15.61.02,28.27,12.67,28.28,28.28v145.06c-.02,15.61-12.67,28.27-28.28,28.28H28.97c-15.61-.02-28.27-12.67-28.28-28.28V28.97C.7,13.35,13.35.7,28.97.68h542.06M571.03,0H28.97C12.97,0,0,12.97,0,28.97c0,0,0,0,0,0v145.06c0,16,12.97,28.97,28.97,28.97h542.06c16,0,28.97-12.97,28.97-28.97h0V28.97C600,12.97,587.03,0,571.03,0Z"/>
  <text class="cls-9" transform="translate(38.45 160.94) scale(1.02 1)"><tspan x="0" y="0">習</tspan><tspan class="cls-4" x="16.5" y="0">得</tspan><tspan class="cls-13" x="31.84" y="0">レ</tspan><tspan x="48.5" y="0">ベ</tspan></text>
  <text class="cls-6" transform="translate(106.02 160.94) scale(1.02 1)"><tspan x="0" y="0">ル</tspan></text>
  <text class="cls-9" transform="translate(127.13 160.94) scale(1.02 1)"><tspan x="0" y="0">:　</tspan></text>
  <text class="cls-7" transform="translate(55.42 74.09) scale(1.1 1)"><tspan x="0" y="0">Ai</tspan></text>
  <text class="cls-10" transform="translate(135.86 57.34) scale(1.02 1)"><tspan x="0" y="0">Javascript</tspan></text>
  <text class="cls-8" transform="translate(138.58 88.56) scale(1.02 1)"><tspan x="0" y="0">初歩的な組み</tspan><tspan class="cls-2" x="102" y="0">立</tspan><tspan class="cls-19" x="118.49" y="0">て</tspan><tspan x="134.64" y="0">は出</tspan><tspan class="cls-17" x="168.64" y="0">来ま</tspan><tspan class="cls-25" x="201.28" y="0">す</tspan><tspan class="cls-15" x="216.41" y="0">。</tspan><tspan x="225.25" y="0">jQuery実装</tspan><tspan class="cls-18" x="309.74" y="0">可</tspan><tspan class="cls-15" x="326.4" y="0">。</tspan></text>
  <polygon class="cls-5" points="38.35 21.48 116.18 21.48 109.53 93.12 77.27 101.48 45.33 93.72 38.35 21.48"/>
  <polygon class="cls-16" points="77.27 27.75 108.87 27.75 102.88 89.24 77.27 95.21 77.27 27.75"/>
  <polygon class="cls-3" points="61.97 35.4 71.94 35.4 71.94 85.35 51.99 80.97 51.99 71.62 61.97 73.81 61.97 35.4"/>
  <polygon class="cls-12" points="91.46 73.41 81.04 76.39 81.04 85.35 101.21 80.57 103.88 52.91 91.46 52.91 91.46 44.55 104.76 44.55 105.65 35.4 81.04 35.4 81.04 62.26 92.35 62.46 91.46 73.41"/>
  <path class="cls-27" d="M167.61,165.75l-1.12-.25-.53-.75-1.08-.22-.57-.78-1.16-.27-.49-.73-1.16-.32,15.28-22.06c.18-.23.47-.36.76-.35.27,0,.54.08.77.22l4.6,2.79c.3.17.52.45.61.78.05.19.01.4-.1.56l-15.28,22.06-.53-.69Z"/>
  <path d="M177.54,140.13h0c.25,0,.5.08.72.21l4.6,2.79c.27.15.47.41.56.71.04.16,0,.34-.08.48l-15.2,21.94-.44-.57-.05-.06-.08-.02-.98-.19-.54-.73-.05-.07h-.08s-.94-.18-.94-.18l-.59-.76-.05-.06-.08-.02-1.01-.21-.51-.71-.04-.06-.07-.02-.95-.24,15.19-21.93c.16-.2.41-.32.67-.3M177.54,139.92c-.33-.02-.65.13-.85.39l-15.36,22.18,1.24.32.56.77,1.09.23.64.82,1.02.18.59.8,1.06.21.61.81,15.36-22.18c.27-.54.05-1.2-.49-1.47-.02,0-.03-.02-.05-.02l-4.6-2.79c-.25-.15-.53-.24-.83-.24h0Z"/>
  <line class="cls-21" x1="162.04" y1="162.61" x2="177.63" y2="140.09"/>
  <line class="cls-21" x1="163.86" y1="163.15" x2="179.39" y2="140.73"/>
  <line class="cls-21" x1="165.52" y1="164.15" x2="181.04" y2="141.73"/>
  <line class="cls-21" x1="167.17" y1="165.15" x2="182.69" y2="142.73"/>
  <path class="cls-27" d="M190.66,166.55l-1.12-.25-.53-.75-1.08-.22-.57-.78-1.16-.27-.49-.73-1.16-.32,15.28-22.06c.18-.23.47-.36.76-.34.27,0,.54.08.77.22l4.6,2.79c.3.17.52.45.61.78.05.19.01.4-.1.56l-15.28,22.07-.53-.69Z"/>
  <path d="M200.59,140.93h0c.25,0,.5.08.72.21l4.6,2.79c.27.15.47.41.56.71.04.16,0,.34-.08.48l-15.2,21.94-.44-.57-.05-.06-.08-.02-.98-.19-.54-.73-.05-.07h-.08s-.94-.18-.94-.18l-.59-.76-.05-.06-.08-.02-1.01-.21-.51-.71-.04-.06-.07-.02-.95-.24,15.19-21.93c.16-.2.41-.32.67-.3M200.59,140.72c-.33-.02-.65.13-.85.39l-15.36,22.18,1.24.32.56.77,1.09.23.64.82,1.02.18.59.8,1.06.21.61.81,15.36-22.18c.27-.54.05-1.2-.49-1.47-.02,0-.03-.02-.05-.02l-4.6-2.79c-.25-.15-.53-.24-.83-.24h0Z"/>
  <line class="cls-21" x1="185.08" y1="163.42" x2="200.68" y2="140.9"/>
  <line class="cls-21" x1="186.91" y1="163.95" x2="202.44" y2="141.53"/>
  <line class="cls-21" x1="188.56" y1="164.95" x2="204.09" y2="142.53"/>
  <line class="cls-21" x1="190.21" y1="165.95" x2="205.74" y2="143.53"/>
  <path class="cls-27" d="M213.67,167.35l-1.12-.25-.53-.75-1.08-.22-.57-.78-1.16-.27-.49-.73-1.16-.32,15.28-22.06c.18-.23.47-.36.76-.34.27,0,.54.08.77.22l4.6,2.79c.3.17.52.45.61.78.05.19,0,.39-.1.56l-15.28,22.07-.53-.69Z"/>
  <path d="M223.59,141.73h0c.25,0,.5.08.72.21l4.6,2.79c.27.15.47.41.56.71.04.16,0,.34-.08.48l-15.2,21.94-.44-.57-.05-.06-.08-.02-.98-.19-.54-.73-.05-.07h-.08s-.94-.18-.94-.18l-.59-.76-.05-.06-.08-.02-1.01-.21-.51-.71-.04-.06-.07-.02-.95-.24,15.19-21.93c.16-.2.41-.32.67-.3M223.59,141.52c-.33-.02-.65.13-.85.39l-15.36,22.18,1.24.32.56.77,1.09.23.64.82,1.02.18.59.8,1.06.21.61.81,15.36-22.18c.27-.54.05-1.2-.49-1.47-.02,0-.03-.02-.05-.02l-4.6-2.79c-.25-.15-.53-.24-.83-.24h0Z"/>
  <line class="cls-21" x1="208.09" y1="164.22" x2="223.69" y2="141.7"/>
  <line class="cls-21" x1="209.92" y1="164.75" x2="225.44" y2="142.33"/>
  <line class="cls-21" x1="211.57" y1="165.75" x2="227.1" y2="143.33"/>
  <line class="cls-21" x1="213.22" y1="166.75" x2="228.75" y2="144.33"/>
  <polygon class="cls-11" points="232.97 167.18 236.65 169.41 232.73 171.3 232.97 167.18"/>
  <line class="cls-22" x1="243.02" y1="161.22" x2="242.76" y2="157.5"/>
  <g>
    <path class="cls-23" d="M233.18,164.37c.04-.95.85-1.68,1.79-1.63.29.01.57.1.82.25l3.57,2.16c.81.49,1.07,1.55.58,2.36-.18.29-.43.52-.74.66l-6.36,3.01.34-6.81Z"/>
    <path d="M234.9,162.89c.29,0,.56.08.81.23l3.57,2.16c.74.45.98,1.41.53,2.15-.16.26-.39.47-.67.6l-6.13,2.9.33-6.55c.04-.83.73-1.49,1.57-1.49M234.9,162.58c-1,0-1.83.78-1.88,1.78l-.35,7.07,6.6-3.12c.94-.44,1.34-1.56.89-2.5-.16-.33-.41-.61-.72-.8l-3.57-2.16c-.29-.18-.63-.27-.97-.27h0Z"/>
  </g>
  <polygon class="cls-11" points="232.71 171.12 232.91 167.75 235.66 169.78 232.71 171.12"/>
  <path class="cls-27" d="M239.2,167.35l-1.12-.25-.53-.75-1.08-.22-.57-.78-1.16-.27-.49-.73-1.16-.32,15.28-22.06c.18-.23.47-.36.76-.34.27,0,.54.08.77.22l4.6,2.79c.3.17.52.45.61.78.05.19,0,.39-.1.56l-15.28,22.07-.53-.69Z"/>
  <path d="M249.13,141.73h0c.25,0,.5.08.72.21l4.6,2.79c.27.15.47.41.56.71.04.16,0,.34-.08.48l-15.2,21.94-.44-.57-.05-.06-.08-.02-.98-.19-.54-.73-.05-.07h-.08s-.94-.18-.94-.18l-.59-.76-.05-.06-.08-.02-1.01-.21-.51-.71-.04-.06-.07-.02-.95-.24,15.19-21.93c.16-.2.41-.32.67-.3M249.13,141.52c-.33-.02-.65.13-.85.39l-15.36,22.18,1.24.32.56.77,1.09.23.64.82,1.02.18.59.8,1.06.21.61.81,15.36-22.18c.27-.54.05-1.2-.49-1.47-.02,0-.03-.02-.05-.02l-4.6-2.79c-.25-.15-.53-.24-.83-.24h0Z"/>
  <line class="cls-21" x1="233.62" y1="164.22" x2="249.22" y2="141.7"/>
  <line class="cls-21" x1="235.45" y1="164.75" x2="250.97" y2="142.33"/>
  <line class="cls-21" x1="237.1" y1="165.75" x2="252.63" y2="143.33"/>
  <line class="cls-21" x1="238.75" y1="166.75" x2="254.28" y2="144.33"/>
  <path class="cls-26" d="M267.39,168.63l-1.12-.25-.53-.75-1.08-.22-.57-.78-1.16-.27-.49-.73-1.16-.32,15.28-22.06c.18-.23.47-.36.76-.34.27,0,.54.08.77.22l4.6,2.79c.3.17.52.45.61.78.05.19.01.4-.1.56l-15.28,22.06-.53-.69Z"/>
  <path class="cls-1" d="M277.31,143.01h0c.25,0,.5.08.72.21l4.6,2.79c.27.15.47.41.56.71.04.16,0,.34-.08.48l-15.2,21.94-.44-.57-.05-.06-.08-.02-.98-.19-.54-.73-.05-.07h-.08s-.94-.18-.94-.18l-.59-.76-.05-.06-.08-.02-1.01-.21-.51-.71-.05-.06-.07-.02-.95-.24,15.19-21.93c.16-.2.41-.32.67-.3M277.31,142.8c-.33-.02-.65.13-.85.39l-15.36,22.18,1.24.32.56.77,1.09.23.64.82,1.02.18.59.8,1.06.21.61.81,15.36-22.18c.27-.54.05-1.2-.49-1.47-.02,0-.03-.02-.05-.02l-4.6-2.79c-.25-.15-.53-.24-.83-.24h0Z"/>
  <line class="cls-20" x1="261.81" y1="165.5" x2="277.4" y2="142.98"/>
  <line class="cls-20" x1="263.64" y1="166.04" x2="279.16" y2="143.61"/>
  <line class="cls-20" x1="265.29" y1="167.04" x2="280.81" y2="144.62"/>
  <line class="cls-20" x1="266.94" y1="168.04" x2="282.46" y2="145.62"/>
</svg>