<?xml version="1.0" encoding="UTF-8"?>
<svg id="_レイヤー_1" data-name="レイヤー 1" xmlns="http://www.w3.org/2000/svg" viewBox="0 0 600 203">
  <defs>
    <style>
      .cls-1 {
        letter-spacing: -.03em;
      }

      .cls-2 {
        letter-spacing: -.08em;
      }

      .cls-3 {
        letter-spacing: -.11em;
      }

      .cls-4 {
        letter-spacing: -.07em;
      }

      .cls-5 {
        letter-spacing: -.48em;
      }

      .cls-6 {
        letter-spacing: .25em;
      }

      .cls-6, .cls-7, .cls-8, .cls-9, .cls-10, .cls-11 {
        isolation: isolate;
      }

      .cls-6, .cls-7, .cls-10, .cls-11 {
        font-family: KozGoPr6N-Regular-90ms-RKSJ-H, 'Kozuka Gothic Pr6N';
      }

      .cls-6, .cls-10 {
        font-size: 16.5px;
      }

      .cls-12 {
        fill: #020202;
      }

      .cls-7 {
        font-size: 18.65px;
      }

      .cls-13 {
        letter-spacing: 0em;
      }

      .cls-8 {
        fill: #f7931e;
        font-family: ArialMT, Arial;
        font-size: 43.42px;
      }

      .cls-14 {
        letter-spacing: -.02em;
      }

      .cls-9 {
        fill: #33b1e7;
        font-family: DNPShueiNShogoMinStd-Hv-90ms-RKSJ-H, DNPShueiNShogoMinStd;
        font-size: 44.23px;
      }

      .cls-15 {
        fill: #603813;
      }

      .cls-16 {
        letter-spacing: 0em;
      }

      .cls-17 {
        letter-spacing: 0em;
      }

      .cls-18 {
        fill: #efe8cb;
      }

      .cls-19 {
        stroke: #000;
        stroke-width: .24px;
      }

      .cls-19, .cls-20 {
        fill: none;
        stroke-miterlimit: 10;
      }

      .cls-21 {
        fill: #ccc;
      }

      .cls-22 {
        letter-spacing: -.04em;
      }

      .cls-23 {
        letter-spacing: -.48em;
      }

      .cls-20 {
        stroke: #eeeeef;
        stroke-width: .73px;
      }

      .cls-24 {
        fill: #1d2b55;
      }

      .cls-11 {
        font-size: 31.96px;
      }

      .cls-25 {
        fill: #7acecc;
      }
    </style>
  </defs>
  <path class="cls-21" d="M571.03.68c15.61.02,28.27,12.67,28.28,28.28v145.06c-.02,15.61-12.67,28.27-28.28,28.28H28.97c-15.61-.02-28.27-12.67-28.28-28.28V28.97C.7,13.35,13.35.7,28.97.68h542.06M571.03,0H28.97C12.97,0,0,12.97,0,28.97v145.06c0,16,12.97,28.97,28.97,28.97h542.06c16,0,28.97-12.97,28.97-28.97V28.97C600,12.97,587.03,0,571.03,0Z"/>
  <text class="cls-10" transform="translate(38.45 164.94) scale(1.02 1)"><tspan x="0" y="0">習</tspan><tspan class="cls-4" x="16.5" y="0">得</tspan><tspan class="cls-13" x="31.84" y="0">レ</tspan><tspan x="48.5" y="0">ベ</tspan></text>
  <text class="cls-6" transform="translate(106.02 164.94) scale(1.02 1)"><tspan x="0" y="0">ル</tspan></text>
  <text class="cls-10" transform="translate(127.13 164.94) scale(1.02 1)"><tspan x="0" y="0">:　</tspan></text>
  <path class="cls-15" d="M95.75,25.56h-34.98c-11.4-.13-20.76,9-20.89,20.41v34.17c.14,11.4,9.49,20.54,20.89,20.41h34.98c11.4.13,20.76-9,20.89-20.41v-34.17c-.14-11.4-9.49-20.54-20.89-20.41Z"/>
  <text class="cls-8" transform="translate(55.42 78.09) scale(1.1 1)"><tspan x="0" y="0">Ai</tspan></text>
  <text class="cls-11" transform="translate(135.86 61.34) scale(1.02 1)"><tspan x="0" y="0">Photoshop</tspan></text>
  <text class="cls-7" transform="translate(135.99 101.48) scale(1.02 1)"><tspan x="0" y="0">画像加</tspan><tspan class="cls-14" x="55.95" y="0">工</tspan><tspan class="cls-5" x="74.23" y="0">、</tspan><tspan class="cls-16" x="83.93" y="0">合</tspan><tspan class="cls-14" x="102.58" y="0">成</tspan><tspan class="cls-5" x="120.85" y="0">、</tspan><tspan x="130.55" y="0" xml:space="preserve"> 写真補正</tspan><tspan class="cls-1" x="209.5" y="0">等</tspan><tspan class="cls-14" x="227.59" y="0">で</tspan><tspan class="cls-2" x="245.87" y="0">き</tspan><tspan class="cls-22" x="263.02" y="0">ま</tspan><tspan class="cls-3" x="280.93" y="0">す</tspan><tspan class="cls-23" x="297.53" y="0">。</tspan><tspan class="cls-17" x="307.23" y="0" xml:space="preserve">              </tspan></text>
  <path class="cls-24" d="M59.82,23.48h35.54c11.72,0,21.23,9.5,21.23,21.23h0v35.54c0,11.72-9.5,21.23-21.23,21.23h-35.54c-11.72,0-21.23-9.5-21.23-21.23v-35.54c0-11.72,9.5-21.23,21.23-21.23h0Z"/>
  <text class="cls-9" transform="translate(54.17 77.89)"><tspan x="0" y="0">Ps</tspan></text>
  <polygon class="cls-12" points="163.95 165.79 167.62 168.01 163.7 169.91 163.95 165.79"/>
  <polygon class="cls-12" points="186.99 166.59 190.67 168.82 186.75 170.71 186.99 166.59"/>
  <polygon class="cls-12" points="210 167.39 213.68 169.62 209.76 171.51 210 167.39"/>
  <line class="cls-20" x1="174" y1="159.83" x2="173.74" y2="156.1"/>
  <path class="cls-18" d="M164.16,162.98c.04-.95.85-1.68,1.79-1.63.29.01.57.1.81.25l3.57,2.16c.81.49,1.07,1.55.58,2.36-.18.29-.43.52-.74.66l-6.36,3.01.34-6.81Z"/>
  <path d="M165.88,161.49c.29,0,.56.08.81.23l3.57,2.16c.74.45.98,1.41.53,2.15-.16.26-.39.47-.67.6l-6.13,2.9.33-6.55c.04-.83.73-1.49,1.57-1.49M165.88,161.18c-1,0-1.83.78-1.88,1.78l-.35,7.07,6.6-3.12c.94-.44,1.34-1.56.89-2.5-.16-.33-.41-.61-.72-.8l-3.57-2.16c-.29-.18-.63-.27-.97-.27h0Z"/>
  <path class="cls-25" d="M170.17,165.95l-1.12-.25-.53-.75-1.08-.22-.57-.78-1.16-.27-.49-.73-1.16-.32,15.28-22.06c.18-.23.47-.36.76-.35.27,0,.54.08.77.22l4.6,2.79c.3.17.52.45.61.78.05.19,0,.39-.1.56l-15.28,22.06-.53-.69Z"/>
  <path d="M180.1,140.33h0c.25,0,.5.08.72.21l4.6,2.79c.27.15.47.41.56.71.04.16,0,.34-.08.48l-15.2,21.94-.44-.57-.05-.06-.08-.02-.98-.19-.54-.73-.05-.07h-.08s-.94-.18-.94-.18l-.59-.76-.05-.06-.08-.02-1.01-.21-.51-.71-.04-.06-.07-.02-.95-.24,15.19-21.93c.16-.2.41-.32.67-.3M180.1,140.12c-.33-.02-.65.13-.85.39l-15.36,22.18,1.24.32.56.77,1.09.23.64.82,1.02.18.59.8,1.06.21.61.81,15.36-22.18c.27-.54.05-1.2-.49-1.47-.02,0-.03-.02-.05-.02l-4.6-2.79c-.25-.15-.53-.24-.83-.24h0Z"/>
  <line class="cls-19" x1="164.6" y1="162.82" x2="180.19" y2="140.3"/>
  <line class="cls-19" x1="166.43" y1="163.36" x2="181.95" y2="140.93"/>
  <line class="cls-19" x1="168.08" y1="164.36" x2="183.6" y2="141.94"/>
  <line class="cls-19" x1="169.73" y1="165.36" x2="185.25" y2="142.94"/>
  <line class="cls-20" x1="197.04" y1="160.63" x2="196.79" y2="156.9"/>
  <path class="cls-18" d="M187.2,163.78c.04-.95.85-1.68,1.79-1.63.29.01.57.1.81.25l3.57,2.16c.81.49,1.07,1.55.58,2.36-.18.29-.43.52-.74.66l-6.36,3.01.34-6.81Z"/>
  <path d="M188.92,162.3c.29,0,.56.08.81.23l3.57,2.16c.74.45.98,1.41.53,2.15-.16.26-.39.47-.67.6l-6.13,2.9.33-6.55c.04-.83.73-1.49,1.57-1.49M188.92,161.99c-1,0-1.83.78-1.88,1.78l-.35,7.07,6.6-3.12c.94-.44,1.34-1.56.89-2.5-.16-.33-.41-.61-.72-.8l-3.57-2.16c-.29-.18-.63-.27-.97-.27h0Z"/>
  <path class="cls-25" d="M193.22,166.75l-1.12-.25-.53-.75-1.08-.22-.57-.78-1.16-.27-.49-.73-1.16-.32,15.28-22.06c.18-.23.47-.36.76-.34.27,0,.54.08.77.22l4.6,2.79c.3.17.52.45.61.78.05.19,0,.39-.1.56l-15.28,22.06-.53-.69Z"/>
  <path d="M203.15,141.13h0c.25,0,.5.08.72.21l4.6,2.79c.27.15.47.41.56.71.04.16,0,.34-.08.48l-15.2,21.94-.44-.57-.05-.06-.08-.02-.98-.19-.54-.73-.05-.07h-.08s-.94-.18-.94-.18l-.59-.76-.05-.06-.08-.02-1.01-.21-.51-.71-.04-.06-.07-.02-.95-.24,15.19-21.93c.16-.2.41-.32.67-.3M203.15,140.92c-.33-.02-.65.13-.85.39l-15.36,22.18,1.24.32.56.77,1.09.23.64.82,1.02.18.59.8,1.06.21.61.81,15.36-22.18c.27-.54.05-1.2-.49-1.47-.02,0-.03-.02-.05-.02l-4.6-2.79c-.25-.15-.53-.24-.83-.24Z"/>
  <line class="cls-19" x1="187.65" y1="163.62" x2="203.24" y2="141.1"/>
  <line class="cls-19" x1="189.47" y1="164.16" x2="205" y2="141.74"/>
  <line class="cls-19" x1="191.12" y1="165.16" x2="206.65" y2="142.74"/>
  <line class="cls-19" x1="192.78" y1="166.16" x2="208.3" y2="143.74"/>
  <line class="cls-20" x1="220.05" y1="161.43" x2="219.79" y2="157.7"/>
  <path class="cls-18" d="M210.21,164.58c.04-.95.85-1.68,1.79-1.63.29.01.57.1.81.25l3.57,2.16c.81.49,1.07,1.55.58,2.36-.17.29-.43.52-.74.66l-6.36,3.01.34-6.81Z"/>
  <path d="M211.93,163.1c.29,0,.56.08.81.23l3.57,2.16c.74.45.98,1.41.53,2.15-.16.26-.39.47-.67.6l-6.13,2.9.33-6.55c.04-.83.73-1.49,1.57-1.49M211.93,162.79c-1,0-1.83.78-1.88,1.78l-.35,7.07,6.6-3.12c.94-.44,1.34-1.56.89-2.5-.16-.33-.41-.61-.72-.8l-3.57-2.16c-.29-.18-.63-.27-.97-.27h0Z"/>
  <path class="cls-25" d="M216.23,167.56l-1.12-.25-.53-.75-1.08-.22-.57-.78-1.16-.27-.49-.73-1.16-.32,15.28-22.06c.18-.23.47-.36.76-.34.27,0,.54.08.77.22l4.6,2.79c.3.17.52.45.61.78.05.19.01.4-.1.56l-15.28,22.06-.53-.69Z"/>
  <path d="M226.16,141.93h0c.25,0,.5.08.72.21l4.6,2.79c.27.15.47.41.56.71.04.16,0,.34-.08.48l-15.2,21.94-.44-.57-.05-.06-.08-.02-.98-.19-.54-.73-.05-.07h-.08s-.94-.18-.94-.18l-.59-.76-.05-.06-.08-.02-1.01-.21-.51-.71-.04-.06-.07-.02-.95-.24,15.19-21.93c.16-.2.41-.32.67-.3M226.16,141.72c-.33-.02-.65.13-.85.39l-15.36,22.18,1.24.32.56.77,1.09.23.64.82,1.02.18.59.8,1.06.21.61.81,15.36-22.18c.27-.54.05-1.2-.49-1.47-.02,0-.03-.02-.05-.02l-4.6-2.79c-.25-.15-.53-.24-.83-.24h0Z"/>
  <line class="cls-19" x1="210.65" y1="164.42" x2="226.25" y2="141.9"/>
  <line class="cls-19" x1="212.48" y1="164.96" x2="228" y2="142.54"/>
  <line class="cls-19" x1="214.13" y1="165.96" x2="229.66" y2="143.54"/>
  <line class="cls-19" x1="215.78" y1="166.96" x2="231.31" y2="144.54"/>
  <polygon class="cls-12" points="163.94 169.88 164.14 166.51 166.9 168.54 163.94 169.88"/>
  <polygon class="cls-12" points="186.92 170.41 187.12 167.04 189.87 169.07 186.92 170.41"/>
  <polygon class="cls-12" points="209.74 171.33 209.94 167.95 212.69 169.99 209.74 171.33"/>
  <polygon class="cls-12" points="235.88 166.59 239.56 168.82 235.64 170.71 235.88 166.59"/>
  <polygon class="cls-12" points="258.89 167.39 262.57 169.62 258.65 171.51 258.89 167.39"/>
  <line class="cls-20" x1="245.93" y1="160.63" x2="245.68" y2="156.9"/>
  <path class="cls-18" d="M236.09,163.78c.04-.95.85-1.68,1.79-1.63.29.01.57.1.81.25l3.57,2.16c.81.49,1.07,1.55.58,2.36-.18.29-.43.52-.74.66l-6.36,3.01.34-6.81Z"/>
  <path d="M237.81,162.3c.29,0,.56.08.81.23l3.57,2.16c.74.45.98,1.41.53,2.15-.16.26-.39.47-.67.6l-6.13,2.9.33-6.55c.04-.83.73-1.49,1.57-1.49M237.81,161.99c-1,0-1.83.78-1.88,1.78l-.35,7.07,6.6-3.12c.94-.44,1.34-1.56.89-2.5-.16-.33-.41-.61-.72-.8l-3.57-2.16c-.29-.18-.63-.27-.97-.27h0Z"/>
  <path class="cls-25" d="M242.11,166.75l-1.12-.25-.53-.75-1.08-.22-.57-.78-1.16-.27-.49-.73-1.16-.32,15.28-22.06c.18-.23.47-.36.76-.34.27,0,.54.08.77.22l4.6,2.79c.3.17.52.45.61.78.05.19,0,.39-.1.56l-15.28,22.06-.53-.69Z"/>
  <path d="M252.04,141.13h0c.25,0,.5.08.72.21l4.6,2.79c.27.15.47.41.56.71.04.16,0,.34-.08.48l-15.2,21.94-.44-.57-.05-.06-.08-.02-.98-.19-.54-.73-.05-.07h-.08s-.94-.18-.94-.18l-.59-.76-.05-.06-.08-.02-1.01-.21-.51-.71-.04-.06-.07-.02-.95-.24,15.19-21.93c.16-.2.41-.32.67-.3M252.04,140.92c-.33-.02-.65.13-.85.39l-15.36,22.18,1.24.32.56.77,1.09.23.64.82,1.02.18.59.8,1.06.21.61.81,15.36-22.18c.27-.54.05-1.2-.49-1.47-.02,0-.03-.02-.05-.02l-4.6-2.79c-.25-.15-.53-.24-.83-.24Z"/>
  <line class="cls-19" x1="236.54" y1="163.62" x2="252.13" y2="141.1"/>
  <line class="cls-19" x1="238.36" y1="164.16" x2="253.89" y2="141.74"/>
  <line class="cls-19" x1="241.66" y1="166.16" x2="257.19" y2="143.74"/>
  <line class="cls-20" x1="268.94" y1="161.43" x2="268.68" y2="157.7"/>
  <path class="cls-18" d="M259.1,164.58c.04-.95.85-1.68,1.79-1.63.29.01.57.1.81.25l3.57,2.16c.81.49,1.07,1.55.58,2.36-.17.29-.43.52-.74.66l-6.36,3.01.34-6.81Z"/>
  <path d="M260.82,163.1c.29,0,.56.08.81.23l3.57,2.16c.74.45.98,1.41.53,2.15-.16.26-.39.47-.67.6l-6.13,2.9.33-6.55c.04-.83.73-1.49,1.57-1.49M260.82,162.79c-1,0-1.83.78-1.88,1.78l-.35,7.07,6.6-3.12c.94-.44,1.34-1.56.89-2.5-.16-.33-.41-.61-.72-.8l-3.57-2.16c-.29-.18-.63-.27-.97-.27h0Z"/>
  <path class="cls-25" d="M265.12,167.56l-1.12-.25-.53-.75-1.08-.22-.57-.78-1.16-.27-.49-.73-1.16-.32,15.28-22.06c.18-.23.47-.36.76-.34.27,0,.54.08.77.22l4.6,2.79c.3.17.52.45.61.78.05.19.01.4-.1.56l-15.28,22.06-.53-.69Z"/>
  <path d="M275.05,141.93h0c.25,0,.5.08.72.21l4.6,2.79c.27.15.47.41.56.71.04.16,0,.34-.08.48l-15.2,21.94-.44-.57-.05-.06-.08-.02-.98-.19-.54-.73-.05-.07h-.08s-.94-.18-.94-.18l-.59-.76-.05-.06-.08-.02-1.01-.21-.51-.71-.04-.06-.07-.02-.95-.24,15.19-21.93c.16-.2.41-.32.67-.3M275.05,141.72c-.33-.02-.65.13-.85.39l-15.36,22.18,1.24.32.56.77,1.09.23.64.82,1.02.18.59.8,1.06.21.61.81,15.36-22.18c.27-.54.05-1.2-.49-1.47-.02,0-.03-.02-.05-.02l-4.6-2.79c-.25-.15-.53-.24-.83-.24h0Z"/>
  <line class="cls-19" x1="259.54" y1="164.42" x2="275.14" y2="141.9"/>
  <line class="cls-19" x1="261.37" y1="164.96" x2="276.89" y2="142.54"/>
  <line class="cls-19" x1="263.02" y1="165.96" x2="278.55" y2="143.54"/>
  <line class="cls-19" x1="264.67" y1="166.96" x2="280.2" y2="144.54"/>
  <polygon class="cls-12" points="235.81 170.41 236.01 167.04 238.76 169.07 235.81 170.41"/>
  <polygon class="cls-12" points="258.63 171.33 258.83 167.95 261.58 169.99 258.63 171.33"/>
</svg>