<svg xmlns="http://www.w3.org/2000/svg" viewBox="0 0 600 211.66547">
  <defs>
    <style>
      .cls-1 {
        fill: #ccc;
      }

      .cls-2, .cls-8 {
        font-size: 16.49823px;
      }

      .cls-2, .cls-7, .cls-8 {
        font-family: KozGoPr6N-Regular-83pv-RKSJ-H, Kozuka Gothic Pr6N;
      }

      .cls-3 {
        letter-spacing: 0.24999em;
      }

      .cls-4 {
        fill: #603813;
      }

      .cls-5 {
        font-size: 43.42299px;
        fill: #f7931e;
        font-family: UDDigiKyokashoNK-B, UDDigiKyokashoNK B;
      }

      .cls-6 {
        font-size: 31.96358px;
        font-family: KozGoPr6N-Bold-83pv-RKSJ-H, Kozuka Gothic Pr6N;
      }

      .cls-7 {
        font-size: 18.65018px;
      }

      .cls-8 {
        letter-spacing: 0.23901em;
      }

      .cls-9 {
        letter-spacing: 0.489em;
      }

      .cls-10 {
        fill: #1d2b55;
      }

      .cls-11 {
        font-size: 44.23296px;
        fill: #33b1e7;
        font-family: DNPShueiNShogoMinStd-Hv-83pv-RKSJ-H, DNPShueiNShogoMinStd;
      }

      .cls-12 {
        fill: #020202;
      }

      .cls-13 {
        fill: #afbcbb;
      }

      .cls-14, .cls-18, .cls-22 {
        fill: none;
      }

      .cls-14 {
        stroke: #eeeeef;
        stroke-width: 0.7258px;
      }

      .cls-14, .cls-17, .cls-18, .cls-21, .cls-22 {
        stroke-miterlimit: 10;
      }

      .cls-15 {
        fill: #efe8cb;
      }

      .cls-16 {
        fill: #7acecc;
      }

      .cls-17, .cls-21 {
        fill: #fff;
      }

      .cls-17, .cls-18 {
        stroke: #000;
      }

      .cls-17, .cls-18, .cls-21, .cls-22 {
        stroke-width: 0.23904px;
      }

      .cls-19 {
        fill: #eae6d8;
      }

      .cls-20 {
        fill: #e1efee;
      }

      .cls-21, .cls-22 {
        stroke: #afbcbb;
      }
    </style>
  </defs>
  <g id="レイヤー_2" data-name="レイヤー 2">
    <g id="レイヤー_1-2" data-name="レイヤー 1">
      <g>
        <path class="cls-1" d="M571.032,9.34993a28.31566,28.31566,0,0,1,28.28357,28.28361V182.69739A28.31568,28.31568,0,0,1,571.032,210.981H28.96808A28.31569,28.31569,0,0,1,.68445,182.69739V37.63354A28.31567,28.31567,0,0,1,28.96808,9.34993H571.032m0-.68446H28.96808A28.9681,28.9681,0,0,0,0,37.63354V182.69739a28.9681,28.9681,0,0,0,28.96808,28.96808H571.032A28.96809,28.96809,0,0,0,600,182.69739V37.63354A28.96809,28.96809,0,0,0,571.032,8.66547Z"/>
        <text class="cls-2" transform="translate(38.45363 173.60272) scale(1.02381 1)">習得レベ<tspan class="cls-3" x="65.99315" y="0">ル</tspan><tspan x="86.6159" y="0">:　</tspan></text>
        <path class="cls-4" d="M95.75154,34.22643h-34.984a20.65445,20.65445,0,0,0-20.8931,20.40719V88.80426a20.65444,20.65444,0,0,0,20.8931,20.40718h34.984A20.6545,20.6545,0,0,0,116.6449,88.80426V54.63362A20.65451,20.65451,0,0,0,95.75154,34.22643Z"/>
        <text class="cls-5" transform="translate(55.4214 86.75311) scale(1.10286 1)">Ai</text>
        <text class="cls-6" transform="translate(135.8633 70.00214) scale(1.02381 1)"><tspan xml:space="preserve">Photoshop  ver. CC2022</tspan></text>
        <text/>        <text class="cls-7" transform="translate(138.58205 101.22968) scale(1.02381 1)"><tspan xml:space="preserve">画像加工・合成など基本的な作業が行えます               </tspan></text>
        <text class="cls-8" transform="translate(39.67336 137.966) scale(1.02381 1)">授業時<tspan class="cls-9" x="61.32405" y="0">間</tspan><tspan x="85.89001" y="0">:</tspan></text>
        <text class="cls-7" transform="translate(142.58156 140.02753) scale(1.02381 1)">　50 hrs</text>
        <text/>        <text/>        <text/>        <path class="cls-10" d="M59.81857,32.14506H95.36314a21.228,21.228,0,0,1,21.228,21.228v35.5443a21.22771,21.22771,0,0,1-21.22771,21.22771H59.81884a21.228,21.228,0,0,1-21.228-21.228V53.37278A21.22771,21.22771,0,0,1,59.81857,32.14506Z"/>
        <text class="cls-11" transform="translate(54.17472 86.55229)">Ps</text>
        <text/>        <polygon class="cls-12" points="163.949 174.451 167.624 176.68 163.703 178.572 163.949 174.451"/>
        <polygon class="cls-12" points="186.995 175.253 190.671 177.482 186.75 179.374 186.995 175.253"/>
        <polygon class="cls-12" points="210.003 176.053 213.678 178.282 209.758 180.174 210.003 176.053"/>
        <polygon class="cls-13" points="263.721 177.337 267.396 179.566 263.476 181.458 263.721 177.337"/>
        <line class="cls-14" x1="173.99615" y1="168.49171" x2="173.73976" y2="164.76724"/>
        <g>
          <path class="cls-15" d="M164.15527,171.64062a1.71672,1.71672,0,0,1,2.60938-1.38525l3.56933,2.16309a1.71968,1.71968,0,0,1-.15722,3.02588l-6.36035,3.00586Z"/>
          <path d="M165.87671,170.159a1.53835,1.53835,0,0,1,.80725.229l3.56909,2.16284a1.56483,1.56483,0,0,1-.14239,2.753l-6.127,2.89545.32642-6.55095a1.56839,1.56839,0,0,1,1.56659-1.48941m0-.31023a1.87684,1.87684,0,0,0-1.8764,1.78421l-.35218,7.06809,6.5951-3.11667a1.875,1.875,0,0,0,.17059-3.29883l-3.56909-2.16284a1.85821,1.85821,0,0,0-.968-.274Z"/>
        </g>
        <g>
          <path class="cls-16" d="M170.1748,174.61865l-1.12207-.2456-.52929-.75489-1.082-.22119-.57032-.78076-1.15625-.2666-.49316-.73145-1.1582-.31933,15.27636-22.06153a.8994.8994,0,0,1,.76172-.34521,1.514,1.514,0,0,1,.77149.22363l4.60058,2.7876a1.26065,1.26065,0,0,1,.60547.78272.70169.70169,0,0,1-.10058.5581L170.7002,175.30908Z"/>
          <path d="M180.1015,148.9982h0a1.4079,1.4079,0,0,1,.71674.2081l4.59979,2.78746a1.17124,1.17124,0,0,1,.557.7135.60317.60317,0,0,1-.08429.47693l-15.195,21.94461-.43652-.57451-.04895-.06442-.07941-.01543-.97736-.18989-.54467-.72965-.05024-.06726-.08264-.01465-.93542-.16589-.58557-.756-.04786-.06183-.07659-.01593-1.01325-.21066-.5094-.70656-.045-.06232-.0744-.01906-.94947-.24318,15.18793-21.93437a.79505.79505,0,0,1,.67456-.299m-.00006-.212a1.00479,1.00479,0,0,0-.84882.39034l-15.36138,22.18484,1.24462.31876.55762.77338,1.09387.22743.63562.82065,1.01593.18016.59375.79529,1.05774.20552.61335.80716,15.36132-22.18485a1.0934,1.0934,0,0,0-.53717-1.49243L180.9281,149.025a1.61136,1.61136,0,0,0-.82666-.23879Z"/>
        </g>
        <line class="cls-17" x1="164.5992" y1="171.48451" x2="180.19221" y2="148.9651"/>
        <line class="cls-18" x1="166.42514" y1="172.02178" x2="181.95065" y2="149.59986"/>
        <line class="cls-18" x1="168.07665" y1="173.02259" x2="183.60216" y2="150.60067"/>
        <line class="cls-18" x1="169.72816" y1="174.0234" x2="185.25367" y2="151.60148"/>
        <line class="cls-14" x1="197.04299" y1="169.29367" x2="196.7866" y2="165.5692"/>
        <g>
          <path class="cls-15" d="M187.20215,172.44287a1.7167,1.7167,0,0,1,2.60937-1.38525l3.56934,2.16259a1.71966,1.71966,0,0,1-.15723,3.02588l-6.36035,3.00586Z"/>
          <path d="M188.92358,170.961a1.53834,1.53834,0,0,1,.80725.229l3.5691,2.16284a1.5648,1.5648,0,0,1-.14246,2.753l-6.12695,2.89546.32641-6.55094a1.56849,1.56849,0,0,1,1.56665-1.48944m0-.31022a1.87689,1.87689,0,0,0-1.87646,1.78421l-.35217,7.0681,6.59509-3.11669a1.875,1.875,0,0,0,.17065-3.29883l-3.56909-2.16284a1.85826,1.85826,0,0,0-.968-.27395Z"/>
        </g>
        <g>
          <path class="cls-16" d="M193.22168,175.42041l-1.12207-.24561-.5293-.75439-1.082-.22119-.57031-.78125-1.15625-.2666-.49317-.73145-1.1582-.31885,15.27637-22.062a.89905.89905,0,0,1,.76172-.34472,1.512,1.512,0,0,1,.77148.22363l4.60059,2.78711a1.262,1.262,0,0,1,.60547.78271.70287.70287,0,0,1-.10059.5586l-15.27832,22.06445Z"/>
          <path d="M203.14838,149.80017h0a1.40772,1.40772,0,0,1,.71673.20809l4.59979,2.78746a1.17137,1.17137,0,0,1,.557.71344.60316.60316,0,0,1-.08429.477l-15.195,21.94464-.43658-.57454-.04895-.06441-.07941-.01542-.97735-.1899-.54468-.72963-.05023-.06726-.08264-.01466-.93537-.16588-.58557-.756-.04785-.06184-.0766-.0159-1.01331-.21066-.50939-.70658-.045-.06233-.0744-.01906-.94946-.24316,15.18792-21.93436a.79518.79518,0,0,1,.67463-.299m-.00006-.212a1.00492,1.00492,0,0,0-.84888.39032l-15.36133,22.18484,1.24457.31876.55762.77337,1.09393.22743.63562.82065,1.01587.18016.59375.79529,1.05774.20552.6134.80716,15.36133-22.18484a1.09346,1.09346,0,0,0-.53717-1.49243l-4.59979-2.78747a1.61134,1.61134,0,0,0-.82666-.23876Z"/>
        </g>
        <line class="cls-17" x1="187.64605" y1="172.28646" x2="203.23906" y2="149.76706"/>
        <line class="cls-18" x1="189.47199" y1="172.82374" x2="204.9975" y2="150.40182"/>
        <line class="cls-18" x1="191.1235" y1="173.82455" x2="206.64901" y2="151.40263"/>
        <line class="cls-18" x1="192.77501" y1="174.82536" x2="208.30052" y2="152.40344"/>
        <line class="cls-14" x1="220.05044" y1="170.0936" x2="219.79406" y2="166.36913"/>
        <g>
          <path class="cls-15" d="M210.21,173.24268a1.71672,1.71672,0,0,1,2.60938-1.38526l3.56836,2.16309a1.72006,1.72006,0,0,1-.15625,3.02588l-6.36133,3.00537Z"/>
          <path d="M211.931,171.76088a1.53845,1.53845,0,0,1,.80725.229l3.56909,2.16286a1.56481,1.56481,0,0,1-.14245,2.753l-6.127,2.89544.32642-6.55093a1.5685,1.5685,0,0,1,1.56665-1.48944m0-.31021a1.87689,1.87689,0,0,0-1.87646,1.78419l-.35218,7.0681,6.5951-3.11667a1.875,1.875,0,0,0,.17065-3.29882l-3.56909-2.16286a1.85825,1.85825,0,0,0-.968-.27394Z"/>
        </g>
        <g>
          <path class="cls-16" d="M216.22852,176.2207l-1.1211-.2456-.5293-.75489-1.082-.22119-.57031-.78125-1.15625-.2666-.49316-.731-1.15918-.31933,15.27636-22.062a.89907.89907,0,0,1,.76172-.34473,1.52012,1.52012,0,0,1,.77246.22363l4.59961,2.7876a1.25808,1.25808,0,0,1,.60547.78125.70166.70166,0,0,1-.10058.55957l-15.27832,22.06494Z"/>
          <path d="M226.15588,150.6001h0a1.40766,1.40766,0,0,1,.71668.2081l4.59979,2.78746a1.17135,1.17135,0,0,1,.557.71344.60318.60318,0,0,1-.08429.477l-15.195,21.94464-.43652-.57451-.04895-.06442-.07941-.01543-.97742-.18991-.54467-.72963-.05024-.06726-.08264-.01465-.93536-.16589-.58557-.756-.04785-.06184-.0766-.0159-1.01325-.21065-.5094-.70659-.045-.06233-.0744-.01906-.94947-.24316,15.18787-21.93436a.79529.79529,0,0,1,.67468-.299m-.00012-.212a1.00494,1.00494,0,0,0-.84888.39032l-15.36132,22.18486,1.24463.31874.55755.77339,1.09393.22742.63562.82067,1.01587.18016.59375.79527,1.0578.20553.61335.80716,15.36132-22.18486a1.09343,1.09343,0,0,0-.53717-1.49241l-4.59979-2.78746a1.61123,1.61123,0,0,0-.82666-.23879Z"/>
        </g>
        <line class="cls-17" x1="210.6535" y1="173.0864" x2="226.24651" y2="150.56699"/>
        <line class="cls-18" x1="212.47944" y1="173.62367" x2="228.00495" y2="151.20175"/>
        <line class="cls-18" x1="214.13095" y1="174.62448" x2="229.65646" y2="152.20256"/>
        <line class="cls-18" x1="215.78246" y1="175.62529" x2="231.30797" y2="153.20337"/>
        <line class="cls-14" x1="273.76856" y1="171.37755" x2="273.51217" y2="167.65308"/>
        <g>
          <path class="cls-19" d="M263.92773,174.52686a1.71672,1.71672,0,0,1,2.60938-1.38526l3.56934,2.1626a1.71968,1.71968,0,0,1-.15723,3.02588l-6.36035,3.00586Z"/>
          <path class="cls-13" d="M265.64911,173.04483a1.5385,1.5385,0,0,1,.80731.229l3.569,2.16288a1.56477,1.56477,0,0,1-.14239,2.753l-6.127,2.89542.32642-6.55095a1.56839,1.56839,0,0,1,1.56659-1.48941m0-.31023a1.87684,1.87684,0,0,0-1.8764,1.78421l-.35218,7.0681,6.59509-3.11666a1.875,1.875,0,0,0,.1706-3.29883l-3.569-2.16286a1.85835,1.85835,0,0,0-.96808-.274Z"/>
        </g>
        <g>
          <path class="cls-20" d="M269.94727,177.50439l-1.12207-.2456-.5293-.75488-1.082-.2212-.57032-.78076-1.15625-.2666-.49316-.73144-1.1582-.31934,15.27636-22.06152a.89938.89938,0,0,1,.76172-.34522,1.514,1.514,0,0,1,.77149.22363l4.60058,2.7876a1.25984,1.25984,0,0,1,.6045.78125.70336.70336,0,0,1-.09961.56055l-15.27832,22.064Z"/>
          <path class="cls-13" d="M279.874,151.88405h0a1.40783,1.40783,0,0,1,.71668.20808l4.59979,2.78745a1.17156,1.17156,0,0,1,.557.71353.603.603,0,0,1-.08429.4769l-15.19507,21.94464-.43652-.57451-.04895-.06442-.07941-.01543-.97736-.18991-.54467-.72963-.05024-.06726-.08264-.01466-.93542-.16588-.58551-.756-.04785-.06183-.0766-.01591-1.01331-.21067-.5094-.70657-.045-.06233-.0744-.01906-.94941-.24315,15.18787-21.93437a.79513.79513,0,0,1,.67468-.299m-.00012-.212a1.00487,1.00487,0,0,0-.84888.39032L263.6637,174.24722l1.24456.31874.55762.7734,1.09393.22741.63556.82067,1.01593.18014.59375.79529,1.05774.20554.61335.80715,15.36138-22.18486a1.0935,1.0935,0,0,0-.53717-1.49243l-4.59979-2.78746a1.6114,1.6114,0,0,0-.82666-.23877Z"/>
        </g>
        <line class="cls-21" x1="264.37162" y1="174.37035" x2="279.96462" y2="151.85094"/>
        <line class="cls-22" x1="266.19756" y1="174.90762" x2="281.72306" y2="152.4857"/>
        <line class="cls-22" x1="267.84907" y1="175.90843" x2="283.37457" y2="153.48651"/>
        <line class="cls-22" x1="269.50058" y1="176.90924" x2="285.02608" y2="154.48732"/>
        <polygon class="cls-12" points="163.941 178.548 164.142 175.176 166.895 177.207 163.941 178.548"/>
        <polygon class="cls-12" points="186.918 179.073 187.119 175.701 189.872 177.732 186.918 179.073"/>
        <polygon class="cls-12" points="209.739 179.992 209.94 176.62 212.693 178.651 209.739 179.992"/>
        <polygon class="cls-13" points="263.739 181.319 263.94 177.947 266.693 179.978 263.739 181.319"/>
        <polygon class="cls-13" points="236.002 175.594 239.677 177.823 235.757 179.715 236.002 175.594"/>
        <line class="cls-14" x1="246.04968" y1="169.63475" x2="245.79329" y2="165.91027"/>
        <g>
          <path class="cls-19" d="M236.209,172.78369a1.7167,1.7167,0,0,1,2.60938-1.38525l3.56934,2.16308a1.72052,1.72052,0,0,1-.15723,3.02588l-6.36133,3.00586Z"/>
          <path class="cls-13" d="M237.93024,171.302a1.53822,1.53822,0,0,1,.80725.229l3.56909,2.16286a1.56478,1.56478,0,0,1-.1424,2.753l-6.12695,2.89544.32642-6.55095a1.56839,1.56839,0,0,1,1.56659-1.48942m0-.31021a1.87684,1.87684,0,0,0-1.87641,1.78421l-.35217,7.06808,6.59509-3.11667a1.875,1.875,0,0,0,.1706-3.29883l-3.5691-2.16285a1.858,1.858,0,0,0-.968-.27394Z"/>
        </g>
        <g>
          <path class="cls-20" d="M242.22754,175.76172l-1.12109-.24561-.5293-.75488-1.082-.22119-.57032-.78125-1.15625-.26611-.49316-.73145-1.15918-.31934,15.27637-22.062a.8997.8997,0,0,1,.76269-.34472,1.514,1.514,0,0,1,.77149.22363l4.59961,2.7876a1.259,1.259,0,0,1,.60547.78173.7002.7002,0,0,1-.10059.55909l-15.27832,22.06494Z"/>
          <path class="cls-13" d="M252.155,150.14124h0a1.40781,1.40781,0,0,1,.71674.20809l4.59979,2.78747a1.17118,1.17118,0,0,1,.557.7135.603.603,0,0,1-.08422.47692l-15.19507,21.94462-.43653-.57451-.04895-.06443-.0794-.01542-.97736-.1899-.54474-.72964-.05017-.06726-.08264-.01465-.93542-.1659-.58558-.756-.04785-.06183-.0766-.01593-1.01324-.21066-.5094-.70656-.045-.06231-.07441-.01906-.94946-.24318,15.18793-21.93437a.795.795,0,0,1,.67456-.299m-.00006-.212a1.0048,1.0048,0,0,0-.84882.39032l-15.36139,22.18486,1.24463.31876.55762.77337,1.09387.22743.63562.82065,1.01593.18016.59375.79529,1.05774.20552.61334.80716,15.36139-22.18484a1.0935,1.0935,0,0,0-.53723-1.49244l-4.59979-2.78746a1.611,1.611,0,0,0-.82666-.23878Z"/>
        </g>
        <line class="cls-21" x1="236.65273" y1="172.62754" x2="252.24574" y2="150.10813"/>
        <line class="cls-22" x1="238.47867" y1="173.16481" x2="254.00418" y2="150.74289"/>
        <line class="cls-22" x1="240.13018" y1="174.16563" x2="255.65569" y2="151.7437"/>
        <line class="cls-22" x1="241.78169" y1="175.16644" x2="257.3072" y2="152.74451"/>
        <polygon class="cls-13" points="236.02 179.576 236.221 176.204 238.974 178.235 236.02 179.576"/>
      </g>
    </g>
  </g>
</svg>
