<svg xmlns="http://www.w3.org/2000/svg" viewBox="0 0 600 203">
  <defs>
    <style>
      .cls-1 {
        font-size: 18.65018px;
      }

      .cls-1, .cls-3, .cls-7 {
        font-family: KozGoPr6N-Regular-83pv-RKSJ-H, Kozuka Gothic Pr6N;
      }

      .cls-2 {
        fill: #ccc;
      }

      .cls-3, .cls-7 {
        font-size: 16.49823px;
      }

      .cls-4 {
        letter-spacing: 0.24999em;
      }

      .cls-5 {
        font-size: 43.42299px;
        fill: #f7931e;
        font-family: UDDigiKyokashoNK-B, UDDigiKyokashoNK B;
      }

      .cls-6 {
        font-size: 31.96358px;
        font-family: KozGoPr6N-Bold-83pv-RKSJ-H, Kozuka Gothic Pr6N;
      }

      .cls-7 {
        letter-spacing: 0.23901em;
      }

      .cls-8 {
        letter-spacing: 0.489em;
      }

      .cls-9 {
        fill: #3e3a39;
      }

      .cls-10, .cls-11, .cls-17, .cls-21 {
        fill: #fff;
      }

      .cls-11 {
        stroke: #fff;
        stroke-width: 1.23885px;
      }

      .cls-11, .cls-14, .cls-17, .cls-18, .cls-21, .cls-22 {
        stroke-miterlimit: 10;
      }

      .cls-12 {
        fill: #020202;
      }

      .cls-13 {
        fill: #afbcbb;
      }

      .cls-14, .cls-18, .cls-22 {
        fill: none;
      }

      .cls-14 {
        stroke: #eeeeef;
        stroke-width: 0.7258px;
      }

      .cls-15 {
        fill: #efe8cb;
      }

      .cls-16 {
        fill: #7acecc;
      }

      .cls-17, .cls-18 {
        stroke: #000;
      }

      .cls-17, .cls-18, .cls-21, .cls-22 {
        stroke-width: 0.23904px;
      }

      .cls-19 {
        fill: #eae6d8;
      }

      .cls-20 {
        fill: #e1efee;
      }

      .cls-21, .cls-22 {
        stroke: #afbcbb;
      }
    </style>
  </defs>
  <g id="レイヤー_2" data-name="レイヤー 2">
    <g id="レイヤー_1-2" data-name="レイヤー 1">
      <g>
        <text class="cls-1" transform="translate(138.58203 86.56421) scale(1.02381 1)">仕組みやコードは理解しています</text>
        <g>
          <path class="cls-2" d="M571.03192.68445a28.31568,28.31568,0,0,1,28.28363,28.28369V174.032a28.31566,28.31566,0,0,1-28.28363,28.28357H28.96808A28.31566,28.31566,0,0,1,.68446,174.032V28.96814A28.31569,28.31569,0,0,1,28.96808.68445H571.03192m0-.68445H28.96808A28.96812,28.96812,0,0,0,0,28.96814V174.032A28.96809,28.96809,0,0,0,28.96808,203H571.03192A28.968,28.968,0,0,0,600,174.032V28.96814A28.96805,28.96805,0,0,0,571.03192,0Z"/>
          <text class="cls-3" transform="translate(38.45361 158.93726) scale(1.02381 1)">習得レベ<tspan class="cls-4" x="65.99315" y="0">ル</tspan><tspan x="86.6159" y="0">:　</tspan></text>
          <text class="cls-5" transform="translate(55.42139 72.08765) scale(1.10286 1)">Ai</text>
          <text class="cls-6" transform="translate(135.86328 55.33667) scale(1.02381 1)">WordPress</text>
          <text/>          <text class="cls-7" transform="translate(39.67334 123.30054) scale(1.02381 1)">授業時<tspan class="cls-8" x="61.32405" y="0">間</tspan><tspan x="85.89001" y="0">:</tspan></text>
          <text class="cls-1" transform="translate(142.58154 125.36206) scale(1.02381 1)">　54 hrs</text>
          <text/>          <text/>          <text/>          <g>
            <ellipse class="cls-9" cx="77.04641" cy="56.58007" rx="40.02599" ry="39.10045"/>
            <ellipse class="cls-10" cx="76.87604" cy="56.74651" rx="34.86" ry="34.05392"/>
            <ellipse class="cls-9" cx="76.87604" cy="56.58007" rx="31.28062" ry="30.55731"/>
            <path class="cls-11" d="M48.345,39.89246l16.71241,46.608,3.26813,1.97635L78.75243,59.13574l9.96,27.82084,4.3575-1.82431s11.04938-29.79719,12.60563-37.70256-4.51313-12.77022-6.095-13.53035-10.24566,3.04053-4.17628,10.79387,3.735,12.6573,3.735,12.6573l-5.6025,18.052L82.02056,42.41284a10.01394,10.01394,0,0,0,3.57937-.45608c2.258-.12449,2.15425-1.84746,1.08784-1.42849-1.76505,1.43382-13.17622,1.00641-17.50484-.31762-2.38625-.10135-.415.91216-.415.91216l3.29263,1.138,4.98,12.92225L70.03743,75.40257,58.54905,41.5785a24.14471,24.14471,0,0,1,3.26763-.35434c2.673-.22584,2.12687-1.52026-2.6975-.91216,0,0-9.23375.91216-9.46862-.93969C49.3438,36.95363,48.345,39.89246,48.345,39.89246Z"/>
          </g>
          <polygon class="cls-12" points="158.32 163.301 161.995 165.53 158.075 167.421 158.32 163.301"/>
          <polygon class="cls-12" points="181.367 164.103 185.042 166.332 181.122 168.223 181.367 164.103"/>
          <polygon class="cls-13" points="258.092 166.187 261.768 168.415 257.847 170.307 258.092 166.187"/>
          <line class="cls-14" x1="168.36758" y1="157.34124" x2="168.11119" y2="153.61677"/>
          <g>
            <path class="cls-15" d="M158.52631,160.49011a1.716,1.716,0,0,1,2.60937-1.38476l3.56885,2.16211a1.71911,1.71911,0,0,1-.15625,3.02539l-6.36084,3.00683Z"/>
            <path d="M160.24817,159.00848a1.5384,1.5384,0,0,1,.80725.22907l3.569,2.16284a1.56482,1.56482,0,0,1-.14236,2.75305l-6.12693,2.89545.32639-6.551a1.56842,1.56842,0,0,1,1.56662-1.48944m0-.31018a1.87687,1.87687,0,0,0-1.87644,1.78418l-.35214,7.06812,6.59506-3.1167a1.875,1.875,0,0,0,.17063-3.29883l-3.56906-2.16284a1.8581,1.8581,0,0,0-.96805-.27393Z"/>
          </g>
          <g>
            <path class="cls-16" d="M164.54633,163.46765l-1.12207-.24512-.52881-.75488-1.08252-.2207-.57032-.78125-1.15625-.2666-.49316-.73145-1.1582-.31933,15.27588-22.06153a.89749.89749,0,0,1,.7622-.34472,1.51065,1.51065,0,0,1,.77149.22363l4.59961,2.78711a1.25846,1.25846,0,0,1,.606.78125.70359.70359,0,0,1-.10058.55957l-15.27832,22.06543Z"/>
            <path d="M174.473,137.84772h0a1.40733,1.40733,0,0,1,.71671.20813l4.59979,2.78747a1.17105,1.17105,0,0,1,.557.71338.6033.6033,0,0,1-.08426.477l-15.195,21.94458-.43658-.57452-.04892-.06439-.07944-.01545-.97733-.18994-.54474-.72961-.05023-.06726-.08264-.01465-.93536-.16583-.58551-.756-.04792-.06182-.07656-.01593-1.01325-.21064-.50946-.7066-.04492-.06232-.07443-.019-.94947-.24316,15.18793-21.93439a.79523.79523,0,0,1,.67465-.299m-.00012-.212a1.00472,1.00472,0,0,0-.84885.39032L158.2627,160.21088l1.24459.31878.55762.77338,1.0939.22742.63559.82068,1.0159.18011.59375.79529,1.05777.20556.61334.80713,15.36136-22.18481a1.09345,1.09345,0,0,0-.53717-1.49243l-4.59979-2.78748a1.61047,1.61047,0,0,0-.82666-.23877Z"/>
          </g>
          <line class="cls-17" x1="158.97064" y1="160.33403" x2="174.56364" y2="137.81463"/>
          <line class="cls-18" x1="160.79658" y1="160.87131" x2="176.32208" y2="138.44939"/>
          <line class="cls-18" x1="162.44809" y1="161.87212" x2="177.97359" y2="139.4502"/>
          <line class="cls-18" x1="164.0996" y1="162.87293" x2="179.6251" y2="140.45101"/>
          <line class="cls-14" x1="191.41443" y1="158.1432" x2="191.15804" y2="154.41873"/>
          <g>
            <path class="cls-15" d="M181.57318,161.29187a1.71607,1.71607,0,0,1,2.60938-1.38477l3.56884,2.16309a1.7192,1.7192,0,0,1-.15625,3.02539l-6.36084,3.00586Z"/>
            <path d="M183.295,159.81049a1.53849,1.53849,0,0,1,.80728.22906l3.56907,2.16284a1.56482,1.56482,0,0,1-.14237,2.75305l-6.127,2.89539.32638-6.5509a1.5684,1.5684,0,0,1,1.56659-1.48944m0-.31018a1.87679,1.87679,0,0,0-1.87643,1.78417l-.35214,7.06806,6.59509-3.11664a1.875,1.875,0,0,0,.17059-3.29883l-3.56906-2.16284a1.858,1.858,0,0,0-.968-.27392Z"/>
          </g>
          <g>
            <path class="cls-16" d="M187.5932,164.26941l-1.12207-.24512-.52881-.75488-1.08252-.2207-.57031-.78028-1.15625-.2666-.49316-.73144-1.15821-.32032,15.27588-22.06152a.8991.8991,0,0,1,.76172-.34473,1.51527,1.51527,0,0,1,.77246.22364l4.59912,2.78711a1.26021,1.26021,0,0,1,.606.78222.70058.70058,0,0,1-.10059.5586L188.1181,164.96082Z"/>
            <path d="M197.51978,138.64972h0a1.408,1.408,0,0,1,.71676.20807l4.59979,2.78747a1.17113,1.17113,0,0,1,.557.7135.6031.6031,0,0,1-.08429.47693l-15.195,21.94464-.43655-.57458-.049-.06439-.07944-.01544-.97732-.18988-.54471-.72962-.0502-.06726-.08267-.01465-.93537-.16589-.58554-.756-.04791-.06183-.07657-.01593-1.01324-.21064-.50947-.7066-.04492-.06232-.07443-.019-.94946-.24316,15.18792-21.93439a.79493.79493,0,0,1,.67457-.29895m-.00007-.212a1.00465,1.00465,0,0,0-.84881.39032l-15.36136,22.18488,1.2446.31872.55762.77338,1.0939.22742.63562.82068,1.0159.18017.59372.79529,1.05777.20551.61334.80719,15.36136-22.18488a1.09344,1.09344,0,0,0-.53717-1.49243l-4.59979-2.78748a1.61178,1.61178,0,0,0-.8267-.23877Z"/>
          </g>
          <line class="cls-17" x1="182.01748" y1="161.13599" x2="197.61049" y2="138.61658"/>
          <line class="cls-18" x1="183.84343" y1="161.67327" x2="199.36893" y2="139.25135"/>
          <line class="cls-18" x1="185.49494" y1="162.67408" x2="201.02044" y2="140.25216"/>
          <line class="cls-18" x1="187.14644" y1="163.67489" x2="202.67195" y2="141.25297"/>
          <line class="cls-14" x1="268.14" y1="160.22708" x2="267.88361" y2="156.50261"/>
          <g>
            <path class="cls-19" d="M258.29877,163.37585a1.71606,1.71606,0,0,1,2.60937-1.38476l3.56885,2.16308a1.71921,1.71921,0,0,1-.15625,3.0254l-6.36084,3.00585Z"/>
            <path class="cls-13" d="M260.02057,161.89435a1.53848,1.53848,0,0,1,.80725.22906l3.56909,2.16284a1.56482,1.56482,0,0,1-.14239,2.75306l-6.127,2.89544.32642-6.551a1.56841,1.56841,0,0,1,1.56659-1.48944m0-.31018a1.87687,1.87687,0,0,0-1.87644,1.78418l-.35217,7.06811,6.59509-3.1167a1.875,1.875,0,0,0,.17063-3.29882l-3.56909-2.16285a1.85791,1.85791,0,0,0-.968-.27392Z"/>
          </g>
          <g>
            <path class="cls-20" d="M264.31879,166.35339l-1.12207-.24511-.52881-.75489-1.08252-.2207-.57031-.78125-1.15625-.26562-.49317-.73145-1.1582-.32031,15.27588-22.06153a.89908.89908,0,0,1,.76172-.34472,1.51538,1.51538,0,0,1,.77246.22363l4.59912,2.78711a1.25856,1.25856,0,0,1,.606.78125.70363.70363,0,0,1-.10059.55957L264.84369,167.0448Z"/>
            <path class="cls-13" d="M274.24536,140.73358h0a1.40756,1.40756,0,0,1,.71674.20813l4.59979,2.78742a1.17108,1.17108,0,0,1,.557.7135.60328.60328,0,0,1-.08426.47693l-15.195,21.94464-.43655-.57459-.04895-.06439-.07944-.01544-.97733-.18988-.54474-.72962-.05023-.06726-.08264-.01465-.93539-.16589-.58554-.756-.04789-.06183-.07656-.01593-1.01325-.21063-.50943-.70661-.04492-.06237-.07443-.019-.94947-.24316,15.1879-21.93433a.795.795,0,0,1,.67459-.299m-.00006-.212a1.00487,1.00487,0,0,0-.84885.39026l-15.36132,22.18487,1.24459.31873.55759.77343,1.0939.22742.63562.82062,1.0159.18017.59375.79529,1.05777.20551.61335.80719L280.209,145.04022a1.09348,1.09348,0,0,0-.5372-1.49243l-4.59979-2.78741a1.61037,1.61037,0,0,0-.82666-.23877Z"/>
          </g>
          <line class="cls-21" x1="258.74305" y1="163.21987" x2="274.33606" y2="140.70047"/>
          <line class="cls-22" x1="260.56899" y1="163.75715" x2="276.0945" y2="141.33523"/>
          <line class="cls-22" x1="262.2205" y1="164.75796" x2="277.74601" y2="142.33604"/>
          <line class="cls-22" x1="263.87201" y1="165.75877" x2="279.39752" y2="143.33685"/>
          <polygon class="cls-12" points="158.313 167.398 158.513 164.026 161.266 166.056 158.313 167.398"/>
          <polygon class="cls-12" points="181.29 167.922 181.49 164.55 184.243 166.581 181.29 167.922"/>
          <polygon class="cls-13" points="258.11 170.169 258.311 166.797 261.064 168.827 258.11 170.169"/>
          <polygon class="cls-13" points="232.064 164.955 235.739 167.184 231.819 169.076 232.064 164.955"/>
          <line class="cls-14" x1="242.1115" y1="158.99578" x2="241.85511" y2="155.27131"/>
          <g>
            <path class="cls-19" d="M232.27045,162.14441a1.717,1.717,0,0,1,2.60888-1.38477l3.56934,2.16309a1.719,1.719,0,0,1-.15674,3.02539l-6.36035,3.00586Z"/>
            <path class="cls-13" d="M233.99207,160.663a1.53824,1.53824,0,0,1,.80722.22907l3.56912,2.1629a1.56481,1.56481,0,0,1-.1424,2.75305l-6.12695,2.89539.32642-6.551a1.5684,1.5684,0,0,1,1.56659-1.48945m0-.31018a1.87687,1.87687,0,0,0-1.87644,1.78418l-.35217,7.06812,6.59509-3.11664a1.875,1.875,0,0,0,.17062-3.29883l-3.56909-2.1629a1.85789,1.85789,0,0,0-.968-.27393Z"/>
          </g>
          <g>
            <path class="cls-20" d="M238.29,165.122l-1.12207-.24512-.52881-.75488-1.082-.2207-.57031-.78028-1.15625-.2666-.49317-.73145-1.1582-.32031L247.455,139.74109a.89876.89876,0,0,1,.76123-.34473,1.51394,1.51394,0,0,1,.77246.22364l4.6001,2.7871a1.25945,1.25945,0,0,1,.60546.78223.70054.70054,0,0,1-.10058.55859l-15.27832,22.06543Z"/>
            <path class="cls-13" d="M248.217,139.50226h0a1.40729,1.40729,0,0,1,.7167.20813l4.59977,2.78747a1.17115,1.17115,0,0,1,.557.71344.60333.60333,0,0,1-.08426.477l-15.195,21.94458-.43659-.57452-.04892-.06439-.07943-.01544-.97733-.19-.54474-.72961-.05023-.06726-.08264-.01465-.93537-.16583-.58554-.756-.04791-.06183-.07657-.01593-1.01324-.21064-.50943-.70654-.04492-.06238-.07444-.019-.94946-.24316,15.18793-21.93439a.79523.79523,0,0,1,.67465-.299m-.00012-.212a1.00472,1.00472,0,0,0-.84885.39032l-15.36136,22.18488,1.2446.31872.55759.77338,1.0939.22742.63562.82068,1.0159.18011.59375.79529,1.05777.20557.61334.80712L254.18045,143.809a1.09347,1.09347,0,0,0-.5372-1.49243l-4.59976-2.78748a1.61052,1.61052,0,0,0-.82666-.23877Z"/>
          </g>
          <line class="cls-21" x1="232.71455" y1="161.98858" x2="248.30756" y2="139.46917"/>
          <line class="cls-22" x1="234.54049" y1="162.52585" x2="250.066" y2="140.10393"/>
          <line class="cls-22" x1="236.192" y1="163.52666" x2="251.71751" y2="141.10474"/>
          <line class="cls-22" x1="237.84351" y1="164.52747" x2="253.36902" y2="142.10555"/>
          <polygon class="cls-13" points="232.082 168.937 232.282 165.565 235.036 167.596 232.082 168.937"/>
          <polygon class="cls-13" points="207.516 163.001 211.192 165.229 207.271 167.121 207.516 163.001"/>
          <line class="cls-14" x1="217.56389" y1="157.04099" x2="217.3075" y2="153.31651"/>
          <g>
            <path class="cls-19" d="M207.7226,160.19031a1.71735,1.71735,0,0,1,2.60937-1.38574l3.56885,2.16308a1.7192,1.7192,0,0,1-.15625,3.02539l-6.36084,3.00586Z"/>
            <path class="cls-13" d="M209.44446,158.70825a1.5384,1.5384,0,0,1,.80725.22907l3.56909,2.16284a1.56482,1.56482,0,0,1-.14239,2.75305l-6.127,2.89545.32642-6.551a1.56841,1.56841,0,0,1,1.56659-1.48944m0-.31018a1.87687,1.87687,0,0,0-1.87644,1.78418l-.35217,7.06812,6.59509-3.1167a1.875,1.875,0,0,0,.17063-3.29883l-3.56909-2.16284a1.85792,1.85792,0,0,0-.968-.27393Z"/>
          </g>
          <g>
            <path class="cls-20" d="M213.74261,163.16785l-1.12158-.2461-.52929-.7539-1.08252-.22168-.57032-.78028-1.15625-.2666-.49316-.73144-1.1582-.31934,15.27588-22.0625a.89906.89906,0,0,1,.76171-.34473,1.51543,1.51543,0,0,1,.77247.22364l4.59912,2.78808a1.25851,1.25851,0,0,1,.606.78125.70359.70359,0,0,1-.10058.55957l-15.27832,22.06446Z"/>
            <path class="cls-13" d="M223.66925,137.54749h0a1.40746,1.40746,0,0,1,.71674.20813l4.59979,2.78741a1.1711,1.1711,0,0,1,.557.7135.60328.60328,0,0,1-.08426.47693l-15.195,21.94464-.43655-.57458-.04895-.0644-.07944-.01544-.97733-.18988-.54474-.72961-.05023-.06726-.08264-.01465-.93539-.1659-.58554-.756-.04789-.06183-.07657-.01593L209.385,160.812l-.50943-.7066-.04492-.06238-.07443-.019-.94947-.24317,15.1879-21.93432a.795.795,0,0,1,.67459-.299m-.00006-.212a1.00487,1.00487,0,0,0-.84885.39026L207.459,159.91064l1.2446.31873.55759.77344,1.0939.22741.63562.82062,1.0159.18018.59375.79529,1.05777.2055.61334.80719,15.36136-22.18487a1.09349,1.09349,0,0,0-.5372-1.49244l-4.59979-2.78741a1.6105,1.6105,0,0,0-.82666-.23877Z"/>
          </g>
          <line class="cls-21" x1="208.16694" y1="160.03378" x2="223.75995" y2="137.51437"/>
          <line class="cls-22" x1="209.99288" y1="160.57105" x2="225.51839" y2="138.14913"/>
          <line class="cls-22" x1="211.64439" y1="161.57187" x2="227.1699" y2="139.14994"/>
          <line class="cls-22" x1="213.2959" y1="162.57268" x2="228.82141" y2="140.15076"/>
          <polygon class="cls-13" points="207.534 166.983 207.735 163.611 210.488 165.641 207.534 166.983"/>
        </g>
      </g>
    </g>
  </g>
</svg>
