<?xml version="1.0" encoding="UTF-8"?>
<svg id="_レイヤー_1" data-name="レイヤー 1" xmlns="http://www.w3.org/2000/svg" viewBox="0 0 600 203">
  <defs>
    <style>
      .cls-1 {
        fill: #afbcbb;
      }

      .cls-2 {
        letter-spacing: -.03em;
      }

      .cls-3 {
        fill: #3e3a39;
      }

      .cls-4 {
        letter-spacing: -.08em;
      }

      .cls-5 {
        letter-spacing: -.11em;
      }

      .cls-6 {
        letter-spacing: -.07em;
      }

      .cls-7 {
        letter-spacing: -.48em;
      }

      .cls-8 {
        letter-spacing: .25em;
      }

      .cls-8, .cls-9, .cls-10, .cls-11, .cls-12 {
        isolation: isolate;
      }

      .cls-8, .cls-9, .cls-11, .cls-12 {
        font-family: KozGoPr6N-Regular-90ms-RKSJ-H, 'Kozuka Gothic Pr6N';
      }

      .cls-8, .cls-11 {
        font-size: 16.5px;
      }

      .cls-13 {
        letter-spacing: 0em;
      }

      .cls-14 {
        fill: #020202;
      }

      .cls-9 {
        font-size: 18.65px;
      }

      .cls-15, .cls-16 {
        fill: #fff;
      }

      .cls-17 {
        letter-spacing: 0em;
      }

      .cls-18 {
        letter-spacing: -.17em;
      }

      .cls-19 {
        fill: #eae6d8;
      }

      .cls-10 {
        fill: #f7931e;
        font-family: ArialMT, Arial;
        font-size: 43.42px;
      }

      .cls-20 {
        letter-spacing: -.02em;
      }

      .cls-21 {
        letter-spacing: -.07em;
      }

      .cls-16 {
        stroke: #fff;
        stroke-width: 1.24px;
      }

      .cls-16, .cls-22, .cls-23, .cls-24 {
        stroke-miterlimit: 10;
      }

      .cls-22 {
        stroke: #afbcbb;
      }

      .cls-22, .cls-23 {
        stroke-width: .24px;
      }

      .cls-22, .cls-23, .cls-24 {
        fill: none;
      }

      .cls-25 {
        fill: #efe8cb;
      }

      .cls-23 {
        stroke: #000;
      }

      .cls-26 {
        fill: #ccc;
      }

      .cls-27 {
        letter-spacing: -.04em;
      }

      .cls-28 {
        letter-spacing: 0em;
      }

      .cls-24 {
        stroke: #eeeeef;
        stroke-width: .73px;
      }

      .cls-12 {
        font-size: 31.96px;
      }

      .cls-29 {
        letter-spacing: -.05em;
      }

      .cls-30 {
        fill: #e1efee;
      }

      .cls-31 {
        fill: #7acecc;
      }
    </style>
  </defs>
  <text class="cls-9" transform="translate(136.42 95.68) scale(1.02 1)"><tspan x="0" y="0">静的な</tspan><tspan class="cls-13" x="55.95" y="0">ペ</tspan><tspan class="cls-29" x="74.41" y="0">ー</tspan><tspan class="cls-28" x="92.13" y="0">ジに</tspan><tspan x="129.06" y="0">WP組み込</tspan><tspan class="cls-21" x="212.78" y="0">む</tspan><tspan class="cls-18" x="230.12" y="0">こ</tspan><tspan class="cls-4" x="245.6" y="0">と</tspan><tspan class="cls-2" x="262.76" y="0">が</tspan><tspan class="cls-20" x="280.85" y="0">で</tspan><tspan class="cls-4" x="299.13" y="0">き</tspan><tspan class="cls-27" x="316.29" y="0">ま</tspan><tspan class="cls-5" x="334.19" y="0">す</tspan><tspan class="cls-7" x="350.79" y="0">。</tspan></text>
  <path class="cls-26" d="M571.03.68c15.61.02,28.27,12.67,28.28,28.28v145.06c-.02,15.61-12.67,28.27-28.28,28.28H28.97c-15.61-.02-28.27-12.67-28.28-28.28V28.97C.7,13.35,13.35.7,28.97.68h542.06M571.03,0H28.97C12.97,0,0,12.97,0,28.97v145.06c0,16,12.97,28.97,28.97,28.97h542.06c16,0,28.97-12.97,28.97-28.97h0V28.97C600,12.97,587.03,0,571.03,0t0,0Z"/>
  <text class="cls-11" transform="translate(38.45 158.94) scale(1.02 1)"><tspan x="0" y="0">習</tspan><tspan class="cls-6" x="16.5" y="0">得</tspan><tspan class="cls-17" x="31.84" y="0">レ</tspan><tspan x="48.5" y="0">ベ</tspan></text>
  <text class="cls-8" transform="translate(106.02 158.94) scale(1.02 1)"><tspan x="0" y="0">ル</tspan></text>
  <text class="cls-11" transform="translate(127.13 158.94) scale(1.02 1)"><tspan x="0" y="0">:　</tspan></text>
  <text class="cls-10" transform="translate(55.42 72.09) scale(1.1 1)"><tspan x="0" y="0">Ai</tspan></text>
  <text class="cls-12" transform="translate(135.86 55.34) scale(1.02 1)"><tspan x="0" y="0">WordPress</tspan></text>
  <ellipse class="cls-3" cx="77.05" cy="56.58" rx="40.03" ry="39.1"/>
  <ellipse class="cls-15" cx="76.88" cy="56.75" rx="34.86" ry="34.05"/>
  <ellipse class="cls-3" cx="76.88" cy="56.58" rx="31.28" ry="30.56"/>
  <path class="cls-16" d="M48.35,39.89l16.71,46.61,3.27,1.98,10.43-29.34,9.96,27.82,4.36-1.82s11.05-29.8,12.61-37.7-4.51-12.77-6.1-13.53-10.25,3.04-4.18,10.79,3.74,12.66,3.74,12.66l-5.6,18.05-11.52-32.99c1.21.07,2.42-.09,3.58-.46,2.26-.12,2.15-1.85,1.09-1.43-1.77,1.43-13.18,1.01-17.5-.32-2.39-.1-.42.91-.42.91l3.29,1.14,4.98,12.92-7,20.22-11.49-33.82c1.08-.19,2.17-.31,3.27-.35,2.67-.23,2.13-1.52-2.7-.91,0,0-9.23.91-9.47-.94-.31-2.42-1.31.52-1.31.52Z"/>
  <polygon class="cls-14" points="158.32 163.3 161.99 165.53 158.07 167.42 158.32 163.3"/>
  <polygon class="cls-14" points="181.37 164.1 185.04 166.33 181.12 168.22 181.37 164.1"/>
  <polygon class="cls-1" points="258.09 166.19 261.77 168.41 257.85 170.31 258.09 166.19"/>
  <line class="cls-24" x1="168.37" y1="157.34" x2="168.11" y2="153.62"/>
  <path class="cls-25" d="M158.53,160.49c.04-.95.85-1.68,1.79-1.63.29.01.57.1.82.25l3.57,2.16c.81.49,1.07,1.55.58,2.36-.17.29-.43.52-.74.66l-6.36,3.01.34-6.81Z"/>
  <path d="M160.25,159.01c.29,0,.56.08.81.23l3.57,2.16c.74.45.98,1.41.53,2.15-.16.26-.39.47-.67.6l-6.13,2.9.33-6.55c.04-.83.73-1.49,1.57-1.49M160.25,158.7c-1,0-1.83.78-1.88,1.78l-.35,7.07,6.6-3.12c.94-.44,1.34-1.56.89-2.5-.16-.33-.41-.61-.72-.8l-3.57-2.16c-.29-.18-.63-.27-.97-.27Z"/>
  <path class="cls-31" d="M164.55,163.47l-1.12-.25-.53-.75-1.08-.22-.57-.78-1.16-.27-.49-.73-1.16-.32,15.28-22.06c.18-.23.47-.36.76-.34.27,0,.54.08.77.22l4.6,2.79c.3.17.52.45.61.78.05.19.01.4-.1.56l-15.28,22.07-.52-.69Z"/>
  <path d="M174.47,137.85h0c.25,0,.5.08.72.21l4.6,2.79c.27.15.47.41.56.71.04.16,0,.34-.08.48l-15.19,21.94-.44-.57-.05-.06-.08-.02-.98-.19-.54-.73-.05-.07h-.08s-.94-.18-.94-.18l-.59-.76-.05-.06-.08-.02-1.01-.21-.51-.71-.04-.06-.07-.02-.95-.24,15.19-21.93c.16-.2.41-.32.67-.3M174.47,137.64c-.33-.02-.65.13-.85.39l-15.36,22.18,1.24.32.56.77,1.09.23.64.82,1.02.18.59.8,1.06.21.61.81,15.36-22.18c.27-.54.05-1.2-.49-1.47-.02,0-.03-.02-.05-.02l-4.6-2.79c-.25-.15-.53-.24-.83-.24h0Z"/>
  <line class="cls-23" x1="158.97" y1="160.33" x2="174.56" y2="137.81"/>
  <line class="cls-23" x1="160.8" y1="160.87" x2="176.32" y2="138.45"/>
  <line class="cls-23" x1="162.45" y1="161.87" x2="177.97" y2="139.45"/>
  <line class="cls-23" x1="164.1" y1="162.87" x2="179.63" y2="140.45"/>
  <line class="cls-24" x1="191.41" y1="158.14" x2="191.16" y2="154.42"/>
  <path class="cls-25" d="M181.57,161.29c.04-.95.85-1.68,1.79-1.63.29.01.57.1.82.25l3.57,2.16c.81.49,1.07,1.55.58,2.36-.17.29-.43.52-.74.66l-6.36,3.01.34-6.81Z"/>
  <path d="M183.29,159.81c.29,0,.56.08.81.23l3.57,2.16c.74.45.98,1.41.53,2.15-.16.26-.39.47-.67.6l-6.13,2.9.33-6.55c.04-.83.73-1.49,1.57-1.49M183.29,159.5c-1,0-1.83.78-1.88,1.78l-.35,7.07,6.6-3.12c.94-.44,1.34-1.56.89-2.5-.16-.33-.41-.61-.72-.8l-3.57-2.16c-.29-.18-.63-.27-.97-.27h0Z"/>
  <path class="cls-31" d="M187.59,164.27l-1.12-.25-.53-.75-1.08-.22-.57-.78-1.16-.27-.49-.73-1.16-.32,15.28-22.06c.18-.23.47-.36.76-.34.27,0,.54.08.77.22l4.6,2.79c.3.17.52.45.61.78.05.19.01.39-.1.56l-15.28,22.07-.52-.69Z"/>
  <path d="M197.52,138.65h0c.25,0,.5.08.72.21l4.6,2.79c.27.15.47.41.56.71.04.16,0,.34-.08.48l-15.2,21.94-.44-.57-.05-.06-.08-.02-.98-.19-.54-.73-.05-.07h-.08s-.94-.18-.94-.18l-.59-.76-.05-.06-.08-.02-1.01-.21-.51-.71-.04-.06-.07-.02-.95-.24,15.19-21.93c.16-.2.41-.32.67-.3M197.52,138.44c-.33-.02-.65.13-.85.39l-15.36,22.18,1.24.32.56.77,1.09.23.64.82,1.02.18.59.8,1.06.21.61.81,15.36-22.18c.27-.54.05-1.2-.49-1.47-.02,0-.03-.02-.05-.02l-4.6-2.79c-.25-.15-.53-.24-.83-.24h0Z"/>
  <line class="cls-23" x1="182.02" y1="161.14" x2="197.61" y2="138.62"/>
  <line class="cls-23" x1="183.84" y1="161.67" x2="199.37" y2="139.25"/>
  <line class="cls-23" x1="185.49" y1="162.67" x2="201.02" y2="140.25"/>
  <line class="cls-23" x1="187.15" y1="163.67" x2="202.67" y2="141.25"/>
  <line class="cls-24" x1="268.14" y1="160.23" x2="267.88" y2="156.5"/>
  <path class="cls-19" d="M258.3,163.38c.04-.95.85-1.68,1.79-1.63.29.01.57.1.82.25l3.57,2.16c.81.49,1.07,1.55.58,2.36-.17.29-.43.52-.74.66l-6.36,3.01.34-6.81Z"/>
  <path class="cls-1" d="M260.02,161.89c.29,0,.56.08.81.23l3.57,2.16c.74.45.98,1.41.53,2.15-.16.26-.39.47-.67.6l-6.13,2.9.33-6.55c.04-.83.73-1.49,1.57-1.49M260.02,161.58c-1,0-1.83.78-1.88,1.78l-.35,7.07,6.6-3.12c.94-.44,1.34-1.56.89-2.5-.16-.33-.41-.61-.72-.8l-3.57-2.16c-.29-.18-.63-.27-.97-.27h0Z"/>
  <path class="cls-30" d="M264.32,166.35l-1.12-.25-.53-.75-1.08-.22-.57-.78-1.16-.27-.49-.73-1.16-.32,15.28-22.06c.18-.23.47-.36.76-.34.27,0,.54.08.77.22l4.6,2.79c.3.17.52.45.61.78.05.19.01.4-.1.56l-15.28,22.07-.52-.69Z"/>
  <path class="cls-1" d="M274.25,140.73h0c.25,0,.5.08.72.21l4.6,2.79c.27.15.47.41.56.71.04.16,0,.34-.08.48l-15.2,21.94-.44-.57-.05-.06-.08-.02-.98-.19-.54-.73-.05-.07h-.08s-.94-.18-.94-.18l-.59-.76-.05-.06-.08-.02-1.01-.21-.51-.71-.04-.06-.07-.02-.95-.24,15.19-21.93c.16-.2.41-.32.67-.3M274.25,140.52c-.33-.02-.65.13-.85.39l-15.36,22.18,1.24.32.56.77,1.09.23.64.82,1.02.18.59.8,1.06.21.61.81,15.36-22.18c.27-.54.05-1.2-.49-1.47-.02,0-.03-.02-.05-.02l-4.6-2.79c-.25-.15-.53-.24-.83-.24h0Z"/>
  <line class="cls-22" x1="258.74" y1="163.22" x2="274.34" y2="140.7"/>
  <line class="cls-22" x1="260.57" y1="163.76" x2="276.09" y2="141.34"/>
  <line class="cls-22" x1="262.22" y1="164.76" x2="277.75" y2="142.34"/>
  <line class="cls-22" x1="263.87" y1="165.76" x2="279.4" y2="143.34"/>
  <polygon class="cls-14" points="158.31 167.4 158.51 164.03 161.27 166.06 158.31 167.4"/>
  <polygon class="cls-14" points="181.29 167.92 181.49 164.55 184.24 166.58 181.29 167.92"/>
  <polygon class="cls-14" points="206.16 163.3 209.84 165.53 205.92 167.42 206.16 163.3"/>
  <polygon class="cls-14" points="229.21 164.1 232.88 166.33 228.96 168.22 229.21 164.1"/>
  <line class="cls-24" x1="216.21" y1="157.34" x2="215.95" y2="153.62"/>
  <path class="cls-25" d="M206.37,160.49c.04-.95.85-1.68,1.79-1.63.29.01.57.1.82.25l3.57,2.16c.81.49,1.07,1.55.58,2.36-.17.29-.43.52-.74.66l-6.36,3.01.34-6.81Z"/>
  <path d="M208.09,159.01c.29,0,.56.08.81.23l3.57,2.16c.74.45.98,1.41.53,2.15-.16.26-.39.47-.67.6l-6.13,2.9.33-6.55c.04-.83.73-1.49,1.57-1.49M208.09,158.7c-1,0-1.83.78-1.88,1.78l-.35,7.07,6.6-3.12c.94-.44,1.34-1.56.89-2.5-.16-.33-.41-.61-.72-.8l-3.57-2.16c-.29-.18-.63-.27-.97-.27Z"/>
  <path class="cls-31" d="M212.39,163.47l-1.12-.25-.53-.75-1.08-.22-.57-.78-1.16-.27-.49-.73-1.16-.32,15.28-22.06c.18-.23.47-.36.76-.34.27,0,.54.08.77.22l4.6,2.79c.3.17.52.45.61.78.05.19.01.4-.1.56l-15.28,22.07-.52-.69Z"/>
  <path d="M222.31,137.85h0c.25,0,.5.08.72.21l4.6,2.79c.27.15.47.41.56.71.04.16,0,.34-.08.48l-15.19,21.94-.44-.57-.05-.06-.08-.02-.98-.19-.54-.73-.05-.07h-.08s-.94-.18-.94-.18l-.59-.76-.05-.06-.08-.02-1.01-.21-.51-.71-.04-.06-.07-.02-.95-.24,15.19-21.93c.16-.2.41-.32.67-.3M222.31,137.64c-.33-.02-.65.13-.85.39l-15.36,22.18,1.24.32.56.77,1.09.23.64.82,1.02.18.59.8,1.06.21.61.81,15.36-22.18c.27-.54.05-1.2-.49-1.47-.02,0-.03-.02-.05-.02l-4.6-2.79c-.25-.15-.53-.24-.83-.24h0Z"/>
  <line class="cls-23" x1="206.81" y1="160.33" x2="222.4" y2="137.81"/>
  <line class="cls-23" x1="208.64" y1="160.87" x2="224.16" y2="138.45"/>
  <line class="cls-23" x1="210.29" y1="161.87" x2="225.81" y2="139.45"/>
  <line class="cls-23" x1="211.94" y1="162.87" x2="227.47" y2="140.45"/>
  <line class="cls-24" x1="239.25" y1="158.14" x2="239" y2="154.42"/>
  <path class="cls-25" d="M229.41,161.29c.04-.95.85-1.68,1.79-1.63.29.01.57.1.82.25l3.57,2.16c.81.49,1.07,1.55.58,2.36-.17.29-.43.52-.74.66l-6.36,3.01.34-6.81Z"/>
  <path d="M231.14,159.81c.29,0,.56.08.81.23l3.57,2.16c.74.45.98,1.41.53,2.15-.16.26-.39.47-.67.6l-6.13,2.9.33-6.55c.04-.83.73-1.49,1.57-1.49M231.14,159.5c-1,0-1.83.78-1.88,1.78l-.35,7.07,6.6-3.12c.94-.44,1.34-1.56.89-2.5-.16-.33-.41-.61-.72-.8l-3.57-2.16c-.29-.18-.63-.27-.97-.27h0Z"/>
  <path class="cls-31" d="M235.43,164.27l-1.12-.25-.53-.75-1.08-.22-.57-.78-1.16-.27-.49-.73-1.16-.32,15.28-22.06c.18-.23.47-.36.76-.34.27,0,.54.08.77.22l4.6,2.79c.3.17.52.45.61.78.05.19.01.39-.1.56l-15.28,22.07-.52-.69Z"/>
  <path d="M245.36,138.65h0c.25,0,.5.08.72.21l4.6,2.79c.27.15.47.41.56.71.04.16,0,.34-.08.48l-15.2,21.94-.44-.57-.05-.06-.08-.02-.98-.19-.54-.73-.05-.07h-.08s-.94-.18-.94-.18l-.59-.76-.05-.06-.08-.02-1.01-.21-.51-.71-.04-.06-.07-.02-.95-.24,15.19-21.93c.16-.2.41-.32.67-.3M245.36,138.44c-.33-.02-.65.13-.85.39l-15.36,22.18,1.24.32.56.77,1.09.23.64.82,1.02.18.59.8,1.06.21.61.81,15.36-22.18c.27-.54.05-1.2-.49-1.47-.02,0-.03-.02-.05-.02l-4.6-2.79c-.25-.15-.53-.24-.83-.24h0Z"/>
  <line class="cls-23" x1="229.86" y1="161.14" x2="245.45" y2="138.62"/>
  <line class="cls-23" x1="233.34" y1="162.67" x2="248.86" y2="140.25"/>
  <line class="cls-23" x1="234.99" y1="163.67" x2="250.51" y2="141.25"/>
  <polygon class="cls-14" points="206.15 167.4 206.35 164.03 209.11 166.06 206.15 167.4"/>
  <polygon class="cls-14" points="229.13 167.92 229.33 164.55 232.08 166.58 229.13 167.92"/>
  <polygon class="cls-1" points="258.11 170.17 258.31 166.8 261.06 168.83 258.11 170.17"/>
  <line class="cls-24" x1="217.56" y1="157.04" x2="217.31" y2="153.32"/>
</svg>