<svg xmlns="http://www.w3.org/2000/svg" viewBox="0 0 600 203">
  <defs>
    <style>
      .cls-1 {
        fill: #ccc;
      }

      .cls-2, .cls-8 {
        font-size: 16.49823px;
      }

      .cls-2, .cls-7, .cls-8 {
        font-family: KozGoPr6N-Regular-83pv-RKSJ-H, Kozuka Gothic Pr6N;
      }

      .cls-3 {
        letter-spacing: 0.24999em;
      }

      .cls-4 {
        fill: #603813;
      }

      .cls-5 {
        font-size: 43.42299px;
        fill: #f7931e;
        font-family: UDDigiKyokashoNK-B, UDDigiKyokashoNK B;
      }

      .cls-6 {
        font-size: 31.96358px;
        font-family: KozGoPr6N-Bold-83pv-RKSJ-H, Kozuka Gothic Pr6N;
      }

      .cls-7 {
        font-size: 18.65018px;
      }

      .cls-8 {
        letter-spacing: 0.23901em;
      }

      .cls-9 {
        letter-spacing: 0.489em;
      }

      .cls-10 {
        fill: #632270;
      }

      .cls-11 {
        font-size: 43.89474px;
        fill: #d68fbb;
        font-family: DNPShueiNShogoMinStd-Hv-83pv-RKSJ-H, DNPShueiNShogoMinStd;
      }

      .cls-12 {
        letter-spacing: -0.22em;
      }

      .cls-13 {
        fill: #020202;
      }

      .cls-14 {
        fill: #afbcbb;
      }

      .cls-15, .cls-19, .cls-23 {
        fill: none;
      }

      .cls-15 {
        stroke: #eeeeef;
        stroke-width: 0.7258px;
      }

      .cls-15, .cls-18, .cls-19, .cls-22, .cls-23 {
        stroke-miterlimit: 10;
      }

      .cls-16 {
        fill: #efe8cb;
      }

      .cls-17 {
        fill: #7acecc;
      }

      .cls-18, .cls-22 {
        fill: #fff;
      }

      .cls-18, .cls-19 {
        stroke: #000;
      }

      .cls-18, .cls-19, .cls-22, .cls-23 {
        stroke-width: 0.23904px;
      }

      .cls-20 {
        fill: #eae6d8;
      }

      .cls-21 {
        fill: #e1efee;
      }

      .cls-22, .cls-23 {
        stroke: #afbcbb;
      }
    </style>
  </defs>
  <g id="レイヤー_2" data-name="レイヤー 2">
    <g id="レイヤー_1-2" data-name="レイヤー 1">
      <g>
        <path class="cls-1" d="M571.03192.68445a28.31569,28.31569,0,0,1,28.28363,28.28363V174.03192a28.31567,28.31567,0,0,1-28.28363,28.28363H28.96808A28.31568,28.31568,0,0,1,.68446,174.03192V28.96808A28.3157,28.3157,0,0,1,28.96808.68445H571.03192m0-.68445H28.96808A28.96809,28.96809,0,0,0,0,28.96808V174.03192A28.968,28.968,0,0,0,28.96808,203H571.03192A28.968,28.968,0,0,0,600,174.03192V28.96808A28.9681,28.9681,0,0,0,571.03192,0Z"/>
        <text class="cls-2" transform="translate(38.45358 164.93726) scale(1.02381 1)">習得レベ<tspan class="cls-3" x="65.99315" y="0">ル</tspan><tspan x="86.6159" y="0">:　</tspan></text>
        <path class="cls-4" d="M95.7515,25.561h-34.984a20.65445,20.65445,0,0,0-20.8931,20.40719V80.13881A20.65444,20.65444,0,0,0,60.76751,100.546h34.984a20.6545,20.6545,0,0,0,20.89336-20.40718V45.96817A20.65451,20.65451,0,0,0,95.7515,25.561Z"/>
        <text class="cls-5" transform="translate(55.42136 78.08765) scale(1.10286 1)">Ai</text>
        <text class="cls-6" transform="translate(135.86325 61.33667) scale(1.02381 1)"><tspan xml:space="preserve">XD  ver. CC2022</tspan></text>
        <text/>        <text class="cls-7" transform="translate(138.582 92.56421) scale(1.02381 1)">リンク先の設定など問題なく使用出来ます</text>
        <text class="cls-8" transform="translate(39.67331 129.30054) scale(1.02381 1)">授業時<tspan class="cls-9" x="61.32405" y="0">間</tspan><tspan x="85.89001" y="0">:</tspan></text>
        <text class="cls-7" transform="translate(142.58151 131.36206) scale(1.02381 1)">　4 0 hrs</text>
        <text/>        <text/>        <text/>        <rect class="cls-10" x="39.55791" y="26.04563" width="77.46247" height="74.43399" rx="20.01206"/>
        <text class="cls-11" transform="translate(48.07605 80.15637) scale(1.01331 1)"><tspan class="cls-12">X</tspan><tspan x="23.39564" y="0">ｄ</tspan></text>
        <polygon class="cls-13" points="152.435 169.301 156.11 171.53 152.189 173.421 152.435 169.301"/>
        <polygon class="cls-13" points="175.481 170.103 179.157 172.332 175.236 174.223 175.481 170.103"/>
        <polygon class="cls-13" points="198.489 170.903 202.164 173.131 198.244 175.023 198.489 170.903"/>
        <polygon class="cls-13" points="223.517 170.972 227.192 173.201 223.272 175.092 223.517 170.972"/>
        <polygon class="cls-14" points="252.207 172.187 255.882 174.415 251.962 176.307 252.207 172.187"/>
        <line class="cls-15" x1="162.4822" y1="163.34123" x2="162.22581" y2="159.61676"/>
        <g>
          <path class="cls-16" d="M152.641,166.49036a1.71672,1.71672,0,0,1,2.60938-1.38526l3.56884,2.1626a1.7196,1.7196,0,0,1-.15625,3.02588l-6.36084,3.00586Z"/>
          <path d="M154.36279,165.00851a1.53832,1.53832,0,0,1,.80719.229l3.56913,2.1629a1.56479,1.56479,0,0,1-.1424,2.753l-6.12695,2.89545.32641-6.55093a1.56842,1.56842,0,0,1,1.56662-1.48945m0-.31021a1.87687,1.87687,0,0,0-1.87643,1.78421l-.35217,7.06809,6.59509-3.11667a1.875,1.875,0,0,0,.17062-3.29883l-3.56909-2.16287a1.85818,1.85818,0,0,0-.968-.27393Z"/>
        </g>
        <g>
          <path class="cls-17" d="M158.661,169.4679l-1.12256-.24512-.52832-.75488-1.08252-.2212-.57031-.78125-1.15625-.2666-.49316-.73144-1.15821-.31885,15.27588-22.062a.89845.89845,0,0,1,.76172-.34473,1.50924,1.50924,0,0,1,.77148.22363l4.60059,2.78711a1.2611,1.2611,0,0,1,.60547.78223.70207.70207,0,0,1-.10059.55908l-15.27832,22.06494Z"/>
          <path d="M168.58762,143.84772h0a1.40759,1.40759,0,0,1,.7167.20813l4.59979,2.78741a1.17145,1.17145,0,0,1,.557.71347.60327.60327,0,0,1-.08426.477l-15.195,21.94461-.43655-.57449-.049-.06442-.07944-.01545-.97732-.18985-.54474-.72964-.05023-.06726-.08265-.01468-.93536-.16589-.58554-.756-.04791-.06182-.07657-.01593-1.01325-.21064-.50943-.7066-.04492-.06232-.07443-.01907-.94946-.24316L167.913,144.14673a.79513.79513,0,0,1,.67463-.299m-.0001-.212a1.00483,1.00483,0,0,0-.84884.39032l-15.36136,22.18488,1.2446.31872.55758.77341,1.09391.22742.63562.82064,1.0159.18018.59375.79529,1.05777.2055.61334.80716,15.36136-22.18484a1.09349,1.09349,0,0,0-.53717-1.49243l-4.5998-2.78745a1.61138,1.61138,0,0,0-.82666-.2388Z"/>
        </g>
        <line class="cls-18" x1="153.08525" y1="166.33403" x2="168.67826" y2="143.81462"/>
        <line class="cls-19" x1="154.91119" y1="166.8713" x2="170.4367" y2="144.44938"/>
        <line class="cls-19" x1="156.5627" y1="167.87211" x2="172.08821" y2="145.45019"/>
        <line class="cls-19" x1="158.21421" y1="168.87292" x2="173.73972" y2="146.451"/>
        <line class="cls-15" x1="185.52904" y1="164.14319" x2="185.27265" y2="160.41872"/>
        <g>
          <path class="cls-16" d="M175.68787,167.29211a1.71671,1.71671,0,0,1,2.60937-1.38525l3.56885,2.16309a1.71964,1.71964,0,0,1-.15625,3.02588l-6.36084,3.00585Z"/>
          <path d="M177.40961,165.81046a1.53824,1.53824,0,0,1,.80728.22906l3.56906,2.16284a1.56479,1.56479,0,0,1-.1424,2.753l-6.12695,2.89545.32642-6.55093a1.5684,1.5684,0,0,1,1.56659-1.48944m0-.31022a1.87687,1.87687,0,0,0-1.87644,1.78421l-.35217,7.06809,6.59509-3.11667a1.875,1.875,0,0,0,.17063-3.29883l-3.56906-2.16284a1.85842,1.85842,0,0,0-.96805-.274Z"/>
        </g>
        <g>
          <path class="cls-17" d="M181.70789,170.27014l-1.12256-.2456-.52881-.75489-1.082-.22119-.57032-.78076-1.15625-.2666-.49316-.73145-1.1582-.31933,15.27588-22.062a.89842.89842,0,0,1,.76172-.34473,1.51575,1.51575,0,0,1,.772.22363l4.59961,2.7876a1.2577,1.2577,0,0,1,.606.78223.70128.70128,0,0,1-.10058.55859l-15.27832,22.06494Z"/>
          <path d="M191.6344,144.64969h0a1.40782,1.40782,0,0,1,.71677.2081l4.59979,2.78744a1.17146,1.17146,0,0,1,.557.71347.60326.60326,0,0,1-.08425.477l-15.195,21.94461-.43656-.57449-.049-.06442-.07943-.01544-.97733-.18988-.54474-.72965-.05023-.06726-.08264-.01468-.93536-.16586-.58551-.756-.04792-.06183-.07657-.01593-1.01327-.21067-.50943-.70657-.04492-.06232-.07444-.01907-.94946-.24316,15.18793-21.93436a.795.795,0,0,1,.67456-.299m0-.212a1.00476,1.00476,0,0,0-.84885.39032l-15.36136,22.18485,1.2446.31875.55759.77338,1.09393.22745.63559.82065,1.0159.18014.59375.79529,1.05777.20554.61334.80715L197.598,148.95636a1.09349,1.09349,0,0,0-.53717-1.49243l-4.59979-2.78748a1.61107,1.61107,0,0,0-.82666-.23877Z"/>
        </g>
        <line class="cls-18" x1="176.1321" y1="167.13598" x2="191.72511" y2="144.61658"/>
        <line class="cls-19" x1="177.95804" y1="167.67326" x2="193.48355" y2="145.25134"/>
        <line class="cls-19" x1="179.60955" y1="168.67407" x2="195.13506" y2="146.25215"/>
        <line class="cls-19" x1="181.26106" y1="169.67488" x2="196.78657" y2="147.25296"/>
        <line class="cls-15" x1="208.53649" y1="164.94312" x2="208.28011" y2="161.21865"/>
        <g>
          <path class="cls-16" d="M198.69519,168.09241a1.71672,1.71672,0,0,1,2.60938-1.38526l3.56884,2.1626a1.71964,1.71964,0,0,1-.15625,3.02588l-6.36084,3.00586Z"/>
          <path d="M200.41708,166.61041a1.53809,1.53809,0,0,1,.80725.229l3.569,2.16281a1.56482,1.56482,0,0,1-.14237,2.75308l-6.12692,2.89545.32638-6.551a1.56839,1.56839,0,0,1,1.56662-1.48941m0-.31024a1.87689,1.87689,0,0,0-1.87643,1.78421l-.35214,7.06812,6.59506-3.11667a1.87505,1.87505,0,0,0,.17062-3.29886l-3.56906-2.16284a1.85839,1.85839,0,0,0-.96805-.274Z"/>
        </g>
        <g>
          <path class="cls-17" d="M204.71521,171.07l-1.12207-.24561-.52881-.75488-1.08252-.22119-.57031-.78077-1.15625-.2666-.49317-.73144-1.1582-.31934,15.27588-22.06152a.89908.89908,0,0,1,.76221-.34522,1.51835,1.51835,0,0,1,.772.22364l4.59912,2.78759a1.25982,1.25982,0,0,1,.606.78174.70322.70322,0,0,1-.10059.55957l-15.27832,22.06446Z"/>
          <path d="M214.64185,145.44962h0a1.40784,1.40784,0,0,1,.71676.20809l4.59979,2.78745a1.17126,1.17126,0,0,1,.557.71347.60323.60323,0,0,1-.08426.477l-15.195,21.94461-.43655-.57449-.049-.06443-.07944-.01544-.97732-.18988-.54474-.72964-.05023-.06726-.08264-.01468-.93537-.16587-.58551-.756-.04791-.06183-.07657-.01593-1.01324-.21066-.50946-.70657-.04493-.06232-.07443-.01907-.94946-.24317,15.18793-21.93435a.795.795,0,0,1,.67456-.299m0-.212a1.00476,1.00476,0,0,0-.84885.39032l-15.36136,22.18484,1.2446.31876.55762.77338,1.0939.22744.63559.82065,1.0159.18015.59375.79529,1.05777.20553.61334.80716,15.36136-22.18484a1.09347,1.09347,0,0,0-.53717-1.49244l-4.59979-2.78747a1.6111,1.6111,0,0,0-.82666-.23877Z"/>
        </g>
        <line class="cls-18" x1="199.13955" y1="167.93592" x2="214.73256" y2="145.41651"/>
        <line class="cls-19" x1="200.96549" y1="168.47319" x2="216.491" y2="146.05127"/>
        <line class="cls-19" x1="202.617" y1="169.474" x2="218.14251" y2="147.05208"/>
        <line class="cls-19" x1="204.26851" y1="170.47481" x2="219.79402" y2="148.05289"/>
        <line class="cls-15" x1="233.56453" y1="165.01233" x2="233.30814" y2="161.28786"/>
        <g>
          <path class="cls-16" d="M223.72351,168.16125a1.71632,1.71632,0,0,1,2.60889-1.38525l3.56933,2.16309a1.71945,1.71945,0,0,1-.15673,3.02588l-6.36036,3.00586Z"/>
          <path d="M225.4451,166.6796a1.53811,1.53811,0,0,1,.80725.22906l3.56906,2.16281a1.5648,1.5648,0,0,1-.14236,2.75305l-6.127,2.89545.32642-6.55093a1.5684,1.5684,0,0,1,1.56659-1.48944m0-.31022a1.87688,1.87688,0,0,0-1.87644,1.78421l-.35217,7.06809,6.59509-3.11667a1.875,1.875,0,0,0,.17063-3.29883l-3.56909-2.16284a1.85832,1.85832,0,0,0-.968-.274Z"/>
        </g>
        <g>
          <path class="cls-17" d="M229.743,171.13928l-1.12207-.2456-.52881-.75489-1.082-.22119-.57031-.78076-1.15625-.2666-.49316-.73145-1.15821-.31933,15.27588-22.06153a.89815.89815,0,0,1,.76172-.34521,1.51572,1.51572,0,0,1,.772.22363l4.59912,2.7876a1.25688,1.25688,0,0,1,.606.78174.7.7,0,0,1-.1001.55908L230.26843,171.8302Z"/>
          <path d="M239.66989,145.51883h0a1.40782,1.40782,0,0,1,.71677.2081l4.59976,2.78744a1.17143,1.17143,0,0,1,.557.71347.60331.60331,0,0,1-.08426.477l-15.195,21.94461-.43655-.57449-.04895-.06442-.07944-.01544-.97733-.18988-.54474-.72965-.05023-.06726-.08264-.01468-.93536-.16586-.58554-.756-.04792-.06183-.07656-.01593-1.01325-.21066-.50943-.70658-.04492-.06232-.07443-.01907-.94947-.24316,15.18793-21.93436a.795.795,0,0,1,.67456-.299m0-.212a1.00476,1.00476,0,0,0-.84885.39032L223.45966,167.882l1.24459.31875.55759.77338,1.0939.22745.63562.82065,1.0159.18014.59375.79529,1.05777.20554.61335.80716,15.36135-22.18485a1.09347,1.09347,0,0,0-.5372-1.49243l-4.59976-2.78748a1.611,1.611,0,0,0-.82666-.23877Z"/>
        </g>
        <line class="cls-18" x1="224.16759" y1="168.00513" x2="239.76059" y2="145.48572"/>
        <line class="cls-19" x1="225.99353" y1="168.5424" x2="241.51903" y2="146.12048"/>
        <line class="cls-19" x1="227.64504" y1="169.54321" x2="243.17054" y2="147.12129"/>
        <line class="cls-19" x1="229.29655" y1="170.54402" x2="244.82205" y2="148.1221"/>
        <line class="cls-15" x1="262.25461" y1="166.22707" x2="261.99822" y2="162.5026"/>
        <g>
          <path class="cls-20" d="M252.41345,169.3761a1.71672,1.71672,0,0,1,2.60938-1.38526l3.56884,2.16309a1.71964,1.71964,0,0,1-.15625,3.02588l-6.36084,3.00586Z"/>
          <path class="cls-14" d="M254.13516,167.89438a1.53847,1.53847,0,0,1,.80728.229l3.56907,2.16284a1.56482,1.56482,0,0,1-.14237,2.753l-6.127,2.89544.32638-6.55093a1.5684,1.5684,0,0,1,1.56659-1.48941m0-.31024a1.87683,1.87683,0,0,0-1.8764,1.78421l-.35217,7.06808,6.59509-3.11667a1.875,1.875,0,0,0,.17059-3.29882l-3.56906-2.16285a1.8583,1.8583,0,0,0-.968-.274Z"/>
        </g>
        <g>
          <path class="cls-21" d="M258.43347,172.35413l-1.12256-.24561-.52881-.75488-1.082-.22119-.57031-.78125-1.15625-.26612-.49316-.73144-1.15821-.31934,15.27588-22.062a.89845.89845,0,0,1,.76172-.34473,1.51561,1.51561,0,0,1,.772.22364l4.59961,2.78759a1.25813,1.25813,0,0,1,.606.78174.702.702,0,0,1-.10059.55908l-15.27832,22.06495Z"/>
          <path class="cls-14" d="M268.36,146.73358h0a1.40786,1.40786,0,0,1,.71677.2081l4.59979,2.78742a1.17137,1.17137,0,0,1,.557.71347.60318.60318,0,0,1-.08429.477l-15.195,21.94461-.43655-.5745-.04895-.06442-.07944-.01544-.97732-.18985-.54471-.72965-.0502-.06726-.08267-.01468-.93537-.16589-.58554-.756-.04791-.06183-.07657-.01593-1.01325-.21066-.50946-.70655-.04492-.06231-.07443-.01908-.94946-.24316,15.18792-21.93436a.795.795,0,0,1,.67456-.299m0-.212a1.00475,1.00475,0,0,0-.84884.39032l-15.36136,22.18484,1.2446.31876.55761.77337,1.09391.22742.63562.82065,1.0159.18017.59372.79529,1.05777.20551.61334.80716,15.36136-22.18485a1.09344,1.09344,0,0,0-.53717-1.49243l-4.5998-2.78744a1.611,1.611,0,0,0-.82666-.23877Z"/>
        </g>
        <line class="cls-22" x1="252.85767" y1="169.21987" x2="268.45067" y2="146.70046"/>
        <line class="cls-23" x1="254.68361" y1="169.75714" x2="270.20911" y2="147.33522"/>
        <line class="cls-23" x1="256.33512" y1="170.75795" x2="271.86062" y2="148.33603"/>
        <line class="cls-23" x1="257.98663" y1="171.75876" x2="273.51213" y2="149.33684"/>
        <polygon class="cls-13" points="152.427 173.398 152.628 170.026 155.381 172.056 152.427 173.398"/>
        <polygon class="cls-13" points="175.404 173.922 175.605 170.55 178.358 172.581 175.404 173.922"/>
        <polygon class="cls-13" points="198.225 174.842 198.426 171.47 201.179 173.5 198.225 174.842"/>
        <polygon class="cls-13" points="223.359 174.924 223.559 171.552 226.312 173.583 223.359 174.924"/>
        <polygon class="cls-14" points="252.225 176.169 252.426 172.797 255.179 174.827 252.225 176.169"/>
      </g>
    </g>
  </g>
</svg>
