<?xml version="1.0" encoding="UTF-8"?>
<svg id="_レイヤー_1" data-name="レイヤー 1" xmlns="http://www.w3.org/2000/svg" viewBox="0 0 600 203">
  <defs>
    <style>
      .cls-1 {
        fill: #afbcbb;
      }

      .cls-2 {
        letter-spacing: -.08em;
      }

      .cls-3 {
        letter-spacing: -.19em;
      }

      .cls-3, .cls-4, .cls-5, .cls-6, .cls-7, .cls-8, .cls-9 {
        isolation: isolate;
      }

      .cls-3, .cls-7 {
        fill: #d68fbb;
        font-family: DNPShueiNShogoMinStd-Hv-90ms-RKSJ-H, DNPShueiNShogoMinStd;
        font-size: 43.89px;
      }

      .cls-10 {
        letter-spacing: -.11em;
      }

      .cls-11 {
        letter-spacing: -.07em;
      }

      .cls-4 {
        letter-spacing: .25em;
      }

      .cls-4, .cls-5, .cls-8, .cls-9 {
        font-family: KozGoPr6N-Regular-90ms-RKSJ-H, 'Kozuka Gothic Pr6N';
      }

      .cls-4, .cls-8 {
        font-size: 16.5px;
      }

      .cls-12 {
        letter-spacing: 0em;
      }

      .cls-13 {
        fill: #020202;
      }

      .cls-5 {
        font-size: 18.65px;
      }

      .cls-14 {
        letter-spacing: 0em;
      }

      .cls-15 {
        fill: #632270;
      }

      .cls-16 {
        letter-spacing: -.18em;
      }

      .cls-17 {
        fill: #eae6d8;
      }

      .cls-6 {
        fill: #f7931e;
        font-family: ArialMT, Arial;
        font-size: 43.42px;
      }

      .cls-18 {
        letter-spacing: -.14em;
      }

      .cls-19 {
        letter-spacing: -.06em;
      }

      .cls-20 {
        fill: #603813;
      }

      .cls-21 {
        letter-spacing: 0em;
      }

      .cls-22 {
        stroke: #afbcbb;
      }

      .cls-22, .cls-23 {
        stroke-width: .24px;
      }

      .cls-22, .cls-23, .cls-24 {
        fill: none;
        stroke-miterlimit: 10;
      }

      .cls-25 {
        fill: #efe8cb;
      }

      .cls-23 {
        stroke: #000;
      }

      .cls-26 {
        fill: #ccc;
      }

      .cls-27 {
        letter-spacing: -.04em;
      }

      .cls-28 {
        letter-spacing: -.08em;
      }

      .cls-24 {
        stroke: #eeeeef;
        stroke-width: .73px;
      }

      .cls-9 {
        font-size: 31.96px;
      }

      .cls-29 {
        fill: #e1efee;
      }

      .cls-30 {
        fill: #7acecc;
      }
    </style>
  </defs>
  <path class="cls-26" d="M571.03.68c15.61.02,28.27,12.67,28.28,28.28v145.06c-.02,15.61-12.67,28.27-28.28,28.28H28.97c-15.61-.02-28.27-12.67-28.28-28.28V28.97C.7,13.35,13.35.7,28.97.68h542.06M571.03,0H28.97C12.97,0,0,12.97,0,28.97v145.06c0,16,12.97,28.97,28.97,28.97h542.06c16,0,28.97-12.97,28.97-28.97h0V28.97C600,12.97,587.03,0,571.03,0Z"/>
  <text class="cls-8" transform="translate(38.45 164.94) scale(1.02 1)"><tspan x="0" y="0">習</tspan><tspan class="cls-11" x="16.5" y="0">得</tspan><tspan class="cls-14" x="31.84" y="0">レ</tspan><tspan x="48.5" y="0">ベ</tspan></text>
  <text class="cls-4" transform="translate(106.02 164.94) scale(1.02 1)"><tspan x="0" y="0">ル</tspan></text>
  <text class="cls-8" transform="translate(127.13 164.94) scale(1.02 1)"><tspan x="0" y="0">:　</tspan></text>
  <path class="cls-20" d="M95.75,25.56h-34.98c-11.4-.13-20.76,9-20.89,20.41v34.17c.14,11.4,9.49,20.54,20.89,20.41h34.98c11.4.13,20.76-9,20.89-20.41v-34.17c-.14-11.4-9.49-20.54-20.89-20.41Z"/>
  <text class="cls-6" transform="translate(55.42 78.09) scale(1.1 1)"><tspan x="0" y="0">Ai</tspan></text>
  <text class="cls-9" transform="translate(135.86 61.34) scale(1.02 1)"><tspan x="0" y="0" xml:space="preserve">XD  </tspan></text>
  <text class="cls-5" transform="translate(135.09 101.5) scale(1.02 1)"><tspan class="cls-18" x="0" y="0">リ</tspan><tspan class="cls-10" x="16.04" y="0">ン</tspan><tspan class="cls-28" x="32.64" y="0">ク</tspan><tspan x="49.8" y="0">先の設定</tspan><tspan class="cls-2" x="124.4" y="0">な</tspan><tspan class="cls-19" x="141.56" y="0">ど</tspan><tspan x="159.09" y="0">問題</tspan><tspan class="cls-2" x="196.39" y="0">な</tspan><tspan class="cls-16" x="213.55" y="0">く</tspan><tspan class="cls-21" x="228.84" y="0">使用出</tspan><tspan class="cls-27" x="284.79" y="0">来ま</tspan><tspan class="cls-12" x="320.6" y="0">す</tspan></text>
  <rect class="cls-15" x="39.56" y="26.05" width="77.46" height="74.43" rx="20.01" ry="20.01"/>
  <text class="cls-7" transform="translate(48.08 80.16) scale(1.01 1)"><tspan x="0" y="0">X</tspan></text>
  <text class="cls-3" transform="translate(62.53 80.16) scale(1.01 1)"><tspan x="0" y="0">ｄ</tspan></text>
  <polygon class="cls-13" points="152.43 169.3 156.11 171.53 152.19 173.42 152.43 169.3"/>
  <polygon class="cls-13" points="175.48 170.1 179.16 172.33 175.24 174.22 175.48 170.1"/>
  <polygon class="cls-13" points="198.49 170.9 202.16 173.13 198.24 175.02 198.49 170.9"/>
  <polygon class="cls-13" points="223.52 170.97 227.19 173.2 223.27 175.09 223.52 170.97"/>
  <polygon class="cls-1" points="252.21 172.19 255.88 174.41 251.96 176.31 252.21 172.19"/>
  <line class="cls-24" x1="162.48" y1="163.34" x2="162.23" y2="159.62"/>
  <path class="cls-25" d="M152.64,166.49c.04-.95.85-1.68,1.79-1.63.29.01.57.1.81.25l3.57,2.16c.81.49,1.07,1.55.58,2.36-.17.29-.43.52-.74.66l-6.36,3.01.34-6.81Z"/>
  <path d="M154.36,165.01c.29,0,.56.08.81.23l3.57,2.16c.74.45.98,1.41.53,2.15-.16.26-.39.47-.67.6l-6.13,2.9.33-6.55c.04-.83.73-1.49,1.57-1.49M154.36,164.7c-1,0-1.83.78-1.88,1.78l-.35,7.07,6.6-3.12c.94-.44,1.34-1.56.89-2.5-.16-.33-.41-.61-.72-.8l-3.57-2.16c-.29-.18-.63-.27-.97-.27h0Z"/>
  <path class="cls-30" d="M158.66,169.47l-1.12-.25-.53-.75-1.08-.22-.57-.78-1.16-.27-.49-.73-1.16-.32,15.28-22.06c.18-.23.47-.36.76-.34.27,0,.54.08.77.22l4.6,2.79c.3.17.52.45.61.78.05.19.01.4-.1.56l-15.28,22.06-.52-.69Z"/>
  <path d="M168.59,143.85h0c.25,0,.5.08.72.21l4.6,2.79c.27.15.47.41.56.71.04.16,0,.34-.08.48l-15.2,21.94-.44-.57-.05-.06-.08-.02-.98-.19-.54-.73-.05-.07h-.08s-.94-.18-.94-.18l-.59-.76-.05-.06-.08-.02-1.01-.21-.51-.71-.04-.06-.07-.02-.95-.24,15.19-21.93c.16-.2.41-.32.67-.3M168.59,143.64c-.33-.02-.65.13-.85.39l-15.36,22.18,1.24.32.56.77,1.09.23.64.82,1.02.18.59.8,1.06.21.61.81,15.36-22.18c.27-.54.05-1.2-.49-1.47-.02,0-.03-.02-.05-.02l-4.6-2.79c-.25-.15-.53-.24-.83-.24h0Z"/>
  <line class="cls-23" x1="153.09" y1="166.33" x2="168.68" y2="143.81"/>
  <line class="cls-23" x1="154.91" y1="166.87" x2="170.44" y2="144.45"/>
  <line class="cls-23" x1="156.56" y1="167.87" x2="172.09" y2="145.45"/>
  <line class="cls-23" x1="158.21" y1="168.87" x2="173.74" y2="146.45"/>
  <line class="cls-24" x1="185.53" y1="164.14" x2="185.27" y2="160.42"/>
  <path class="cls-25" d="M175.69,167.29c.04-.95.85-1.68,1.79-1.63.29.01.57.1.81.25l3.57,2.16c.81.49,1.07,1.55.58,2.36-.17.29-.43.52-.74.66l-6.36,3.01.34-6.81Z"/>
  <path d="M177.41,165.81c.29,0,.56.08.81.23l3.57,2.16c.74.45.98,1.41.53,2.15-.16.26-.39.47-.67.6l-6.13,2.9.33-6.55c.04-.83.73-1.49,1.57-1.49M177.41,165.5c-1,0-1.83.78-1.88,1.78l-.35,7.07,6.6-3.12c.94-.44,1.34-1.56.89-2.5-.16-.33-.41-.61-.72-.8l-3.57-2.16c-.29-.18-.63-.27-.97-.27h0Z"/>
  <path class="cls-30" d="M181.71,170.27l-1.12-.25-.53-.75-1.08-.22-.57-.78-1.16-.27-.49-.73-1.16-.32,15.28-22.06c.18-.23.47-.36.76-.34.27,0,.54.08.77.22l4.6,2.79c.3.17.52.45.61.78.05.19.01.39-.1.56l-15.28,22.06-.53-.69Z"/>
  <path d="M191.63,144.65h0c.25,0,.5.08.72.21l4.6,2.79c.27.15.47.41.56.71.04.16,0,.34-.08.48l-15.19,21.94-.44-.57-.05-.06-.08-.02-.98-.19-.54-.73-.05-.07h-.08s-.94-.18-.94-.18l-.59-.76-.05-.06-.08-.02-1.01-.21-.51-.71-.04-.06-.07-.02-.95-.24,15.19-21.93c.16-.2.41-.32.67-.3M191.63,144.44c-.33-.02-.65.13-.85.39l-15.36,22.18,1.24.32.56.77,1.09.23.64.82,1.02.18.59.8,1.06.21.61.81,15.36-22.18c.27-.54.05-1.2-.49-1.47-.02,0-.03-.02-.05-.02l-4.6-2.79c-.25-.15-.53-.24-.83-.24h0Z"/>
  <line class="cls-23" x1="176.13" y1="167.14" x2="191.73" y2="144.62"/>
  <line class="cls-23" x1="177.96" y1="167.67" x2="193.48" y2="145.25"/>
  <line class="cls-23" x1="179.61" y1="168.67" x2="195.14" y2="146.25"/>
  <line class="cls-23" x1="181.26" y1="169.67" x2="196.79" y2="147.25"/>
  <line class="cls-24" x1="208.54" y1="164.94" x2="208.28" y2="161.22"/>
  <path class="cls-25" d="M198.7,168.09c.04-.95.85-1.68,1.79-1.63.29.01.57.1.81.25l3.57,2.16c.81.49,1.07,1.55.58,2.36-.17.29-.43.52-.74.66l-6.36,3.01.34-6.81Z"/>
  <path d="M200.42,166.61c.29,0,.56.08.81.23l3.57,2.16c.74.45.98,1.41.53,2.15-.16.26-.39.47-.67.6l-6.13,2.9.33-6.55c.04-.83.73-1.49,1.57-1.49M200.42,166.3c-1,0-1.83.78-1.88,1.78l-.35,7.07,6.6-3.12c.94-.44,1.34-1.56.89-2.5-.16-.33-.41-.61-.72-.8l-3.57-2.16c-.29-.18-.63-.27-.97-.27h0Z"/>
  <path class="cls-30" d="M204.72,171.07l-1.12-.25-.53-.75-1.08-.22-.57-.78-1.16-.27-.49-.73-1.16-.32,15.28-22.06c.18-.23.47-.36.76-.35.27,0,.54.08.77.22l4.6,2.79c.3.17.52.45.61.78.05.19.01.4-.1.56l-15.28,22.06-.52-.69Z"/>
  <path d="M214.64,145.45h0c.25,0,.5.08.72.21l4.6,2.79c.27.15.47.41.56.71.04.16,0,.34-.08.48l-15.2,21.94-.44-.57-.05-.06-.08-.02-.98-.19-.54-.73-.05-.07h-.08s-.94-.18-.94-.18l-.59-.76-.05-.06-.08-.02-1.01-.21-.51-.71-.04-.06-.07-.02-.95-.24,15.19-21.93c.16-.2.41-.32.67-.3M214.64,145.24c-.33-.02-.65.13-.85.39l-15.36,22.18,1.24.32.56.77,1.09.23.64.82,1.02.18.59.8,1.06.21.61.81,15.36-22.18c.27-.54.05-1.2-.49-1.47-.02,0-.03-.02-.05-.02l-4.6-2.79c-.25-.15-.53-.24-.83-.24h0Z"/>
  <line class="cls-23" x1="199.14" y1="167.94" x2="214.73" y2="145.42"/>
  <line class="cls-23" x1="200.97" y1="168.47" x2="216.49" y2="146.05"/>
  <line class="cls-23" x1="202.62" y1="169.47" x2="218.14" y2="147.05"/>
  <line class="cls-23" x1="204.27" y1="170.47" x2="219.79" y2="148.05"/>
  <line class="cls-24" x1="233.56" y1="165.01" x2="233.31" y2="161.29"/>
  <path class="cls-25" d="M223.72,168.16c.04-.95.85-1.68,1.79-1.63.29.01.57.1.81.25l3.57,2.16c.81.49,1.07,1.55.58,2.36-.18.29-.43.52-.74.66l-6.36,3.01.34-6.81Z"/>
  <path d="M225.45,166.68c.29,0,.56.08.81.23l3.57,2.16c.74.45.98,1.41.53,2.15-.16.26-.39.47-.67.6l-6.13,2.9.33-6.55c.04-.83.73-1.49,1.57-1.49M225.45,166.37c-1,0-1.83.78-1.88,1.78l-.35,7.07,6.6-3.12c.94-.44,1.34-1.56.89-2.5-.16-.33-.41-.61-.72-.8l-3.57-2.16c-.29-.18-.63-.27-.97-.27h0Z"/>
  <path class="cls-30" d="M229.74,171.14l-1.12-.25-.53-.75-1.08-.22-.57-.78-1.16-.27-.49-.73-1.16-.32,15.28-22.06c.18-.23.47-.36.76-.35.27,0,.54.08.77.22l4.6,2.79c.3.17.52.45.61.78.05.19.01.4-.1.56l-15.28,22.07-.53-.69Z"/>
  <path d="M239.67,145.52h0c.25,0,.5.08.72.21l4.6,2.79c.27.15.47.41.56.71.04.16,0,.34-.08.48l-15.2,21.94-.44-.57-.05-.06-.08-.02-.98-.19-.54-.73-.05-.07h-.08s-.94-.18-.94-.18l-.59-.76-.05-.06-.08-.02-1.01-.21-.51-.71-.04-.06-.07-.02-.95-.24,15.19-21.93c.16-.2.41-.32.67-.3M239.67,145.31c-.33-.02-.65.13-.85.39l-15.36,22.18,1.24.32.56.77,1.09.23.64.82,1.02.18.59.8,1.06.21.61.81,15.36-22.18c.27-.54.05-1.2-.49-1.47-.02,0-.03-.02-.05-.02l-4.6-2.79c-.25-.15-.53-.24-.83-.24h0Z"/>
  <line class="cls-23" x1="224.17" y1="168.01" x2="239.76" y2="145.49"/>
  <line class="cls-23" x1="225.99" y1="168.54" x2="241.52" y2="146.12"/>
  <line class="cls-23" x1="227.65" y1="169.54" x2="243.17" y2="147.12"/>
  <line class="cls-23" x1="229.3" y1="170.54" x2="244.82" y2="148.12"/>
  <line class="cls-24" x1="262.25" y1="166.23" x2="262" y2="162.5"/>
  <path class="cls-17" d="M252.41,169.38c.04-.95.85-1.68,1.79-1.63.29.01.57.1.81.25l3.57,2.16c.81.49,1.07,1.55.58,2.36-.17.29-.43.52-.74.66l-6.36,3.01.34-6.81Z"/>
  <path class="cls-1" d="M254.14,167.89c.29,0,.56.08.81.23l3.57,2.16c.74.45.98,1.41.53,2.15-.16.26-.39.47-.67.6l-6.13,2.9.33-6.55c.04-.83.73-1.49,1.57-1.49M254.14,167.58c-1,0-1.83.78-1.88,1.78l-.35,7.07,6.6-3.12c.94-.44,1.34-1.56.89-2.5-.16-.33-.41-.61-.72-.8l-3.57-2.16c-.29-.18-.63-.27-.97-.27h0Z"/>
  <path class="cls-29" d="M258.43,172.35l-1.12-.25-.53-.75-1.08-.22-.57-.78-1.16-.27-.49-.73-1.16-.32,15.28-22.06c.18-.23.47-.36.76-.34.27,0,.54.08.77.22l4.6,2.79c.3.17.52.45.61.78.05.19.01.4-.1.56l-15.28,22.06-.52-.69Z"/>
  <path class="cls-1" d="M268.36,146.73h0c.25,0,.5.08.72.21l4.6,2.79c.27.15.47.41.56.71.04.16,0,.34-.08.48l-15.2,21.94-.44-.57-.05-.06-.08-.02-.98-.19-.54-.73-.05-.07h-.08s-.94-.18-.94-.18l-.59-.76-.05-.06-.08-.02-1.01-.21-.51-.71-.04-.06-.07-.02-.95-.24,15.19-21.93c.16-.2.41-.32.67-.3M268.36,146.52c-.33-.02-.65.13-.85.39l-15.36,22.18,1.24.32.56.77,1.09.23.64.82,1.02.18.59.8,1.06.21.61.81,15.36-22.18c.27-.54.05-1.2-.49-1.47-.02,0-.03-.02-.05-.02l-4.6-2.79c-.25-.15-.53-.24-.83-.24Z"/>
  <line class="cls-22" x1="252.86" y1="169.22" x2="268.45" y2="146.7"/>
  <line class="cls-22" x1="254.68" y1="169.76" x2="270.21" y2="147.34"/>
  <line class="cls-22" x1="256.34" y1="170.76" x2="271.86" y2="148.34"/>
  <line class="cls-22" x1="257.99" y1="171.76" x2="273.51" y2="149.34"/>
  <polygon class="cls-13" points="152.43 173.4 152.63 170.03 155.38 172.06 152.43 173.4"/>
  <polygon class="cls-13" points="175.4 173.92 175.6 170.55 178.36 172.58 175.4 173.92"/>
  <polygon class="cls-13" points="198.23 174.84 198.43 171.47 201.18 173.5 198.23 174.84"/>
  <polygon class="cls-13" points="223.36 174.92 223.56 171.55 226.31 173.58 223.36 174.92"/>
  <polygon class="cls-1" points="252.23 176.17 252.43 172.8 255.18 174.83 252.23 176.17"/>
</svg>